M48
; DRILL file {KiCad (5.1.12)-1} date 04/22/22 18:12:26
; FORMAT={-:-/ absolute / inch / decimal}
; #@! TF.CreationDate,2022-04-22T18:12:26-05:00
; #@! TF.GenerationSoftware,Kicad,Pcbnew,(5.1.12)-1
FMAT,2
INCH
T1C0.0157
T2C0.0276
T3C0.0300
T4C0.0310
T5C0.0315
T6C0.0360
T7C0.0380
T8C0.0394
T9C0.0433
T10C0.0520
T11C0.0630
T12C0.1260
%
G90
G05
T1
X6.1437Y-3.149
X6.1437Y-3.85
X6.1986Y-5.9898
X6.2272Y-5.1231
X6.2557Y-4.85
X6.277Y-6.5
X6.2783Y-5.0946
X6.289Y-3.006
X6.3078Y-4.9868
X6.3406Y-4.9083
X6.4038Y-2.9692
X6.4173Y-5.1439
X6.4297Y-6.0737
X6.4352Y-5.0449
X6.4703Y-4.8732
X6.4849Y-4.1061
X6.4915Y-2.9455
X6.5342Y-5.0358
X6.5375Y-3.7795
X6.5467Y-4.791
X6.5719Y-4.4929
X6.5819Y-6.7058
X6.5913Y-3.5884
X6.6Y-3.249
X6.6045Y-4.8436
X6.6356Y-5.1439
X6.65Y-4.009
X6.6623Y-4.7046
X6.6707Y-4.8907
X6.6743Y-4.0702
X6.7028Y-4.2994
X6.7149Y-4.9365
X6.7443Y-5.1465
X6.75Y-3.891
X6.7537Y-3.95
X6.8Y-4.35
X6.8Y-4.9168
X6.85Y-4.2547
X6.9Y-4.3991
X6.9866Y-4.587
X7.0083Y-6.2457
X7.0467Y-2.9775
X7.0541Y-4.8947
X7.1Y-4.3052
X7.1091Y-3.1687
X7.1091Y-3.735
X7.1623Y-4.7713
X7.1787Y-3.6517
X7.1833Y-4.6903
X7.2909Y-3.9519
X7.3473Y-5.1442
X7.3546Y-3.006
X7.3791Y-4.9186
X7.4085Y-5.1437
X7.4532Y-3.1813
X7.456Y-4.7557
X7.456Y-6.3453
X7.4817Y-3.2101
X7.4854Y-5.45
X7.4854Y-6.5934
X7.5Y-3.6046
X7.5768Y-4.8481
X7.577Y-5.1351
X7.5823Y-4.7557
X7.5937Y-4.6429
X7.6073Y-3.8611
X7.6248Y-3.6389
X7.6538Y-3.9132
X7.6772Y-3.4795
X7.695Y-4.0506
X7.7118Y-3.5418
X7.7186Y-5.0181
X7.731Y-3.7936
X7.7354Y-4.1407
X7.7465Y-3.5704
X7.756Y-6.4468
X7.7573Y-5.7846
X7.7819Y-3.4619
X7.7888Y-6.6419
X7.7916Y-6.0
X7.7997Y-4.1838
X7.8007Y-5.6
X7.8093Y-3.2563
X7.8184Y-5.9204
X7.8272Y-6.1
X7.8272Y-3.8348
X7.8341Y-3.3945
X7.8422Y-6.5649
X7.859Y-4.0506
X7.8646Y-3.7421
X7.8707Y-6.345
X7.8744Y-3.6002
X7.8762Y-4.5416
X7.8921Y-4.2384
X7.8942Y-6.6124
X7.9003Y-6.1647
X7.9112Y-5.4262
X7.918Y-3.2209
X7.9209Y-4.6918
X7.9209Y-5.1769
X7.9218Y-4.0185
X7.9289Y-5.5057
X7.9289Y-6.7344
X7.9331Y-4.6279
X7.9574Y-4.7488
X7.9858Y-3.9953
X7.9868Y-3.2032
X7.9877Y-5.024
X8.0Y-3.7474
X8.0026Y-3.8521
X8.0211Y-4.5717
X8.0235Y-4.066
X8.0261Y-4.7593
X8.0341Y-3.3477
X8.0405Y-3.6577
X8.0665Y-3.1855
X8.0752Y-3.4742
X8.0785Y-4.65
X8.0882Y-3.3803
X8.0889Y-4.6085
X8.1014Y-4.4685
X8.1076Y-3.6002
X8.1302Y-4.8618
X8.1828Y-3.3518
X8.183Y-3.748
X8.1981Y-4.0021
X8.2227Y-3.3442
X8.25Y-3.6525
X8.25Y-3.8481
X8.2536Y-4.0969
X8.2944Y-3.5086
X8.2954Y-3.7039
X8.3006Y-4.5717
X8.3151Y-4.108
X8.3231Y-4.8264
X8.3272Y-4.679
X8.3393Y-3.417
X8.3562Y-5.9908
X8.3611Y-3.624
X8.3645Y-3.2238
X8.3685Y-6.6129
X8.3719Y-4.8087
X8.3765Y-6.1985
X8.3784Y-5.2834
X8.3788Y-4.65
X8.3799Y-5.4246
X8.3903Y-3.9842
X8.4001Y-3.4763
X8.4141Y-6.5231
X8.4426Y-6.4014
X8.4609Y-5.189
X8.4639Y-3.7291
X8.4699Y-5.3811
X8.4805Y-4.7443
X8.4827Y-3.9863
X8.4973Y-6.05
X8.5085Y-4.1
X8.5604Y-5.4627
X8.5874Y-6.5442
X8.6073Y-5.85
X8.6265Y-4.8249
X8.631Y-5.4041
X8.6396Y-4.7539
X8.6545Y-5.0298
X8.6794Y-6.1387
X8.6945Y-5.0141
X8.6967Y-4.8087
X8.701Y-5.6501
X8.7079Y-6.45
X8.7296Y-5.0382
X8.7333Y-5.4954
X8.7368Y-6.2752
X8.7644Y-5.1887
X8.7973Y-5.166
X8.8316Y-5.2
X8.8814Y-5.0558
X8.8908Y-4.8136
X8.8931Y-5.3267
X8.9237Y-5.0226
X8.9254Y-6.7058
X8.9585Y-6.5417
X8.9587Y-5.0734
X8.9913Y-4.2655
X8.9915Y-5.2559
X9.0207Y-3.208
X9.0481Y-6.6274
X9.0574Y-5.3267
X9.0789Y-4.732
X9.0809Y-4.3969
X9.1626Y-4.8136
X9.1794Y-4.9591
X9.1794Y-5.2
X9.2Y-6.0254
X9.2143Y-3.1613
X9.25Y-6.6285
X9.2563Y-5.3918
X9.301Y-5.9085
X9.315Y-4.5629
X9.3294Y-4.9591
X9.3429Y-6.5094
X9.356Y-4.2443
X9.387Y-5.7951
X9.3969Y-4.6529
X9.4282Y-6.3046
X9.4499Y-4.9945
X9.4586Y-5.7085
X9.4725Y-5.3541
X9.5049Y-4.8312
X9.5207Y-5.9908
X9.5383Y-6.1085
X9.5425Y-6.7344
X9.55Y-5.2066
X9.5902Y-4.8289
X9.6Y-6.0653
X9.6125Y-5.3562
X9.6548Y-6.6773
X9.6668Y-4.7283
X9.6711Y-4.2884
X9.6833Y-4.5053
X9.7004Y-3.9647
X9.7004Y-4.15
X9.7144Y-4.65
X9.8Y-4.9929
X9.829Y-5.1594
X9.8499Y-5.0931
X9.9019Y-4.9946
X9.9395Y-4.7662
X9.9395Y-4.8274
X9.9523Y-5.2708
X9.9846Y-5.1966
X10.0Y-4.8112
X10.0022Y-5.2382
X10.0071Y-5.3396
X10.0219Y-5.6908
X10.0399Y-5.9295
X10.048Y-4.7062
X10.063Y-4.3771
X10.0861Y-6.039
X10.1146Y-5.993
X10.1173Y-5.0555
X10.1229Y-4.9106
X10.134Y-4.7809
X10.1401Y-5.3963
X10.1438Y-5.516
X10.1524Y-4.9617
X10.1769Y-6.3908
X10.1847Y-4.8168
X10.1938Y-5.616
X10.1947Y-5.1862
X10.2008Y-5.2432
X10.2055Y-6.3
X10.2136Y-5.4387
X10.2241Y-6.1919
X10.2377Y-5.3968
X10.2934Y-4.05
X10.3319Y-4.3662
X10.3965Y-3.3322
X10.4Y-4.7837
X10.4Y-5.5292
X10.4617Y-3.85
X10.4891Y-6.3577
X10.5112Y-5.0845
X10.5413Y-4.8155
X10.5979Y-5.311
X10.5981Y-5.1566
X10.6292Y-5.2542
X10.6834Y-5.3556
X10.7Y-4.1054
X10.716Y-5.4414
X10.7415Y-3.0932
X10.7415Y-4.0684
X10.7439Y-4.2439
X10.75Y-5.2759
X10.7825Y-3.2378
X10.8Y-4.0348
X10.8431Y-5.775
X10.8611Y-3.8273
X10.8892Y-4.9942
X10.8914Y-5.7107
X10.9201Y-5.8914
X11.0Y-4.4859
X11.0588Y-4.55
X11.1573Y-5.3149
X11.2663Y-3.9476
X11.2794Y-5.1281
X11.2897Y-2.9455
X11.3171Y-5.4504
X11.3573Y-4.0269
X11.3641Y-5.9429
X11.3699Y-2.9764
X11.4756Y-3.6387
X11.5326Y-3.6681
X11.5794Y-3.8602
X11.5794Y-4.0476
X11.6141Y-4.0268
X11.6495Y-3.8777
X11.65Y-3.5932
X11.6848Y-3.7031
X11.7021Y-5.9429
T2
X10.3Y-6.15
X10.3Y-6.45
X10.6Y-6.15
X10.6Y-6.45
X11.65Y-4.5
X11.65Y-4.8
X11.95Y-4.5
X11.95Y-4.8
T3
X10.25Y-5.8
X10.3Y-5.75
X10.35Y-5.8
T4
X10.35Y-5.2
X10.35Y-5.5
X10.45Y-5.2
X10.45Y-5.5
X10.5Y-3.6
X10.5Y-3.9
X10.55Y-5.2
X10.55Y-5.5
X10.6Y-3.6
X10.6Y-3.9
X10.65Y-5.2
X10.65Y-5.5
X10.7Y-3.6
X10.7Y-3.9
X10.75Y-5.2
X10.75Y-5.5
X10.8Y-3.6
X10.8Y-3.9
X10.85Y-5.2
X10.85Y-5.5
X10.9Y-3.6
X10.9Y-3.9
X10.95Y-5.2
X10.95Y-5.5
X11.0Y-3.6
X11.0Y-3.9
X11.1Y-3.6
X11.1Y-3.9
X11.2Y-3.6
X11.2Y-3.9
T5
X6.35Y-3.55
X6.35Y-3.65
X6.35Y-3.75
X6.35Y-3.85
X6.35Y-3.95
X6.35Y-4.05
X6.35Y-4.15
X6.35Y-4.25
X6.35Y-4.35
X6.35Y-4.45
X6.35Y-4.55
X6.45Y-3.45
X6.45Y-3.55
X6.45Y-3.65
X6.45Y-3.75
X6.45Y-3.85
X6.45Y-3.95
X6.45Y-4.05
X6.45Y-4.15
X6.45Y-4.25
X6.45Y-4.35
X6.45Y-4.45
X6.45Y-4.55
X6.45Y-4.65
X6.55Y-3.45
X6.55Y-3.55
X6.55Y-4.55
X6.55Y-4.65
X6.65Y-3.45
X6.65Y-3.55
X6.65Y-4.55
X6.65Y-4.65
X6.65Y-5.2
X6.65Y-5.3
X6.65Y-5.4
X6.65Y-5.5
X6.65Y-5.6
X6.65Y-5.7
X6.65Y-5.8
X6.65Y-5.9
X6.65Y-6.0
X6.65Y-6.1
X6.65Y-6.2
X6.65Y-6.3
X6.65Y-6.4
X6.65Y-6.5
X6.75Y-3.45
X6.75Y-3.55
X6.75Y-4.55
X6.75Y-4.65
X6.85Y-3.45
X6.85Y-3.55
X6.85Y-4.55
X6.85Y-4.65
X6.95Y-3.45
X6.95Y-3.55
X6.95Y-4.55
X6.95Y-4.65
X7.05Y-3.45
X7.05Y-3.55
X7.05Y-4.55
X7.05Y-4.65
X7.15Y-3.45
X7.15Y-3.55
X7.15Y-4.55
X7.15Y-4.65
X7.25Y-3.45
X7.25Y-3.55
X7.25Y-4.55
X7.25Y-4.65
X7.25Y-5.2
X7.25Y-5.3
X7.25Y-5.4
X7.25Y-5.5
X7.25Y-5.6
X7.25Y-5.7
X7.25Y-5.8
X7.25Y-5.9
X7.25Y-6.0
X7.25Y-6.1
X7.25Y-6.2
X7.25Y-6.3
X7.25Y-6.4
X7.25Y-6.5
X7.35Y-3.45
X7.35Y-3.55
X7.35Y-4.55
X7.35Y-4.65
X7.45Y-3.45
X7.45Y-3.55
X7.45Y-3.65
X7.45Y-3.75
X7.45Y-3.85
X7.45Y-3.95
X7.45Y-4.05
X7.45Y-4.15
X7.45Y-4.25
X7.45Y-4.35
X7.45Y-4.45
X7.45Y-4.55
X7.45Y-4.65
X7.55Y-3.55
X7.55Y-3.65
X7.55Y-3.75
X7.55Y-3.85
X7.55Y-3.95
X7.55Y-4.05
X7.55Y-4.15
X7.55Y-4.25
X7.55Y-4.35
X7.55Y-4.45
X7.55Y-4.55
X7.7Y-5.2
X7.7Y-5.3
X7.7Y-5.4
X7.7Y-5.5
X7.7Y-5.6
X7.7Y-5.7
X7.7Y-5.8
X7.7Y-5.9
X7.7Y-6.0
X7.7Y-6.1
X7.7Y-6.2
X7.7Y-6.3
X7.7Y-6.4
X7.7Y-6.5
X8.3Y-5.2
X8.3Y-5.3
X8.3Y-5.4
X8.3Y-5.5
X8.3Y-5.6
X8.3Y-5.7
X8.3Y-5.8
X8.3Y-5.9
X8.3Y-6.0
X8.3Y-6.1
X8.3Y-6.2
X8.3Y-6.3
X8.3Y-6.4
X8.3Y-6.5
X8.55Y-3.35
X8.55Y-3.45
X8.55Y-3.55
X8.55Y-3.65
X8.55Y-3.75
X8.55Y-3.85
X8.55Y-3.95
X8.55Y-4.05
X8.55Y-4.15
X8.55Y-4.25
X8.55Y-4.35
X8.55Y-4.45
X8.55Y-4.55
X8.55Y-4.65
X8.9Y-5.55
X8.9Y-5.65
X8.9Y-5.75
X8.9Y-5.85
X8.9Y-5.95
X8.9Y-6.05
X8.9Y-6.15
X8.9Y-6.25
X8.9Y-6.35
X9.0Y-5.45
X9.0Y-5.55
X9.0Y-5.65
X9.0Y-5.75
X9.0Y-5.85
X9.0Y-5.95
X9.0Y-6.05
X9.0Y-6.15
X9.0Y-6.25
X9.0Y-6.35
X9.0Y-6.45
X9.1Y-5.45
X9.1Y-5.55
X9.1Y-6.35
X9.1Y-6.45
X9.15Y-3.35
X9.15Y-3.45
X9.15Y-3.55
X9.15Y-3.65
X9.15Y-3.75
X9.15Y-3.85
X9.15Y-3.95
X9.15Y-4.05
X9.15Y-4.15
X9.15Y-4.25
X9.15Y-4.35
X9.15Y-4.45
X9.15Y-4.55
X9.15Y-4.65
X9.2Y-5.45
X9.2Y-5.55
X9.2Y-6.35
X9.2Y-6.45
X9.3Y-5.45
X9.3Y-5.55
X9.3Y-6.35
X9.3Y-6.45
X9.4Y-5.45
X9.4Y-5.55
X9.4Y-6.35
X9.4Y-6.45
X9.5Y-5.45
X9.5Y-5.55
X9.5Y-6.35
X9.5Y-6.45
X9.6Y-3.35
X9.6Y-3.45
X9.6Y-3.55
X9.6Y-3.65
X9.6Y-3.75
X9.6Y-3.85
X9.6Y-3.95
X9.6Y-4.05
X9.6Y-4.15
X9.6Y-4.25
X9.6Y-4.35
X9.6Y-4.45
X9.6Y-4.55
X9.6Y-4.65
X9.6Y-5.45
X9.6Y-5.55
X9.6Y-6.35
X9.6Y-6.45
X9.7Y-5.45
X9.7Y-5.55
X9.7Y-6.35
X9.7Y-6.45
X9.8Y-5.45
X9.8Y-5.55
X9.8Y-5.65
X9.8Y-5.75
X9.8Y-5.85
X9.8Y-5.95
X9.8Y-6.05
X9.8Y-6.15
X9.8Y-6.25
X9.8Y-6.35
X9.8Y-6.45
X9.9Y-5.55
X9.9Y-5.65
X9.9Y-5.75
X9.9Y-5.85
X9.9Y-5.95
X9.9Y-6.05
X9.9Y-6.15
X9.9Y-6.25
X9.9Y-6.35
X10.2Y-3.35
X10.2Y-3.45
X10.2Y-3.55
X10.2Y-3.65
X10.2Y-3.75
X10.2Y-3.85
X10.2Y-3.95
X10.2Y-4.05
X10.2Y-4.15
X10.2Y-4.25
X10.2Y-4.35
X10.2Y-4.45
X10.2Y-4.55
X10.2Y-4.65
X10.6Y-4.3
X10.6Y-4.4
X10.6Y-4.5
X10.6Y-4.6
X10.6Y-4.7
X10.6Y-4.8
X10.7Y-4.2
X10.7Y-4.3
X10.7Y-4.4
X10.7Y-4.5
X10.7Y-4.6
X10.7Y-4.7
X10.7Y-4.8
X10.7Y-4.9
X10.8Y-4.2
X10.8Y-4.3
X10.8Y-4.8
X10.8Y-4.9
X10.9Y-4.2
X10.9Y-4.3
X10.9Y-4.8
X10.9Y-4.9
X11.0Y-4.2
X11.0Y-4.3
X11.0Y-4.8
X11.0Y-4.9
X11.1Y-4.2
X11.1Y-4.3
X11.1Y-4.8
X11.1Y-4.9
X11.2Y-4.2
X11.2Y-4.3
X11.2Y-4.4
X11.2Y-4.5
X11.2Y-4.6
X11.2Y-4.7
X11.2Y-4.8
X11.2Y-4.9
X11.3Y-4.3
X11.3Y-4.4
X11.3Y-4.5
X11.3Y-4.6
X11.3Y-4.7
X11.3Y-4.8
T6
X6.7Y-3.1
X6.8Y-3.1
X6.9Y-3.1
X7.0Y-3.1
X7.1Y-3.1
T7
X6.6Y-3.1
T8
X7.5Y-3.1
X7.6Y-3.1
X7.7Y-3.1
X7.8Y-3.1
X7.9Y-3.1
X8.0Y-3.1
X8.1Y-3.1
X8.2Y-3.1
X8.3Y-3.1
X8.4Y-3.1
X10.8638Y-3.35
X10.9183Y-3.2382
X10.9728Y-3.35
X11.0274Y-3.2382
X11.0819Y-3.35
X11.1364Y-3.2382
X11.1909Y-3.35
X11.2455Y-3.2382
X11.3Y-3.35
T9
X11.222Y-5.5614
X11.222Y-5.7386
X11.478Y-5.5614
X11.478Y-5.7386
T10
X11.8Y-5.35
X11.8Y-5.4504
X11.8Y-5.5508
T11
X11.15Y-6.0
X11.15Y-6.2362
X11.335Y-6.1181
T12
X10.5898Y-3.3382
X11.574Y-3.3382
T0
M30
