M48
; DRILL file {KiCad (5.1.12)-1} date 02/23/22 14:31:49
; FORMAT={-:-/ absolute / inch / decimal}
; #@! TF.CreationDate,2022-02-23T14:31:49-06:00
; #@! TF.GenerationSoftware,Kicad,Pcbnew,(5.1.12)-1
; #@! TF.FileFunction,Plated,1,2,PTH
FMAT,2
INCH
T1C0.0157
T2C0.0276
T3C0.0300
T4C0.0310
T5C0.0315
T6C0.0360
T7C0.0380
T8C0.0394
T9C0.0433
T10C0.0520
T11C0.1260
%
G90
G05
T1
X3.55Y-4.55
X3.55Y-6.6
X3.6Y-4.5
X3.65Y-6.6
X3.7Y-4.35
X3.7Y-6.6
X3.75Y-5.8
X3.8Y-6.6
X3.85Y-4.1
X3.85Y-6.35
X3.85Y-6.6
X3.9Y-5.9
X3.9Y-6.6
X3.95Y-5.55
X3.95Y-6.2
X3.95Y-6.6
X4.0Y-4.4
X4.0Y-6.6
X4.05Y-4.25
X4.05Y-6.6
X4.1Y-3.65
X4.1Y-6.6
X4.15Y-3.15
X4.15Y-5.65
X4.15Y-6.1
X4.2Y-3.15
X4.2Y-4.65
X4.2Y-6.65
X4.25Y-6.0
X4.25Y-6.65
X4.3Y-4.15
X4.3Y-6.65
X4.35Y-6.65
X4.4Y-5.15
X4.4Y-6.65
X4.45Y-5.0
X4.5Y-6.7
X4.55Y-3.1
X4.55Y-4.9
X4.55Y-4.95
X4.55Y-6.15
X4.6Y-3.05
X4.6Y-6.3
X4.65Y-3.05
X4.7Y-5.05
X4.7Y-5.1
X4.7Y-6.8
X4.75Y-4.9
X4.75Y-5.35
X4.75Y-5.45
X4.75Y-6.8
X4.8Y-3.0
X4.8Y-4.15
X4.8Y-4.8
X4.8Y-5.8
X4.85Y-3.45
X4.85Y-5.6
X4.9Y-3.4
X4.9Y-5.3
X4.95Y-3.3
X4.95Y-5.2
X4.95Y-5.35
X4.95Y-6.0
X5.0Y-2.8
X5.0Y-4.85
X5.0Y-5.9
X5.05Y-2.85
X5.05Y-4.75
X5.05Y-5.5
X5.1Y-2.9
X5.1Y-5.4
X5.1Y-6.15
X5.1Y-6.6
X5.1Y-7.1
X5.15Y-2.45
X5.15Y-3.1
X5.15Y-3.45
X5.15Y-4.65
X5.15Y-4.7
X5.15Y-6.65
X5.2Y-2.55
X5.2Y-5.15
X5.2Y-7.35
X5.2Y-7.45
X5.25Y-3.2
X5.3Y-2.2
X5.3Y-2.25
X5.3Y-2.4
X5.3Y-3.05
X5.3Y-3.15
X5.3Y-4.9
X5.3Y-6.7
X5.3Y-7.15
X5.35Y-2.15
X5.35Y-3.0
X5.35Y-3.05
X5.35Y-4.0
X5.35Y-4.85
X5.35Y-4.9
X5.35Y-5.0
X5.4Y-3.0
X5.4Y-3.9
X5.4Y-4.8
X5.4Y-5.0
X5.4Y-5.1
X5.4Y-5.2
X5.4Y-5.5
X5.45Y-2.95
X5.45Y-3.8
X5.5Y-3.6
X5.5Y-4.75
X5.5Y-4.85
X5.5Y-5.8
X5.5Y-6.7
X5.5Y-6.95
X5.55Y-4.2
X5.55Y-5.1
X5.6Y-4.9
X5.6Y-5.7
X5.6Y-6.1
X5.65Y-2.7
X5.65Y-6.4
X5.65Y-6.55
X5.7Y-3.9
X5.7Y-6.95
X5.75Y-5.8
X5.75Y-7.25
X5.85Y-5.3
X5.9Y-6.7
X5.9Y-6.95
X5.95Y-3.7
X5.95Y-4.7
X6.0Y-5.5
X6.0Y-7.45
X6.05Y-2.65
X6.05Y-3.6
X6.05Y-3.7
X6.1Y-2.75
X6.1Y-4.2
X6.1Y-6.95
X6.15Y-3.0
X6.15Y-4.0
X6.15Y-5.05
X6.15Y-6.7
X6.2Y-3.05
X6.2Y-3.6
X6.2Y-4.8
X6.25Y-3.1
X6.25Y-5.1
X6.25Y-6.55
X6.2949Y-5.5
X6.3Y-3.15
X6.3Y-5.0
X6.3Y-6.7
X6.3Y-6.95
X6.35Y-5.05
X6.4Y-3.2
X6.4Y-5.1
X6.4Y-7.1
X6.4051Y-5.9
X6.4051Y-6.1
X6.45Y-2.3
X6.45Y-2.95
X6.45Y-4.75
X6.45Y-5.2
X6.45Y-5.7
X6.45Y-5.8
X6.45Y-7.5
X6.5Y-2.9
X6.5Y-4.75
X6.5Y-5.0
X6.5Y-5.2
X6.5Y-6.95
X6.55Y-2.35
X6.55Y-2.85
X6.55Y-4.1
X6.55Y-5.9
X6.6Y-2.8
X6.6Y-4.75
X6.6Y-5.9
X6.6Y-6.45
X6.6Y-8.1
X6.65Y-2.95
X6.65Y-5.3
X6.7Y-3.1
X6.7Y-6.95
X6.75Y-2.85
X6.75Y-3.5
X6.75Y-5.7
X6.75Y-6.1
X6.8Y-3.2
X6.8Y-4.6
X6.8Y-5.0
X6.8Y-5.3
X6.8Y-5.7
X6.8Y-6.2
X6.8Y-7.7
X6.85Y-2.1
X6.85Y-2.2
X6.85Y-2.6
X6.85Y-3.8
X6.85Y-4.1
X6.85Y-4.7
X6.85Y-4.8
X6.85Y-6.2
X6.85Y-6.6
X6.8949Y-5.7
X6.9Y-2.2
X6.9Y-3.85
X6.9Y-4.75
X6.9Y-4.8
X6.9Y-5.1
X6.9Y-6.95
X7.0Y-6.75
X7.0Y-6.85
X7.0Y-7.05
X7.0226Y-5.613
X7.05Y-5.15
X7.05Y-6.15
X7.05Y-7.15
X7.1Y-5.4
X7.1Y-5.5
X7.1Y-5.55
X7.1Y-5.75
X7.1Y-5.85
X7.1Y-6.4
X7.1Y-6.9
X7.1Y-7.65
X7.15Y-2.9
X7.15Y-3.8
X7.15Y-4.5
X7.15Y-4.6
X7.15Y-6.95
X7.2Y-3.15
X7.2Y-4.05
X7.2Y-4.1
X7.2Y-6.25
X7.2Y-6.6
X7.2Y-7.3
X7.25Y-3.05
X7.25Y-5.85
X7.25Y-5.8929
X7.25Y-6.4
X7.25Y-6.75
X7.3Y-3.25
X7.3Y-5.75
X7.3Y-5.8929
X7.3Y-6.6
X7.3Y-6.7
X7.3Y-7.3
X7.35Y-3.4
X7.35Y-4.2
X7.35Y-4.3
X7.35Y-4.85
X7.35Y-5.0
X7.35Y-5.2
X7.35Y-6.15
X7.35Y-6.55
X7.35Y-7.15
X7.4Y-3.2
X7.4Y-3.95
X7.4Y-4.05
X7.4Y-4.4
X7.4Y-4.45
X7.4Y-4.7
X7.4Y-6.7
X7.4Y-7.75
X7.45Y-3.35
X7.45Y-3.6
X7.45Y-5.0
X7.45Y-5.1
X7.45Y-6.05
X7.45Y-6.75
X7.5Y-2.75
X7.5Y-3.7
X7.5Y-3.75
X7.5Y-4.55
X7.5Y-4.7
X7.5Y-4.9
X7.5Y-5.2
X7.5Y-5.3
X7.5Y-5.65
X7.5Y-5.75
X7.5Y-6.0
X7.5Y-6.35
X7.5Y-7.05
X7.55Y-3.25
X7.55Y-4.15
X7.55Y-4.65
X7.55Y-4.85
X7.55Y-5.2
X7.55Y-5.7
X7.55Y-5.95
X7.55Y-6.5
X7.55Y-7.25
X7.5984Y-4.3
X7.5984Y-5.65
X7.6Y-2.8
X7.6Y-3.65
X7.6Y-4.55
X7.6Y-4.95
X7.6Y-6.6
X7.6108Y-5.8929
X7.65Y-2.8
X7.65Y-8.2
X7.6807Y-4.95
X7.6807Y-5.6
X7.6807Y-5.9
X7.7Y-3.0
X7.7Y-6.4
X7.7Y-8.15
X7.8Y-2.15
X7.8Y-6.4
X7.8Y-7.5
X7.8016Y-6.15
X7.8016Y-6.55
X7.8295Y-2.7288
X7.85Y-3.55
X7.85Y-4.1
X7.85Y-5.4984
X7.85Y-5.75
X7.85Y-5.95
X7.85Y-6.45
X7.85Y-6.5
X7.85Y-7.55
X7.9Y-3.4
X7.9Y-3.5
X7.9Y-3.65
X7.9Y-4.35
X7.9Y-6.05
X7.9Y-6.4
X7.9Y-7.8
X7.95Y-5.7016
X7.95Y-5.75
X7.95Y-6.55
X7.95Y-7.5
X7.9807Y-4.85
X8.0Y-3.3
X8.0Y-3.65
X8.0Y-4.2
X8.0Y-4.35
X8.0Y-7.8
X8.0193Y-6.85
X8.05Y-3.65
X8.05Y-3.75
X8.05Y-4.5
X8.05Y-4.7
X8.05Y-5.1
X8.05Y-6.5
X8.05Y-7.9
X8.05Y-7.95
X8.1Y-3.2
X8.1Y-4.1
X8.1Y-4.2
X8.1Y-4.45
X8.1Y-5.5
X8.1Y-5.6
X8.1Y-6.25
X8.1Y-6.45
X8.1Y-7.25
X8.15Y-4.5
X8.15Y-5.55
X8.15Y-5.95
X8.15Y-6.15
X8.15Y-6.55
X8.15Y-8.15
X8.15Y-8.25
X8.2Y-3.3
X8.2Y-3.75
X8.2Y-4.25
X8.2Y-4.3
X8.2Y-4.35
X8.2Y-5.4
X8.2Y-6.15
X8.2Y-6.35
X8.2Y-7.85
X8.2008Y-4.7843
X8.2095Y-4.4559
X8.25Y-4.0516
X8.25Y-4.65
X8.25Y-5.3
X8.25Y-6.5
X8.25Y-6.55
X8.25Y-6.65
X8.25Y-8.3
X8.3Y-3.7
X8.3Y-4.2
X8.3Y-4.25
X8.3Y-4.45
X8.3Y-4.65
X8.3Y-4.85
X8.3Y-4.95
X8.3Y-5.1
X8.3Y-5.3
X8.3Y-7.45
X8.35Y-2.95
X8.35Y-4.1
X8.35Y-4.15
X8.35Y-5.45
X8.35Y-5.75
X8.35Y-6.45
X8.35Y-6.55
X8.35Y-6.95
X8.35Y-8.25
X8.4Y-3.3
X8.4Y-3.7
X8.4Y-5.4
X8.4Y-7.35
X8.45Y-2.95
X8.45Y-4.1
X8.45Y-4.55
X8.45Y-5.0
X8.45Y-5.25
X8.45Y-5.7016
X8.45Y-5.8
X8.45Y-5.85
X8.45Y-6.05
X8.45Y-6.35
X8.45Y-7.85
X8.45Y-8.55
X8.5Y-2.75
X8.5Y-4.65
X8.5Y-5.15
X8.5Y-6.55
X8.5Y-7.4
X8.55Y-5.2
X8.55Y-6.05
X8.55Y-8.55
X8.6Y-3.3
X8.6Y-3.8
X8.6Y-5.7
X8.6Y-6.45
X8.6Y-6.55
X8.6Y-7.05
X8.65Y-5.35
X8.65Y-5.75
X8.65Y-5.85
X8.65Y-5.95
X8.65Y-6.2
X8.65Y-8.35
X8.6984Y-5.85
X8.7Y-2.5
X8.7Y-3.95
X8.7Y-5.25
X8.7Y-6.95
X8.7Y-8.65
X8.75Y-2.3
X8.75Y-2.45
X8.75Y-2.5
X8.75Y-2.6
X8.75Y-3.25
X8.75Y-3.9
X8.75Y-4.95
X8.75Y-5.45
X8.75Y-7.1
X8.8Y-3.3
X8.8Y-5.05
X8.8Y-5.1
X8.8Y-5.3
X8.8Y-6.9
X8.8Y-8.4
X8.8016Y-5.55
X8.85Y-3.8
X8.85Y-4.6
X8.85Y-4.8
X8.85Y-5.5
X8.85Y-7.15
X8.9Y-2.5
X8.9Y-3.4
X8.9Y-3.75
X8.9Y-4.55
X8.9Y-6.3
X8.9Y-7.4
X8.9016Y-6.45
X8.9298Y-6.1079
X8.95Y-2.25
X8.95Y-3.6
X8.95Y-3.65
X8.95Y-4.3
X8.95Y-4.45
X8.95Y-4.65
X8.95Y-6.05
X8.95Y-6.55
X8.95Y-7.05
X9.0Y-2.65
X9.0Y-5.35
X9.0Y-5.6
X9.0Y-5.65
X9.0Y-5.85
X9.0Y-5.95
X9.0Y-6.2
X9.0Y-6.5
X9.05Y-2.7
X9.05Y-4.35
X9.05Y-4.8
X9.05Y-5.55
X9.05Y-6.0
X9.05Y-6.1
X9.05Y-6.3
X9.05Y-6.4
X9.05Y-6.6
X9.05Y-7.35
X9.05Y-7.45
X9.1Y-3.1
X9.1Y-4.15
X9.1Y-4.25
X9.1Y-4.65
X9.1Y-7.2
X9.15Y-2.65
X9.15Y-3.25
X9.15Y-3.6
X9.15Y-4.3
X9.15Y-4.45
X9.15Y-5.45
X9.15Y-7.15
X9.1534Y-5.0534
X9.2Y-3.1
X9.2Y-7.3
X9.25Y-2.7
X9.25Y-3.9
X9.25Y-5.45
X9.25Y-5.8
X9.25Y-6.1
X9.25Y-7.15
X9.3Y-3.15
X9.3Y-3.7
X9.3Y-5.2
X9.3Y-5.3
X9.3Y-5.55
X9.3Y-5.6
X9.3Y-5.95
X9.3Y-7.25
X9.35Y-2.3
X9.35Y-4.2
X9.35Y-5.6
X9.35Y-6.05
X9.35Y-6.9
X9.35Y-8.0
X9.3896Y-6.25
X9.4Y-3.1
X9.4Y-5.25
X9.4Y-5.3212
X9.4Y-6.15
X9.4Y-7.0
X9.4108Y-6.3
X9.4466Y-4.8034
X9.45Y-4.1
X9.45Y-4.4
X9.45Y-5.65
X9.45Y-6.25
X9.45Y-7.2
X9.45Y-8.5
X9.5Y-3.15
X9.5Y-4.6
X9.5Y-4.7
X9.5Y-5.35
X9.5Y-7.05
X9.5Y-7.3
X9.55Y-4.15
X9.55Y-4.5
X9.55Y-5.9
X9.55Y-8.25
X9.5785Y-5.0
X9.6Y-3.05
X9.6Y-5.65
X9.6Y-8.3
X9.65Y-3.3
X9.65Y-4.15
X9.65Y-7.05
X9.7Y-3.25
X9.7Y-3.9
X9.7Y-4.4
X9.7Y-4.85
X9.7Y-5.05
X9.7Y-5.35
X9.7Y-6.6
X9.7Y-7.85
X9.75Y-2.6
X9.75Y-4.75
X9.75Y-5.5108
X9.75Y-5.9
X9.75Y-8.55
X9.8Y-3.05
X9.8Y-3.75
X9.8Y-5.45
X9.8Y-6.5
X9.85Y-3.9715
X9.85Y-4.3
X9.85Y-4.85
X9.85Y-5.35
X9.85Y-6.5
X9.85Y-8.2
X9.9Y-2.55
X9.9Y-4.7
X9.9Y-7.75
X9.9Y-8.45
X9.95Y-3.3
X9.95Y-3.75
X9.95Y-3.9
X9.95Y-5.5108
X9.95Y-6.55
X9.9693Y-7.85
X10.0Y-2.2
X10.0Y-5.6
X10.0Y-8.6
X10.0484Y-6.5
X10.05Y-3.3
X10.05Y-5.75
X10.05Y-6.95
X10.1Y-3.3
X10.1Y-3.75
X10.1Y-4.15
X10.1Y-5.2
X10.1Y-5.95
X10.1Y-8.15
X10.15Y-2.5
X10.15Y-4.45
X10.15Y-5.1
X10.15Y-5.35
X10.15Y-5.4
X10.15Y-5.9
X10.15Y-6.65
X10.15Y-6.9
X10.2Y-4.1
X10.2Y-4.55
X10.2Y-5.15
X10.2Y-5.5
X10.2Y-5.8
X10.2Y-8.4
X10.25Y-3.3
X10.25Y-3.75
X10.25Y-4.35
X10.25Y-4.6
X10.25Y-4.95
X10.25Y-5.8
X10.25Y-6.85
X10.3Y-3.75
X10.3Y-5.6
X10.3Y-6.75
X10.3Y-7.05
X10.35Y-3.75
X10.35Y-5.75
X10.35Y-7.8
X10.4Y-3.3
X10.4Y-3.75
X10.4Y-4.1
X10.4Y-6.1
X10.4Y-7.9
X10.45Y-3.0
X10.45Y-8.1
X10.5Y-3.75
X10.5Y-5.75
X10.5Y-7.3
X10.5002Y-4.9502
X10.55Y-3.3
X10.55Y-3.75
X10.55Y-4.1
X10.55Y-6.1
X10.6Y-4.35
X10.6Y-5.3
X10.65Y-3.75
X10.65Y-6.0
X10.7Y-3.3
X10.7Y-3.75
X10.7Y-4.1
X10.7Y-4.95
X10.75Y-5.4
X10.75Y-5.9
X10.8Y-3.75
X10.8Y-4.25
X10.8Y-6.75
X10.85Y-3.3
X10.85Y-3.75
X10.85Y-4.1
X10.85Y-4.3
X10.85Y-6.05
X10.85Y-7.2
X10.9Y-4.75
X10.9Y-4.85
X10.9Y-5.6
X10.9Y-7.4
X10.95Y-3.75
X10.95Y-5.15
X10.95Y-6.7
X11.0Y-3.3
X11.0Y-3.75
X11.0Y-4.1
X11.0Y-4.95
X11.0Y-5.05
X11.05Y-6.15
X11.1Y-3.75
X11.1Y-4.1
X11.1Y-4.85
X11.1Y-5.6
X11.15Y-3.3
X11.15Y-3.75
X11.15Y-4.6
X11.2Y-4.05
X11.2Y-4.7
X11.2Y-4.8
X11.2Y-5.15
X11.2Y-5.6
X11.2Y-6.7
X11.25Y-3.15
X11.25Y-4.8
X11.25Y-5.25
X11.3Y-2.65
X11.3Y-4.25
X11.3Y-4.6
X11.3Y-5.4
X11.3Y-5.55
X11.3Y-6.1
X11.35Y-3.6
X11.35Y-4.8
X11.35Y-5.05
X11.35Y-5.75
X11.4Y-4.05
X11.4Y-4.8
X11.4Y-4.9
X11.45Y-2.45
X11.45Y-3.1
X11.45Y-3.5
X11.45Y-5.45
X11.5Y-5.9
X11.55Y-2.05
X11.55Y-6.0
X11.6Y-2.35
X11.6Y-5.45
X11.6Y-6.0
X11.6Y-7.75
X11.65Y-2.7
X11.65Y-3.4
X11.65Y-6.05
X11.7Y-2.3
X11.7Y-5.4
X11.7Y-6.1
X11.75Y-3.05
X11.75Y-4.05
X11.75Y-5.45
X11.75Y-8.0
X11.8461Y-7.8461
X11.85Y-3.4
X11.85Y-4.85
X11.85Y-5.15
X11.85Y-5.2
X11.85Y-6.6
X11.85Y-6.85
X11.9Y-3.0
X11.9Y-4.75
X11.9Y-7.0
X11.95Y-4.0
X11.95Y-5.1
X11.95Y-7.6
X12.0Y-3.15
X12.0Y-5.75
X12.0Y-5.8
X12.0Y-7.55
X12.05Y-3.2
X12.05Y-5.85
X12.05Y-5.9
X12.05Y-7.45
X12.05Y-7.5
X12.1Y-3.0
X12.1Y-3.05
X12.1Y-7.05
X12.15Y-7.1
X12.2Y-3.05
X12.2Y-4.55
X12.2Y-5.75
X12.2Y-7.15
X12.25Y-4.7
X12.25Y-5.05
X12.25Y-5.45
X12.25Y-5.65
X12.3Y-3.1
X12.3Y-4.5
X12.3Y-7.2
X12.35Y-3.35
X12.35Y-4.9
X12.35Y-5.7
X12.35Y-7.25
X12.4Y-7.25
X12.45Y-3.25
X12.45Y-5.9
X12.5Y-3.1
X12.5Y-5.75
X12.5Y-5.8
X12.5Y-6.6
X12.55Y-4.35
X12.55Y-5.45
X12.55Y-7.15
X12.6Y-4.6
X12.6Y-5.95
X12.65Y-5.75
X12.65Y-6.65
X12.7Y-5.8
X12.75Y-6.0
X12.8Y-5.95
T2
X9.65Y-4.25
X9.65Y-4.55
X9.65Y-5.0
X9.65Y-5.3
X9.95Y-4.25
X9.95Y-4.55
X9.95Y-5.0
X9.95Y-5.3
T3
X11.15Y-5.0
X11.2Y-4.95
X11.25Y-5.0
T4
X10.35Y-5.25
X10.35Y-5.55
X10.4Y-4.15
X10.4Y-4.45
X10.45Y-5.25
X10.45Y-5.55
X10.5Y-4.15
X10.5Y-4.45
X10.55Y-5.25
X10.55Y-5.55
X10.6Y-4.15
X10.6Y-4.45
X10.65Y-5.25
X10.65Y-5.55
X10.7Y-4.15
X10.7Y-4.45
X10.75Y-5.25
X10.75Y-5.55
X10.8Y-4.15
X10.8Y-4.45
X10.85Y-5.25
X10.85Y-5.55
X10.9Y-4.15
X10.9Y-4.45
X10.95Y-5.25
X10.95Y-5.55
X11.0Y-4.15
X11.0Y-4.45
X11.05Y-5.25
X11.05Y-5.55
T5
X5.25Y-3.3
X5.25Y-3.4
X5.25Y-3.5
X5.25Y-3.6
X5.25Y-3.7
X5.25Y-3.8
X5.25Y-3.9
X5.25Y-4.0
X5.25Y-4.1
X5.25Y-4.2
X5.25Y-4.3
X5.25Y-4.4
X5.25Y-4.5
X5.25Y-4.6
X5.25Y-5.2
X5.25Y-5.3
X5.25Y-5.4
X5.25Y-5.5
X5.25Y-5.6
X5.25Y-5.7
X5.25Y-5.8
X5.25Y-5.9
X5.25Y-6.0
X5.25Y-6.1
X5.25Y-6.2
X5.25Y-6.3
X5.25Y-6.4
X5.25Y-6.5
X5.85Y-3.3
X5.85Y-3.4
X5.85Y-3.5
X5.85Y-3.6
X5.85Y-3.7
X5.85Y-3.8
X5.85Y-3.9
X5.85Y-4.0
X5.85Y-4.1
X5.85Y-4.2
X5.85Y-4.3
X5.85Y-4.4
X5.85Y-4.5
X5.85Y-4.6
X5.85Y-5.2
X5.85Y-5.3
X5.85Y-5.4
X5.85Y-5.5
X5.85Y-5.6
X5.85Y-5.7
X5.85Y-5.8
X5.85Y-5.9
X5.85Y-6.0
X5.85Y-6.1
X5.85Y-6.2
X5.85Y-6.3
X5.85Y-6.4
X5.85Y-6.5
X6.35Y-5.2
X6.35Y-5.3
X6.35Y-5.4
X6.35Y-5.5
X6.35Y-5.6
X6.35Y-5.7
X6.35Y-5.8
X6.35Y-5.9
X6.35Y-6.0
X6.35Y-6.1
X6.35Y-6.2
X6.35Y-6.3
X6.35Y-6.4
X6.35Y-6.5
X6.4Y-3.3
X6.4Y-3.4
X6.4Y-3.5
X6.4Y-3.6
X6.4Y-3.7
X6.4Y-3.8
X6.4Y-3.9
X6.4Y-4.0
X6.4Y-4.1
X6.4Y-4.2
X6.4Y-4.3
X6.4Y-4.4
X6.4Y-4.5
X6.4Y-4.6
X6.95Y-5.2
X6.95Y-5.3
X6.95Y-5.4
X6.95Y-5.5
X6.95Y-5.6
X6.95Y-5.7
X6.95Y-5.8
X6.95Y-5.9
X6.95Y-6.0
X6.95Y-6.1
X6.95Y-6.2
X6.95Y-6.3
X6.95Y-6.4
X6.95Y-6.5
X7.0Y-3.3
X7.0Y-3.4
X7.0Y-3.5
X7.0Y-3.6
X7.0Y-3.7
X7.0Y-3.8
X7.0Y-3.9
X7.0Y-4.0
X7.0Y-4.1
X7.0Y-4.2
X7.0Y-4.3
X7.0Y-4.4
X7.0Y-4.5
X7.0Y-4.6
X7.65Y-4.0
X7.65Y-4.1
X7.65Y-4.2
X7.65Y-4.3
X7.65Y-4.4
X7.65Y-4.5
X7.65Y-4.6
X7.65Y-4.7
X7.65Y-4.8
X7.65Y-5.65
X7.65Y-5.75
X7.65Y-5.85
X7.65Y-5.95
X7.65Y-6.05
X7.65Y-6.15
X7.65Y-6.25
X7.65Y-6.35
X7.65Y-6.45
X7.65Y-6.55
X7.65Y-6.65
X7.75Y-3.9
X7.75Y-4.0
X7.75Y-4.1
X7.75Y-4.2
X7.75Y-4.3
X7.75Y-4.4
X7.75Y-4.5
X7.75Y-4.6
X7.75Y-4.7
X7.75Y-4.8
X7.75Y-4.9
X7.75Y-5.55
X7.75Y-5.65
X7.75Y-5.75
X7.75Y-5.85
X7.75Y-5.95
X7.75Y-6.05
X7.75Y-6.15
X7.75Y-6.25
X7.75Y-6.35
X7.75Y-6.45
X7.75Y-6.55
X7.75Y-6.65
X7.75Y-6.75
X7.85Y-3.9
X7.85Y-4.0
X7.85Y-4.8
X7.85Y-4.9
X7.85Y-5.55
X7.85Y-5.65
X7.85Y-6.65
X7.85Y-6.75
X7.95Y-3.9
X7.95Y-4.0
X7.95Y-4.8
X7.95Y-4.9
X7.95Y-5.55
X7.95Y-5.65
X7.95Y-6.65
X7.95Y-6.75
X8.05Y-3.9
X8.05Y-4.0
X8.05Y-4.8
X8.05Y-4.9
X8.05Y-5.55
X8.05Y-5.65
X8.05Y-6.65
X8.05Y-6.75
X8.15Y-3.9
X8.15Y-4.0
X8.15Y-4.8
X8.15Y-4.9
X8.15Y-5.55
X8.15Y-5.65
X8.15Y-6.65
X8.15Y-6.75
X8.25Y-3.9
X8.25Y-4.0
X8.25Y-4.8
X8.25Y-4.9
X8.25Y-5.55
X8.25Y-5.65
X8.25Y-6.65
X8.25Y-6.75
X8.35Y-3.9
X8.35Y-4.0
X8.35Y-4.8
X8.35Y-4.9
X8.35Y-5.55
X8.35Y-5.65
X8.35Y-6.65
X8.35Y-6.75
X8.45Y-3.9
X8.45Y-4.0
X8.45Y-4.8
X8.45Y-4.9
X8.45Y-5.55
X8.45Y-5.65
X8.45Y-6.65
X8.45Y-6.75
X8.55Y-3.9
X8.55Y-4.0
X8.55Y-4.1
X8.55Y-4.2
X8.55Y-4.3
X8.55Y-4.4
X8.55Y-4.5
X8.55Y-4.6
X8.55Y-4.7
X8.55Y-4.8
X8.55Y-4.9
X8.55Y-5.55
X8.55Y-5.65
X8.55Y-6.65
X8.55Y-6.75
X8.65Y-4.0
X8.65Y-4.1
X8.65Y-4.2
X8.65Y-4.3
X8.65Y-4.4
X8.65Y-4.5
X8.65Y-4.6
X8.65Y-4.7
X8.65Y-4.8
X8.65Y-5.55
X8.65Y-5.65
X8.65Y-6.65
X8.65Y-6.75
X8.75Y-5.55
X8.75Y-5.65
X8.75Y-5.75
X8.75Y-5.85
X8.75Y-5.95
X8.75Y-6.05
X8.75Y-6.15
X8.75Y-6.25
X8.75Y-6.35
X8.75Y-6.45
X8.75Y-6.55
X8.75Y-6.65
X8.75Y-6.75
X8.85Y-5.65
X8.85Y-5.75
X8.85Y-5.85
X8.85Y-5.95
X8.85Y-6.05
X8.85Y-6.15
X8.85Y-6.25
X8.85Y-6.35
X8.85Y-6.45
X8.85Y-6.55
X8.85Y-6.65
X9.5Y-6.2
X9.5Y-6.3
X9.5Y-6.4
X9.5Y-6.5
X9.5Y-6.6
X9.5Y-6.7
X9.6Y-6.1
X9.6Y-6.2
X9.6Y-6.3
X9.6Y-6.4
X9.6Y-6.5
X9.6Y-6.6
X9.6Y-6.7
X9.6Y-6.8
X9.7Y-6.1
X9.7Y-6.2
X9.7Y-6.7
X9.7Y-6.8
X9.8Y-6.1
X9.8Y-6.2
X9.8Y-6.7
X9.8Y-6.8
X9.9Y-6.1
X9.9Y-6.2
X9.9Y-6.7
X9.9Y-6.8
X10.0Y-6.1
X10.0Y-6.2
X10.0Y-6.7
X10.0Y-6.8
X10.1Y-6.1
X10.1Y-6.2
X10.1Y-6.3
X10.1Y-6.4
X10.1Y-6.5
X10.1Y-6.6
X10.1Y-6.7
X10.1Y-6.8
X10.2Y-6.2
X10.2Y-6.3
X10.2Y-6.4
X10.2Y-6.5
X10.2Y-6.6
X10.2Y-6.7
T6
X9.3Y-5.75
X9.4Y-5.75
X9.5Y-5.75
X9.6Y-5.75
X9.7Y-5.75
T7
X9.8Y-5.75
T8
X11.0Y-6.25
X11.0545Y-6.3618
X11.1091Y-6.25
X11.1636Y-6.3618
X11.2181Y-6.25
X11.2726Y-6.3618
X11.3272Y-6.25
X11.3817Y-6.3618
X11.4362Y-6.25
T9
X11.472Y-4.6114
X11.472Y-4.7886
X11.728Y-4.6114
X11.728Y-4.7886
T10
X10.55Y-4.8
X10.6504Y-4.8
X10.7508Y-4.8
T11
X10.726Y-6.2618
X11.7102Y-6.2618
T5
G00X11.461Y-3.6886
M15
G01X11.461Y-3.7752
M16
G05
G00X11.6933Y-3.6217
M15
G01X11.6067Y-3.6217
M16
G05
G00X11.7012Y-3.85
M15
G01X11.5988Y-3.85
M16
G05
T0
M30
