%TF.GenerationSoftware,KiCad,Pcbnew,(5.1.12)-1*%
%TF.CreationDate,2022-04-22T18:12:23-05:00*%
%TF.ProjectId,Microcompuer,4d696372-6f63-46f6-9d70-7565722e6b69,rev?*%
%TF.SameCoordinates,Original*%
%TF.FileFunction,Soldermask,Top*%
%TF.FilePolarity,Negative*%
%FSLAX46Y46*%
G04 Gerber Fmt 4.6, Leading zero omitted, Abs format (unit mm)*
G04 Created by KiCad (PCBNEW (5.1.12)-1) date 2022-04-22 18:12:23*
%MOMM*%
%LPD*%
G01*
G04 APERTURE LIST*
%ADD10C,2.600000*%
%ADD11R,2.600000X2.600000*%
%ADD12O,1.600000X1.600000*%
%ADD13R,1.600000X1.600000*%
%ADD14C,1.295400*%
%ADD15R,1.295400X1.295400*%
%ADD16R,1.193800X2.489200*%
%ADD17C,1.650000*%
%ADD18R,1.650000X1.650000*%
%ADD19C,1.980000*%
%ADD20R,1.980000X1.980000*%
%ADD21R,0.914400X1.346200*%
%ADD22R,1.016000X1.193800*%
%ADD23C,1.422400*%
%ADD24R,1.524000X1.524000*%
%ADD25C,4.000000*%
%ADD26C,1.600000*%
%ADD27R,1.422400X1.422400*%
%ADD28C,1.270000*%
%ADD29R,1.270000X1.270000*%
%ADD30C,1.208000*%
%ADD31R,1.208000X1.208000*%
%ADD32R,0.900000X1.400000*%
%ADD33O,1.700000X1.700000*%
%ADD34R,1.700000X1.700000*%
%ADD35R,1.447800X1.117600*%
%ADD36R,1.117600X1.447800*%
G04 APERTURE END LIST*
D10*
%TO.C,PLUG1*%
X287910000Y-155400000D03*
X283210000Y-158400000D03*
D11*
X283210000Y-152400000D03*
%TD*%
D12*
%TO.C,UROM1*%
X232410000Y-85090000D03*
X217170000Y-118110000D03*
X232410000Y-87630000D03*
X217170000Y-115570000D03*
X232410000Y-90170000D03*
X217170000Y-113030000D03*
X232410000Y-92710000D03*
X217170000Y-110490000D03*
X232410000Y-95250000D03*
X217170000Y-107950000D03*
X232410000Y-97790000D03*
X217170000Y-105410000D03*
X232410000Y-100330000D03*
X217170000Y-102870000D03*
X232410000Y-102870000D03*
X217170000Y-100330000D03*
X232410000Y-105410000D03*
X217170000Y-97790000D03*
X232410000Y-107950000D03*
X217170000Y-95250000D03*
X232410000Y-110490000D03*
X217170000Y-92710000D03*
X232410000Y-113030000D03*
X217170000Y-90170000D03*
X232410000Y-115570000D03*
X217170000Y-87630000D03*
X232410000Y-118110000D03*
D13*
X217170000Y-85090000D03*
%TD*%
D12*
%TO.C,URAM1*%
X184150000Y-132080000D03*
X168910000Y-165100000D03*
X184150000Y-134620000D03*
X168910000Y-162560000D03*
X184150000Y-137160000D03*
X168910000Y-160020000D03*
X184150000Y-139700000D03*
X168910000Y-157480000D03*
X184150000Y-142240000D03*
X168910000Y-154940000D03*
X184150000Y-144780000D03*
X168910000Y-152400000D03*
X184150000Y-147320000D03*
X168910000Y-149860000D03*
X184150000Y-149860000D03*
X168910000Y-147320000D03*
X184150000Y-152400000D03*
X168910000Y-144780000D03*
X184150000Y-154940000D03*
X168910000Y-142240000D03*
X184150000Y-157480000D03*
X168910000Y-139700000D03*
X184150000Y-160020000D03*
X168910000Y-137160000D03*
X184150000Y-162560000D03*
X168910000Y-134620000D03*
X184150000Y-165100000D03*
D13*
X168910000Y-132080000D03*
%TD*%
D14*
%TO.C,U8*%
X262890000Y-132080000D03*
X265430000Y-132080000D03*
X267970000Y-132080000D03*
X270510000Y-132080000D03*
X273050000Y-132080000D03*
X275590000Y-132080000D03*
X278130000Y-132080000D03*
X278130000Y-139700000D03*
X275590000Y-139700000D03*
X273050000Y-139700000D03*
X270510000Y-139700000D03*
X267970000Y-139700000D03*
X265430000Y-139700000D03*
D15*
X262890000Y-139700000D03*
%TD*%
D16*
%TO.C,SW1*%
X300950000Y-156425900D03*
X298450000Y-156425900D03*
X295950000Y-156425900D03*
X295950000Y-150914100D03*
X298450000Y-150914100D03*
X300950000Y-150914100D03*
%TD*%
D17*
%TO.C,S1*%
X291540000Y-141260000D03*
D18*
X285040000Y-141260000D03*
D17*
X291540000Y-145760000D03*
X285040000Y-145760000D03*
%TD*%
D14*
%TO.C,RS1*%
X284480000Y-99060000D03*
X281940000Y-99060000D03*
X279400000Y-99060000D03*
X276860000Y-99060000D03*
X274320000Y-99060000D03*
X271780000Y-99060000D03*
X269240000Y-99060000D03*
X266700000Y-99060000D03*
X266700000Y-91440000D03*
X269240000Y-91440000D03*
X271780000Y-91440000D03*
X274320000Y-91440000D03*
X276860000Y-91440000D03*
X279400000Y-91440000D03*
X281940000Y-91440000D03*
D15*
X284480000Y-91440000D03*
%TD*%
D19*
%TO.C,REG1*%
X299720000Y-140990000D03*
X299720000Y-138440000D03*
D20*
X299720000Y-135890000D03*
%TD*%
D21*
%TO.C,R21*%
X209550500Y-109220000D03*
X207645500Y-109220000D03*
%TD*%
%TO.C,R20*%
X201295500Y-109220000D03*
X203200500Y-109220000D03*
%TD*%
D22*
%TO.C,R19*%
X203199900Y-91440000D03*
X201498100Y-91440000D03*
%TD*%
%TO.C,R18*%
X203199900Y-96520000D03*
X201498100Y-96520000D03*
%TD*%
D21*
%TO.C,R16*%
X209550500Y-105410000D03*
X207645500Y-105410000D03*
%TD*%
D22*
%TO.C,R15*%
X203199900Y-86360000D03*
X201498100Y-86360000D03*
%TD*%
%TO.C,R14*%
X203199900Y-88900000D03*
X201498100Y-88900000D03*
%TD*%
%TO.C,R13*%
X206590900Y-83820000D03*
X204889100Y-83820000D03*
%TD*%
%TO.C,R12*%
X209549900Y-93980000D03*
X207848100Y-93980000D03*
%TD*%
%TO.C,R11*%
X203199900Y-93980000D03*
X201498100Y-93980000D03*
%TD*%
%TO.C,R10*%
X203199900Y-99060000D03*
X201498100Y-99060000D03*
%TD*%
%TO.C,R9*%
X209549900Y-86360000D03*
X207848100Y-86360000D03*
%TD*%
%TO.C,R8*%
X209549900Y-91440000D03*
X207848100Y-91440000D03*
%TD*%
%TO.C,R7*%
X207848100Y-96520000D03*
X209549900Y-96520000D03*
%TD*%
%TO.C,R6*%
X207848100Y-88900000D03*
X209549900Y-88900000D03*
%TD*%
%TO.C,R5*%
X209549900Y-99060000D03*
X207848100Y-99060000D03*
%TD*%
D21*
%TO.C,R1*%
X203200500Y-105410000D03*
X201295500Y-105410000D03*
%TD*%
D12*
%TO.C,LROM1*%
X259080000Y-85090000D03*
X243840000Y-118110000D03*
X259080000Y-87630000D03*
X243840000Y-115570000D03*
X259080000Y-90170000D03*
X243840000Y-113030000D03*
X259080000Y-92710000D03*
X243840000Y-110490000D03*
X259080000Y-95250000D03*
X243840000Y-107950000D03*
X259080000Y-97790000D03*
X243840000Y-105410000D03*
X259080000Y-100330000D03*
X243840000Y-102870000D03*
X259080000Y-102870000D03*
X243840000Y-100330000D03*
X259080000Y-105410000D03*
X243840000Y-97790000D03*
X259080000Y-107950000D03*
X243840000Y-95250000D03*
X259080000Y-110490000D03*
X243840000Y-92710000D03*
X259080000Y-113030000D03*
X243840000Y-90170000D03*
X259080000Y-115570000D03*
X243840000Y-87630000D03*
X259080000Y-118110000D03*
D13*
X243840000Y-85090000D03*
%TD*%
D12*
%TO.C,LRAM1*%
X210820000Y-132080000D03*
X195580000Y-165100000D03*
X210820000Y-134620000D03*
X195580000Y-162560000D03*
X210820000Y-137160000D03*
X195580000Y-160020000D03*
X210820000Y-139700000D03*
X195580000Y-157480000D03*
X210820000Y-142240000D03*
X195580000Y-154940000D03*
X210820000Y-144780000D03*
X195580000Y-152400000D03*
X210820000Y-147320000D03*
X195580000Y-149860000D03*
X210820000Y-149860000D03*
X195580000Y-147320000D03*
X210820000Y-152400000D03*
X195580000Y-144780000D03*
X210820000Y-154940000D03*
X195580000Y-142240000D03*
X210820000Y-157480000D03*
X195580000Y-139700000D03*
X210820000Y-160020000D03*
X195580000Y-137160000D03*
X210820000Y-162560000D03*
X195580000Y-134620000D03*
X210820000Y-165100000D03*
D13*
X195580000Y-132080000D03*
%TD*%
D23*
%TO.C,JTAG1*%
X180340000Y-78740000D03*
X177800000Y-78740000D03*
X175260000Y-78740000D03*
X172720000Y-78740000D03*
X170180000Y-78740000D03*
D24*
X167640000Y-78740000D03*
%TD*%
D25*
%TO.C,J3*%
X268980000Y-84790000D03*
X293980000Y-84790000D03*
D26*
X277325000Y-82250000D03*
X280095000Y-82250000D03*
X282865000Y-82250000D03*
X285635000Y-82250000D03*
X275940000Y-85090000D03*
X278710000Y-85090000D03*
X281480000Y-85090000D03*
X284250000Y-85090000D03*
D13*
X287020000Y-85090000D03*
%TD*%
D23*
%TO.C,DUART1*%
X287020000Y-109220000D03*
X287020000Y-111760000D03*
X287020000Y-114300000D03*
X287020000Y-116840000D03*
X287020000Y-119380000D03*
X284480000Y-106680000D03*
X284480000Y-111760000D03*
X284480000Y-114300000D03*
X284480000Y-116840000D03*
X284480000Y-119380000D03*
X284480000Y-121920000D03*
X284480000Y-124460000D03*
X281940000Y-124460000D03*
X279400000Y-124460000D03*
X276860000Y-124460000D03*
X274320000Y-124460000D03*
X271780000Y-124460000D03*
X287020000Y-121920000D03*
X281940000Y-121920000D03*
X279400000Y-121920000D03*
X276860000Y-121920000D03*
X274320000Y-121920000D03*
X271780000Y-121920000D03*
X269240000Y-121920000D03*
X269240000Y-119380000D03*
X269240000Y-116840000D03*
X269240000Y-114300000D03*
X269240000Y-111760000D03*
X269240000Y-109220000D03*
X271780000Y-119380000D03*
X271780000Y-116840000D03*
X271780000Y-114300000D03*
X271780000Y-111760000D03*
X271780000Y-109220000D03*
X281940000Y-106680000D03*
X279400000Y-106680000D03*
X271780000Y-106680000D03*
X274320000Y-106680000D03*
X276860000Y-106680000D03*
X284480000Y-109220000D03*
X281940000Y-109220000D03*
X274320000Y-109220000D03*
X276860000Y-109220000D03*
D27*
X279400000Y-109220000D03*
%TD*%
D28*
%TO.C,DS1813*%
X262890000Y-147320000D03*
X261620000Y-146050000D03*
D29*
X260350000Y-147320000D03*
%TD*%
D30*
%TO.C,D_CLK1*%
X303530000Y-114300000D03*
X303530000Y-121920000D03*
D31*
X295910000Y-121920000D03*
D30*
X295910000Y-114300000D03*
%TD*%
D32*
%TO.C,D17*%
X275590000Y-144780000D03*
X273690000Y-144780000D03*
%TD*%
%TO.C,D16*%
X275590000Y-148590000D03*
X273690000Y-148590000D03*
%TD*%
%TO.C,D14*%
X216220000Y-157480000D03*
X218120000Y-157480000D03*
%TD*%
%TO.C,D13*%
X216220000Y-162560000D03*
X218120000Y-162560000D03*
%TD*%
%TO.C,D12*%
X216220000Y-167640000D03*
X218120000Y-167640000D03*
%TD*%
%TO.C,D11*%
X162240000Y-153670000D03*
X160340000Y-153670000D03*
%TD*%
%TO.C,D10*%
X162240000Y-148590000D03*
X160340000Y-148590000D03*
%TD*%
%TO.C,D9*%
X162240000Y-163830000D03*
X160340000Y-163830000D03*
%TD*%
%TO.C,D8*%
X162240000Y-138430000D03*
X160340000Y-138430000D03*
%TD*%
%TO.C,D7*%
X162240000Y-133350000D03*
X160340000Y-133350000D03*
%TD*%
%TO.C,D6*%
X162240000Y-143510000D03*
X160340000Y-143510000D03*
%TD*%
%TO.C,D5*%
X162240000Y-128270000D03*
X160340000Y-128270000D03*
%TD*%
%TO.C,D4*%
X162240000Y-158750000D03*
X160340000Y-158750000D03*
%TD*%
D30*
%TO.C,CPU_CLK1*%
X269240000Y-156210000D03*
X269240000Y-163830000D03*
D31*
X261620000Y-163830000D03*
D30*
X261620000Y-156210000D03*
%TD*%
D23*
%TO.C,CPU1*%
X251460000Y-140970000D03*
X251460000Y-143510000D03*
X251460000Y-146050000D03*
X251460000Y-148590000D03*
X251460000Y-151130000D03*
X251460000Y-153670000D03*
X251460000Y-156210000D03*
X251460000Y-158750000D03*
X248920000Y-138430000D03*
X248920000Y-143510000D03*
X248920000Y-146050000D03*
X248920000Y-148590000D03*
X248920000Y-151130000D03*
X248920000Y-153670000D03*
X248920000Y-156210000D03*
X248920000Y-158750000D03*
X248920000Y-161290000D03*
X248920000Y-163830000D03*
X246380000Y-163830000D03*
X243840000Y-163830000D03*
X241300000Y-163830000D03*
X238760000Y-163830000D03*
X236220000Y-163830000D03*
X233680000Y-163830000D03*
X231140000Y-163830000D03*
X228600000Y-163830000D03*
X251460000Y-161290000D03*
X246380000Y-161290000D03*
X243840000Y-161290000D03*
X241300000Y-161290000D03*
X238760000Y-161290000D03*
X236220000Y-161290000D03*
X233680000Y-161290000D03*
X231140000Y-161290000D03*
X228600000Y-161290000D03*
X226060000Y-161290000D03*
X226060000Y-158750000D03*
X226060000Y-156210000D03*
X226060000Y-153670000D03*
X226060000Y-151130000D03*
X226060000Y-148590000D03*
X226060000Y-146050000D03*
X226060000Y-143510000D03*
X226060000Y-140970000D03*
X228600000Y-158750000D03*
X228600000Y-156210000D03*
X228600000Y-153670000D03*
X228600000Y-151130000D03*
X228600000Y-148590000D03*
X228600000Y-146050000D03*
X228600000Y-143510000D03*
X228600000Y-140970000D03*
X246380000Y-138430000D03*
X243840000Y-138430000D03*
X241300000Y-138430000D03*
X228600000Y-138430000D03*
X231140000Y-138430000D03*
X233680000Y-138430000D03*
X236220000Y-138430000D03*
D27*
X238760000Y-138430000D03*
D23*
X248920000Y-140970000D03*
X246380000Y-140970000D03*
X243840000Y-140970000D03*
X241300000Y-140970000D03*
X231140000Y-140970000D03*
X233680000Y-140970000D03*
X236220000Y-140970000D03*
X238760000Y-140970000D03*
%TD*%
%TO.C,CPLD1*%
X191770000Y-92710000D03*
X191770000Y-95250000D03*
X191770000Y-97790000D03*
X191770000Y-100330000D03*
X191770000Y-102870000D03*
X191770000Y-105410000D03*
X191770000Y-107950000D03*
X191770000Y-110490000D03*
X191770000Y-113030000D03*
X191770000Y-115570000D03*
X189230000Y-92710000D03*
X189230000Y-95250000D03*
X189230000Y-97790000D03*
X189230000Y-100330000D03*
X189230000Y-102870000D03*
X189230000Y-105410000D03*
X189230000Y-107950000D03*
X189230000Y-110490000D03*
X189230000Y-113030000D03*
X189230000Y-115570000D03*
X189230000Y-118110000D03*
X186690000Y-118110000D03*
X184150000Y-118110000D03*
X181610000Y-118110000D03*
X179070000Y-118110000D03*
X176530000Y-118110000D03*
X173990000Y-118110000D03*
X171450000Y-118110000D03*
X168910000Y-118110000D03*
X166370000Y-118110000D03*
X163830000Y-118110000D03*
X186690000Y-115570000D03*
X184150000Y-115570000D03*
X181610000Y-115570000D03*
X179070000Y-115570000D03*
X176530000Y-115570000D03*
X173990000Y-115570000D03*
X171450000Y-115570000D03*
X168910000Y-115570000D03*
X166370000Y-115570000D03*
X163830000Y-115570000D03*
X161290000Y-115570000D03*
X161290000Y-113030000D03*
X161290000Y-110490000D03*
X161290000Y-107950000D03*
X161290000Y-105410000D03*
X161290000Y-102870000D03*
X161290000Y-100330000D03*
X161290000Y-97790000D03*
X161290000Y-95250000D03*
X161290000Y-92710000D03*
X161290000Y-90170000D03*
X163830000Y-113030000D03*
X163830000Y-110490000D03*
X163830000Y-107950000D03*
X163830000Y-105410000D03*
X163830000Y-102870000D03*
X163830000Y-100330000D03*
X163830000Y-97790000D03*
X163830000Y-95250000D03*
X163830000Y-92710000D03*
X163830000Y-90170000D03*
X189230000Y-87630000D03*
X186690000Y-87630000D03*
X184150000Y-87630000D03*
X181610000Y-87630000D03*
X179070000Y-87630000D03*
X163830000Y-87630000D03*
X166370000Y-87630000D03*
X168910000Y-87630000D03*
X171450000Y-87630000D03*
X173990000Y-87630000D03*
D27*
X176530000Y-87630000D03*
D23*
X191770000Y-90170000D03*
X189230000Y-90170000D03*
X186690000Y-90170000D03*
X184150000Y-90170000D03*
X181610000Y-90170000D03*
X179070000Y-90170000D03*
X166370000Y-90170000D03*
X168910000Y-90170000D03*
X171450000Y-90170000D03*
X173990000Y-90170000D03*
X176530000Y-90170000D03*
%TD*%
D33*
%TO.C,Con1*%
X190500000Y-78740000D03*
X193040000Y-78740000D03*
X195580000Y-78740000D03*
X198120000Y-78740000D03*
X200660000Y-78740000D03*
X203200000Y-78740000D03*
X205740000Y-78740000D03*
X208280000Y-78740000D03*
X210820000Y-78740000D03*
D34*
X213360000Y-78740000D03*
%TD*%
D35*
%TO.C,C21*%
X223520000Y-123936200D03*
X223520000Y-125729800D03*
%TD*%
%TO.C,C20*%
X204470000Y-123936200D03*
X204470000Y-125729800D03*
%TD*%
%TO.C,C19*%
X227330000Y-123936200D03*
X227330000Y-125729800D03*
%TD*%
%TO.C,C18*%
X212090000Y-123936200D03*
X212090000Y-125729800D03*
%TD*%
%TO.C,C17*%
X231140000Y-123936200D03*
X231140000Y-125729800D03*
%TD*%
%TO.C,C16*%
X250190000Y-123936200D03*
X250190000Y-125729800D03*
%TD*%
%TO.C,C15*%
X285750000Y-132080200D03*
X285750000Y-133873800D03*
%TD*%
%TO.C,C14*%
X215900000Y-123936200D03*
X215900000Y-125729800D03*
%TD*%
%TO.C,C13*%
X293370000Y-133873800D03*
X293370000Y-132080200D03*
%TD*%
%TO.C,C12*%
X242570000Y-123936200D03*
X242570000Y-125729800D03*
%TD*%
%TO.C,C11*%
X219710000Y-123936200D03*
X219710000Y-125729800D03*
%TD*%
%TO.C,C10*%
X238760000Y-123936200D03*
X238760000Y-125729800D03*
%TD*%
%TO.C,C9*%
X234950000Y-123936200D03*
X234950000Y-125729800D03*
%TD*%
%TO.C,C8*%
X289560000Y-132080200D03*
X289560000Y-133873800D03*
%TD*%
%TO.C,C7*%
X208280000Y-123936200D03*
X208280000Y-125729800D03*
%TD*%
%TO.C,C6*%
X254000000Y-123936200D03*
X254000000Y-125729800D03*
%TD*%
%TO.C,C5*%
X246380000Y-123936200D03*
X246380000Y-125729800D03*
%TD*%
D36*
%TO.C,C4*%
X295909800Y-96520000D03*
X294116200Y-96520000D03*
%TD*%
%TO.C,C3*%
X295909800Y-100330000D03*
X294116200Y-100330000D03*
%TD*%
%TO.C,C2*%
X295909800Y-92710000D03*
X294116200Y-92710000D03*
%TD*%
%TO.C,C1*%
X295909800Y-104140000D03*
X294116200Y-104140000D03*
%TD*%
M02*
