%TF.GenerationSoftware,KiCad,Pcbnew,(5.1.12)-1*%
%TF.CreationDate,2022-04-22T18:12:23-05:00*%
%TF.ProjectId,Microcompuer,4d696372-6f63-46f6-9d70-7565722e6b69,rev?*%
%TF.SameCoordinates,Original*%
%TF.FileFunction,Legend,Top*%
%TF.FilePolarity,Positive*%
%FSLAX46Y46*%
G04 Gerber Fmt 4.6, Leading zero omitted, Abs format (unit mm)*
G04 Created by KiCad (PCBNEW (5.1.12)-1) date 2022-04-22 18:12:23*
%MOMM*%
%LPD*%
G01*
G04 APERTURE LIST*
%ADD10C,0.150000*%
%ADD11C,0.120000*%
%ADD12C,0.127000*%
%ADD13C,0.200000*%
%ADD14C,0.152400*%
%ADD15C,0.300000*%
%ADD16C,0.254000*%
%ADD17C,0.078740*%
G04 APERTURE END LIST*
D10*
X227299523Y-78367380D02*
X227299523Y-77367380D01*
X227537619Y-77367380D01*
X227680476Y-77415000D01*
X227775714Y-77510238D01*
X227823333Y-77605476D01*
X227870952Y-77795952D01*
X227870952Y-77938809D01*
X227823333Y-78129285D01*
X227775714Y-78224523D01*
X227680476Y-78319761D01*
X227537619Y-78367380D01*
X227299523Y-78367380D01*
X228680476Y-78319761D02*
X228585238Y-78367380D01*
X228394761Y-78367380D01*
X228299523Y-78319761D01*
X228251904Y-78224523D01*
X228251904Y-77843571D01*
X228299523Y-77748333D01*
X228394761Y-77700714D01*
X228585238Y-77700714D01*
X228680476Y-77748333D01*
X228728095Y-77843571D01*
X228728095Y-77938809D01*
X228251904Y-78034047D01*
X229061428Y-77700714D02*
X229299523Y-78367380D01*
X229537619Y-77700714D01*
X230299523Y-78319761D02*
X230204285Y-78367380D01*
X230013809Y-78367380D01*
X229918571Y-78319761D01*
X229870952Y-78224523D01*
X229870952Y-77843571D01*
X229918571Y-77748333D01*
X230013809Y-77700714D01*
X230204285Y-77700714D01*
X230299523Y-77748333D01*
X230347142Y-77843571D01*
X230347142Y-77938809D01*
X229870952Y-78034047D01*
X230918571Y-78367380D02*
X230823333Y-78319761D01*
X230775714Y-78224523D01*
X230775714Y-77367380D01*
X231442380Y-78367380D02*
X231347142Y-78319761D01*
X231299523Y-78272142D01*
X231251904Y-78176904D01*
X231251904Y-77891190D01*
X231299523Y-77795952D01*
X231347142Y-77748333D01*
X231442380Y-77700714D01*
X231585238Y-77700714D01*
X231680476Y-77748333D01*
X231728095Y-77795952D01*
X231775714Y-77891190D01*
X231775714Y-78176904D01*
X231728095Y-78272142D01*
X231680476Y-78319761D01*
X231585238Y-78367380D01*
X231442380Y-78367380D01*
X232204285Y-77700714D02*
X232204285Y-78700714D01*
X232204285Y-77748333D02*
X232299523Y-77700714D01*
X232490000Y-77700714D01*
X232585238Y-77748333D01*
X232632857Y-77795952D01*
X232680476Y-77891190D01*
X232680476Y-78176904D01*
X232632857Y-78272142D01*
X232585238Y-78319761D01*
X232490000Y-78367380D01*
X232299523Y-78367380D01*
X232204285Y-78319761D01*
X233490000Y-78319761D02*
X233394761Y-78367380D01*
X233204285Y-78367380D01*
X233109047Y-78319761D01*
X233061428Y-78224523D01*
X233061428Y-77843571D01*
X233109047Y-77748333D01*
X233204285Y-77700714D01*
X233394761Y-77700714D01*
X233490000Y-77748333D01*
X233537619Y-77843571D01*
X233537619Y-77938809D01*
X233061428Y-78034047D01*
X233966190Y-78367380D02*
X233966190Y-77700714D01*
X233966190Y-77891190D02*
X234013809Y-77795952D01*
X234061428Y-77748333D01*
X234156666Y-77700714D01*
X234251904Y-77700714D01*
X234585238Y-78272142D02*
X234632857Y-78319761D01*
X234585238Y-78367380D01*
X234537619Y-78319761D01*
X234585238Y-78272142D01*
X234585238Y-78367380D01*
X234585238Y-77748333D02*
X234632857Y-77795952D01*
X234585238Y-77843571D01*
X234537619Y-77795952D01*
X234585238Y-77748333D01*
X234585238Y-77843571D01*
X235823333Y-78367380D02*
X235823333Y-77367380D01*
X236061428Y-77367380D01*
X236204285Y-77415000D01*
X236299523Y-77510238D01*
X236347142Y-77605476D01*
X236394761Y-77795952D01*
X236394761Y-77938809D01*
X236347142Y-78129285D01*
X236299523Y-78224523D01*
X236204285Y-78319761D01*
X236061428Y-78367380D01*
X235823333Y-78367380D01*
X237251904Y-77700714D02*
X237251904Y-78367380D01*
X236823333Y-77700714D02*
X236823333Y-78224523D01*
X236870952Y-78319761D01*
X236966190Y-78367380D01*
X237109047Y-78367380D01*
X237204285Y-78319761D01*
X237251904Y-78272142D01*
X238156666Y-78319761D02*
X238061428Y-78367380D01*
X237870952Y-78367380D01*
X237775714Y-78319761D01*
X237728095Y-78272142D01*
X237680476Y-78176904D01*
X237680476Y-77891190D01*
X237728095Y-77795952D01*
X237775714Y-77748333D01*
X237870952Y-77700714D01*
X238061428Y-77700714D01*
X238156666Y-77748333D01*
X239299523Y-78081666D02*
X239775714Y-78081666D01*
X239204285Y-78367380D02*
X239537619Y-77367380D01*
X239870952Y-78367380D01*
X240204285Y-77700714D02*
X240204285Y-78367380D01*
X240204285Y-77795952D02*
X240251904Y-77748333D01*
X240347142Y-77700714D01*
X240490000Y-77700714D01*
X240585238Y-77748333D01*
X240632857Y-77843571D01*
X240632857Y-78367380D01*
X241109047Y-78367380D02*
X241109047Y-77367380D01*
X241537619Y-78367380D02*
X241537619Y-77843571D01*
X241490000Y-77748333D01*
X241394761Y-77700714D01*
X241251904Y-77700714D01*
X241156666Y-77748333D01*
X241109047Y-77795952D01*
X242775714Y-78367380D02*
X242775714Y-77367380D01*
X243347142Y-78367380D01*
X243347142Y-77367380D01*
X244251904Y-77700714D02*
X244251904Y-78510238D01*
X244204285Y-78605476D01*
X244156666Y-78653095D01*
X244061428Y-78700714D01*
X243918571Y-78700714D01*
X243823333Y-78653095D01*
X244251904Y-78319761D02*
X244156666Y-78367380D01*
X243966190Y-78367380D01*
X243870952Y-78319761D01*
X243823333Y-78272142D01*
X243775714Y-78176904D01*
X243775714Y-77891190D01*
X243823333Y-77795952D01*
X243870952Y-77748333D01*
X243966190Y-77700714D01*
X244156666Y-77700714D01*
X244251904Y-77748333D01*
X245156666Y-77700714D02*
X245156666Y-78367380D01*
X244728095Y-77700714D02*
X244728095Y-78224523D01*
X244775714Y-78319761D01*
X244870952Y-78367380D01*
X245013809Y-78367380D01*
X245109047Y-78319761D01*
X245156666Y-78272142D01*
X245537619Y-77700714D02*
X245775714Y-78367380D01*
X246013809Y-77700714D02*
X245775714Y-78367380D01*
X245680476Y-78605476D01*
X245632857Y-78653095D01*
X245537619Y-78700714D01*
X246775714Y-78319761D02*
X246680476Y-78367380D01*
X246490000Y-78367380D01*
X246394761Y-78319761D01*
X246347142Y-78224523D01*
X246347142Y-77843571D01*
X246394761Y-77748333D01*
X246490000Y-77700714D01*
X246680476Y-77700714D01*
X246775714Y-77748333D01*
X246823333Y-77843571D01*
X246823333Y-77938809D01*
X246347142Y-78034047D01*
X247251904Y-77700714D02*
X247251904Y-78367380D01*
X247251904Y-77795952D02*
X247299523Y-77748333D01*
X247394761Y-77700714D01*
X247537619Y-77700714D01*
X247632857Y-77748333D01*
X247680476Y-77843571D01*
X247680476Y-78367380D01*
X230870952Y-80017380D02*
X230870952Y-79017380D01*
X231109047Y-79017380D01*
X231251904Y-79065000D01*
X231347142Y-79160238D01*
X231394761Y-79255476D01*
X231442380Y-79445952D01*
X231442380Y-79588809D01*
X231394761Y-79779285D01*
X231347142Y-79874523D01*
X231251904Y-79969761D01*
X231109047Y-80017380D01*
X230870952Y-80017380D01*
X232299523Y-80017380D02*
X232299523Y-79493571D01*
X232251904Y-79398333D01*
X232156666Y-79350714D01*
X231966190Y-79350714D01*
X231870952Y-79398333D01*
X232299523Y-79969761D02*
X232204285Y-80017380D01*
X231966190Y-80017380D01*
X231870952Y-79969761D01*
X231823333Y-79874523D01*
X231823333Y-79779285D01*
X231870952Y-79684047D01*
X231966190Y-79636428D01*
X232204285Y-79636428D01*
X232299523Y-79588809D01*
X232632857Y-79350714D02*
X233013809Y-79350714D01*
X232775714Y-79017380D02*
X232775714Y-79874523D01*
X232823333Y-79969761D01*
X232918571Y-80017380D01*
X233013809Y-80017380D01*
X233728095Y-79969761D02*
X233632857Y-80017380D01*
X233442380Y-80017380D01*
X233347142Y-79969761D01*
X233299523Y-79874523D01*
X233299523Y-79493571D01*
X233347142Y-79398333D01*
X233442380Y-79350714D01*
X233632857Y-79350714D01*
X233728095Y-79398333D01*
X233775714Y-79493571D01*
X233775714Y-79588809D01*
X233299523Y-79684047D01*
X234204285Y-79922142D02*
X234251904Y-79969761D01*
X234204285Y-80017380D01*
X234156666Y-79969761D01*
X234204285Y-79922142D01*
X234204285Y-80017380D01*
X234204285Y-79398333D02*
X234251904Y-79445952D01*
X234204285Y-79493571D01*
X234156666Y-79445952D01*
X234204285Y-79398333D01*
X234204285Y-79493571D01*
X235870952Y-79350714D02*
X235870952Y-80017380D01*
X235632857Y-78969761D02*
X235394761Y-79684047D01*
X236013809Y-79684047D01*
X236394761Y-79922142D02*
X236442380Y-79969761D01*
X236394761Y-80017380D01*
X236347142Y-79969761D01*
X236394761Y-79922142D01*
X236394761Y-80017380D01*
X237585238Y-79112619D02*
X237632857Y-79065000D01*
X237728095Y-79017380D01*
X237966190Y-79017380D01*
X238061428Y-79065000D01*
X238109047Y-79112619D01*
X238156666Y-79207857D01*
X238156666Y-79303095D01*
X238109047Y-79445952D01*
X237537619Y-80017380D01*
X238156666Y-80017380D01*
X238537619Y-79112619D02*
X238585238Y-79065000D01*
X238680476Y-79017380D01*
X238918571Y-79017380D01*
X239013809Y-79065000D01*
X239061428Y-79112619D01*
X239109047Y-79207857D01*
X239109047Y-79303095D01*
X239061428Y-79445952D01*
X238490000Y-80017380D01*
X239109047Y-80017380D01*
X239537619Y-79922142D02*
X239585238Y-79969761D01*
X239537619Y-80017380D01*
X239490000Y-79969761D01*
X239537619Y-79922142D01*
X239537619Y-80017380D01*
X240728095Y-79112619D02*
X240775714Y-79065000D01*
X240870952Y-79017380D01*
X241109047Y-79017380D01*
X241204285Y-79065000D01*
X241251904Y-79112619D01*
X241299523Y-79207857D01*
X241299523Y-79303095D01*
X241251904Y-79445952D01*
X240680476Y-80017380D01*
X241299523Y-80017380D01*
X241918571Y-79017380D02*
X242013809Y-79017380D01*
X242109047Y-79065000D01*
X242156666Y-79112619D01*
X242204285Y-79207857D01*
X242251904Y-79398333D01*
X242251904Y-79636428D01*
X242204285Y-79826904D01*
X242156666Y-79922142D01*
X242109047Y-79969761D01*
X242013809Y-80017380D01*
X241918571Y-80017380D01*
X241823333Y-79969761D01*
X241775714Y-79922142D01*
X241728095Y-79826904D01*
X241680476Y-79636428D01*
X241680476Y-79398333D01*
X241728095Y-79207857D01*
X241775714Y-79112619D01*
X241823333Y-79065000D01*
X241918571Y-79017380D01*
X242632857Y-79112619D02*
X242680476Y-79065000D01*
X242775714Y-79017380D01*
X243013809Y-79017380D01*
X243109047Y-79065000D01*
X243156666Y-79112619D01*
X243204285Y-79207857D01*
X243204285Y-79303095D01*
X243156666Y-79445952D01*
X242585238Y-80017380D01*
X243204285Y-80017380D01*
X243585238Y-79112619D02*
X243632857Y-79065000D01*
X243728095Y-79017380D01*
X243966190Y-79017380D01*
X244061428Y-79065000D01*
X244109047Y-79112619D01*
X244156666Y-79207857D01*
X244156666Y-79303095D01*
X244109047Y-79445952D01*
X243537619Y-80017380D01*
X244156666Y-80017380D01*
D11*
%TO.C,PLUG1*%
X278370000Y-151360000D02*
X280110000Y-151360000D01*
X278370000Y-153100000D02*
X278370000Y-151360000D01*
X287810000Y-151600000D02*
X287810000Y-153600000D01*
X285010000Y-151600000D02*
X287810000Y-151600000D01*
X278610000Y-151600000D02*
X281410000Y-151600000D01*
X278610000Y-166200000D02*
X278610000Y-151600000D01*
X287810000Y-166200000D02*
X278610000Y-166200000D01*
X287810000Y-157200000D02*
X287810000Y-166200000D01*
%TO.C,UROM1*%
X233740000Y-83700000D02*
X215840000Y-83700000D01*
X233740000Y-119500000D02*
X233740000Y-83700000D01*
X215840000Y-119500000D02*
X233740000Y-119500000D01*
X215840000Y-83700000D02*
X215840000Y-119500000D01*
X231250000Y-83760000D02*
X225790000Y-83760000D01*
X231250000Y-119440000D02*
X231250000Y-83760000D01*
X218330000Y-119440000D02*
X231250000Y-119440000D01*
X218330000Y-83760000D02*
X218330000Y-119440000D01*
X223790000Y-83760000D02*
X218330000Y-83760000D01*
X225790000Y-83760000D02*
G75*
G02*
X223790000Y-83760000I-1000000J0D01*
G01*
%TO.C,URAM1*%
X185480000Y-130690000D02*
X167580000Y-130690000D01*
X185480000Y-166490000D02*
X185480000Y-130690000D01*
X167580000Y-166490000D02*
X185480000Y-166490000D01*
X167580000Y-130690000D02*
X167580000Y-166490000D01*
X182990000Y-130750000D02*
X177530000Y-130750000D01*
X182990000Y-166430000D02*
X182990000Y-130750000D01*
X170070000Y-166430000D02*
X182990000Y-166430000D01*
X170070000Y-130750000D02*
X170070000Y-166430000D01*
X175530000Y-130750000D02*
X170070000Y-130750000D01*
X177530000Y-130750000D02*
G75*
G02*
X175530000Y-130750000I-1000000J0D01*
G01*
%TO.C,U8*%
X262051431Y-132588000D02*
X260667500Y-132588000D01*
X264591431Y-132588000D02*
X263728569Y-132588000D01*
X267131431Y-132588000D02*
X266268569Y-132588000D01*
X269671431Y-132588000D02*
X268808569Y-132588000D01*
X272211431Y-132588000D02*
X271348569Y-132588000D01*
X274751431Y-132588000D02*
X273888569Y-132588000D01*
X277291431Y-132588000D02*
X276428569Y-132588000D01*
X278968569Y-139192000D02*
X280352500Y-139192000D01*
X276428569Y-139192000D02*
X277291431Y-139192000D01*
X273888569Y-139192000D02*
X274751431Y-139192000D01*
X271348569Y-139192000D02*
X272211431Y-139192000D01*
X268808569Y-139192000D02*
X269671431Y-139192000D01*
X266268569Y-139192000D02*
X267131431Y-139192000D01*
X263870440Y-139192000D02*
X264591431Y-139192000D01*
X260667500Y-139192000D02*
X261909560Y-139192000D01*
X260667500Y-132588000D02*
X260667500Y-139192000D01*
X280352500Y-132588000D02*
X278968569Y-132588000D01*
X280352500Y-139192000D02*
X280352500Y-132588000D01*
X260667500Y-135585200D02*
G75*
G02*
X260667500Y-136194800I0J-304800D01*
G01*
%TO.C,SW1*%
X301879640Y-155295600D02*
X303072800Y-155295600D01*
X299379640Y-155295600D02*
X300020360Y-155295600D01*
X296879640Y-155295600D02*
X297520360Y-155295600D01*
X295020360Y-152044400D02*
X293827200Y-152044400D01*
X297520360Y-152044400D02*
X296879640Y-152044400D01*
X300020360Y-152044400D02*
X299379640Y-152044400D01*
X303072800Y-152044400D02*
X301879640Y-152044400D01*
X303072800Y-155295600D02*
X303072800Y-152044400D01*
X293827200Y-155295600D02*
X295020360Y-155295600D01*
X293827200Y-152044400D02*
X293827200Y-155295600D01*
D12*
%TO.C,S1*%
X285290000Y-144615000D02*
X285290000Y-142405000D01*
X290395000Y-146510000D02*
X286185000Y-146510000D01*
X291290000Y-142405000D02*
X291290000Y-144615000D01*
X286185000Y-140510000D02*
X290395000Y-140510000D01*
D13*
X283690000Y-141260000D02*
G75*
G03*
X283690000Y-141260000I-100000J0D01*
G01*
D11*
%TO.C,RS1*%
X282778569Y-98552000D02*
X283641431Y-98552000D01*
X280238569Y-98552000D02*
X281101431Y-98552000D01*
X277698569Y-98552000D02*
X278561431Y-98552000D01*
X275158569Y-98552000D02*
X276021431Y-98552000D01*
X272618569Y-98552000D02*
X273481431Y-98552000D01*
X270078569Y-98552000D02*
X270941431Y-98552000D01*
X268401431Y-91948000D02*
X267538569Y-91948000D01*
X270941431Y-91948000D02*
X270078569Y-91948000D01*
X273481431Y-91948000D02*
X272618569Y-91948000D01*
X276021431Y-91948000D02*
X275158569Y-91948000D01*
X278561431Y-91948000D02*
X277698569Y-91948000D01*
X281101431Y-91948000D02*
X280238569Y-91948000D01*
X283499560Y-91948000D02*
X282778569Y-91948000D01*
X285432500Y-98552000D02*
X285432500Y-92221165D01*
X267538569Y-98552000D02*
X268401431Y-98552000D01*
X265747500Y-91948000D02*
X265747500Y-98552000D01*
X285432500Y-95554800D02*
G75*
G02*
X285432500Y-94945200I0J304800D01*
G01*
D13*
%TO.C,REG1*%
X302790000Y-133240000D02*
X299720000Y-133240000D01*
X302790000Y-143640000D02*
X302790000Y-133240000D01*
X298190000Y-143640000D02*
X302790000Y-143640000D01*
D11*
%TO.C,R21*%
X208785750Y-108419900D02*
X208410250Y-108419900D01*
X208410250Y-110020100D02*
X208785750Y-110020100D01*
%TO.C,R20*%
X202060250Y-110020100D02*
X202435750Y-110020100D01*
X202435750Y-108419900D02*
X202060250Y-108419900D01*
%TO.C,R16*%
X208785750Y-104609900D02*
X208410250Y-104609900D01*
X208410250Y-106210100D02*
X208785750Y-106210100D01*
%TO.C,R1*%
X202435750Y-104609900D02*
X202060250Y-104609900D01*
X202060250Y-106210100D02*
X202435750Y-106210100D01*
%TO.C,LROM1*%
X260410000Y-83700000D02*
X242510000Y-83700000D01*
X260410000Y-119500000D02*
X260410000Y-83700000D01*
X242510000Y-119500000D02*
X260410000Y-119500000D01*
X242510000Y-83700000D02*
X242510000Y-119500000D01*
X257920000Y-83760000D02*
X252460000Y-83760000D01*
X257920000Y-119440000D02*
X257920000Y-83760000D01*
X245000000Y-119440000D02*
X257920000Y-119440000D01*
X245000000Y-83760000D02*
X245000000Y-119440000D01*
X250460000Y-83760000D02*
X245000000Y-83760000D01*
X252460000Y-83760000D02*
G75*
G02*
X250460000Y-83760000I-1000000J0D01*
G01*
%TO.C,LRAM1*%
X212150000Y-130690000D02*
X194250000Y-130690000D01*
X212150000Y-166490000D02*
X212150000Y-130690000D01*
X194250000Y-166490000D02*
X212150000Y-166490000D01*
X194250000Y-130690000D02*
X194250000Y-166490000D01*
X209660000Y-130750000D02*
X204200000Y-130750000D01*
X209660000Y-166430000D02*
X209660000Y-130750000D01*
X196740000Y-166430000D02*
X209660000Y-166430000D01*
X196740000Y-130750000D02*
X196740000Y-166430000D01*
X202200000Y-130750000D02*
X196740000Y-130750000D01*
X204200000Y-130750000D02*
G75*
G02*
X202200000Y-130750000I-1000000J0D01*
G01*
%TO.C,JTAG1*%
X167894000Y-76733400D02*
G75*
G03*
X167894000Y-76733400I-254000J0D01*
G01*
X181737000Y-80111600D02*
X181737000Y-77368400D01*
X166243000Y-80111600D02*
X181737000Y-80111600D01*
X166243000Y-77368400D02*
X166243000Y-80111600D01*
X181737000Y-77368400D02*
X166243000Y-77368400D01*
%TO.C,J3*%
X287020000Y-88311325D02*
X287270000Y-88744338D01*
X286770000Y-88744338D02*
X287020000Y-88311325D01*
X287270000Y-88744338D02*
X286770000Y-88744338D01*
X265995000Y-87850000D02*
X265995000Y-77370000D01*
X296965000Y-87850000D02*
X265995000Y-87850000D01*
X296965000Y-77370000D02*
X296965000Y-87850000D01*
%TO.C,DUART1*%
X289980000Y-103720000D02*
X279130000Y-103720000D01*
X289980000Y-127420000D02*
X289980000Y-103720000D01*
X266280000Y-127420000D02*
X289980000Y-127420000D01*
X266280000Y-104720000D02*
X266280000Y-127420000D01*
X267280000Y-103720000D02*
X266280000Y-104720000D01*
X277130000Y-103720000D02*
X267280000Y-103720000D01*
D14*
%TO.C,DS1813*%
X261086600Y-148285200D02*
X262712200Y-148285200D01*
X264210800Y-146685000D02*
G75*
G02*
X263728200Y-148209000I-2586495J-19355D01*
G01*
X257098800Y-147320000D02*
G75*
G02*
X257352800Y-147320000I127000J0D01*
G01*
X257352800Y-147320000D02*
G75*
G02*
X257098800Y-147320000I-127000J0D01*
G01*
X259384800Y-148031200D02*
G75*
G02*
X264210800Y-146685000I2226333J1342284D01*
G01*
D12*
%TO.C,D_CLK1*%
X293120000Y-124710000D02*
X293120000Y-121410000D01*
X296420000Y-124710000D02*
X293120000Y-124710000D01*
X306320000Y-123440000D02*
X306320000Y-121410000D01*
X303020000Y-124710000D02*
X305050000Y-124710000D01*
X306320000Y-112780000D02*
X306320000Y-114810000D01*
X303020000Y-111510000D02*
X305050000Y-111510000D01*
X293120000Y-112780000D02*
X293120000Y-114810000D01*
X296420000Y-111510000D02*
X294390000Y-111510000D01*
D13*
X292641000Y-121920000D02*
G75*
G03*
X292641000Y-121920000I-100000J0D01*
G01*
D12*
X305050000Y-124710000D02*
G75*
G03*
X306320000Y-123440000I0J1270000D01*
G01*
X305050000Y-111510000D02*
G75*
G02*
X306320000Y-112780000I0J-1270000D01*
G01*
X294390000Y-111510000D02*
G75*
G03*
X293120000Y-112780000I0J-1270000D01*
G01*
D13*
%TO.C,D17*%
X272890000Y-145830000D02*
X275590000Y-145830000D01*
X272890000Y-143730000D02*
X272890000Y-145830000D01*
X275590000Y-143730000D02*
X272890000Y-143730000D01*
%TO.C,D16*%
X272890000Y-149640000D02*
X275590000Y-149640000D01*
X272890000Y-147540000D02*
X272890000Y-149640000D01*
X275590000Y-147540000D02*
X272890000Y-147540000D01*
%TO.C,D14*%
X218920000Y-156430000D02*
X216220000Y-156430000D01*
X218920000Y-158530000D02*
X218920000Y-156430000D01*
X216220000Y-158530000D02*
X218920000Y-158530000D01*
%TO.C,D13*%
X218920000Y-161510000D02*
X216220000Y-161510000D01*
X218920000Y-163610000D02*
X218920000Y-161510000D01*
X216220000Y-163610000D02*
X218920000Y-163610000D01*
%TO.C,D12*%
X218920000Y-166590000D02*
X216220000Y-166590000D01*
X218920000Y-168690000D02*
X218920000Y-166590000D01*
X216220000Y-168690000D02*
X218920000Y-168690000D01*
%TO.C,D11*%
X159540000Y-154720000D02*
X162240000Y-154720000D01*
X159540000Y-152620000D02*
X159540000Y-154720000D01*
X162240000Y-152620000D02*
X159540000Y-152620000D01*
%TO.C,D10*%
X159540000Y-149640000D02*
X162240000Y-149640000D01*
X159540000Y-147540000D02*
X159540000Y-149640000D01*
X162240000Y-147540000D02*
X159540000Y-147540000D01*
%TO.C,D9*%
X159540000Y-164880000D02*
X162240000Y-164880000D01*
X159540000Y-162780000D02*
X159540000Y-164880000D01*
X162240000Y-162780000D02*
X159540000Y-162780000D01*
%TO.C,D8*%
X159540000Y-139480000D02*
X162240000Y-139480000D01*
X159540000Y-137380000D02*
X159540000Y-139480000D01*
X162240000Y-137380000D02*
X159540000Y-137380000D01*
%TO.C,D7*%
X159540000Y-134400000D02*
X162240000Y-134400000D01*
X159540000Y-132300000D02*
X159540000Y-134400000D01*
X162240000Y-132300000D02*
X159540000Y-132300000D01*
%TO.C,D6*%
X159540000Y-144560000D02*
X162240000Y-144560000D01*
X159540000Y-142460000D02*
X159540000Y-144560000D01*
X162240000Y-142460000D02*
X159540000Y-142460000D01*
%TO.C,D5*%
X159540000Y-129320000D02*
X162240000Y-129320000D01*
X159540000Y-127220000D02*
X159540000Y-129320000D01*
X162240000Y-127220000D02*
X159540000Y-127220000D01*
%TO.C,D4*%
X159540000Y-159800000D02*
X162240000Y-159800000D01*
X159540000Y-157700000D02*
X159540000Y-159800000D01*
X162240000Y-157700000D02*
X159540000Y-157700000D01*
D12*
%TO.C,CPU_CLK1*%
X258830000Y-166620000D02*
X258830000Y-163320000D01*
X262130000Y-166620000D02*
X258830000Y-166620000D01*
X272030000Y-165350000D02*
X272030000Y-163320000D01*
X268730000Y-166620000D02*
X270760000Y-166620000D01*
X272030000Y-154690000D02*
X272030000Y-156720000D01*
X268730000Y-153420000D02*
X270760000Y-153420000D01*
X258830000Y-154690000D02*
X258830000Y-156720000D01*
X262130000Y-153420000D02*
X260100000Y-153420000D01*
D15*
X257970000Y-163830000D02*
G75*
G03*
X257970000Y-163830000I-100000J0D01*
G01*
D12*
X270760000Y-166620000D02*
G75*
G03*
X272030000Y-165350000I0J1270000D01*
G01*
X270760000Y-153420000D02*
G75*
G02*
X272030000Y-154690000I0J-1270000D01*
G01*
X260100000Y-153420000D02*
G75*
G03*
X258830000Y-154690000I0J-1270000D01*
G01*
D11*
%TO.C,CPU1*%
X254385000Y-135505000D02*
X239760000Y-135505000D01*
X254385000Y-166755000D02*
X254385000Y-135505000D01*
X223135000Y-166755000D02*
X254385000Y-166755000D01*
X223135000Y-136505000D02*
X223135000Y-166755000D01*
X224135000Y-135505000D02*
X223135000Y-136505000D01*
X237760000Y-135505000D02*
X224135000Y-135505000D01*
%TO.C,CPLD1*%
X194655000Y-84760000D02*
X177530000Y-84760000D01*
X194655000Y-120980000D02*
X194655000Y-84760000D01*
X158405000Y-120980000D02*
X194655000Y-120980000D01*
X158405000Y-85760000D02*
X158405000Y-120980000D01*
X159405000Y-84760000D02*
X158405000Y-85760000D01*
X175530000Y-84760000D02*
X159405000Y-84760000D01*
%TO.C,Con1*%
X214690000Y-77410000D02*
X214690000Y-78740000D01*
X213360000Y-77410000D02*
X214690000Y-77410000D01*
X212090000Y-77410000D02*
X212090000Y-80070000D01*
X212090000Y-80070000D02*
X189170000Y-80070000D01*
X212090000Y-77410000D02*
X189170000Y-77410000D01*
X189170000Y-77410000D02*
X189170000Y-80070000D01*
%TO.C,PLUG1*%
D10*
X289412380Y-163016666D02*
X288412380Y-163016666D01*
X288412380Y-162635714D01*
X288460000Y-162540476D01*
X288507619Y-162492857D01*
X288602857Y-162445238D01*
X288745714Y-162445238D01*
X288840952Y-162492857D01*
X288888571Y-162540476D01*
X288936190Y-162635714D01*
X288936190Y-163016666D01*
X289412380Y-161540476D02*
X289412380Y-162016666D01*
X288412380Y-162016666D01*
X288412380Y-161207142D02*
X289221904Y-161207142D01*
X289317142Y-161159523D01*
X289364761Y-161111904D01*
X289412380Y-161016666D01*
X289412380Y-160826190D01*
X289364761Y-160730952D01*
X289317142Y-160683333D01*
X289221904Y-160635714D01*
X288412380Y-160635714D01*
X288460000Y-159635714D02*
X288412380Y-159730952D01*
X288412380Y-159873809D01*
X288460000Y-160016666D01*
X288555238Y-160111904D01*
X288650476Y-160159523D01*
X288840952Y-160207142D01*
X288983809Y-160207142D01*
X289174285Y-160159523D01*
X289269523Y-160111904D01*
X289364761Y-160016666D01*
X289412380Y-159873809D01*
X289412380Y-159778571D01*
X289364761Y-159635714D01*
X289317142Y-159588095D01*
X288983809Y-159588095D01*
X288983809Y-159778571D01*
X289412380Y-158635714D02*
X289412380Y-159207142D01*
X289412380Y-158921428D02*
X288412380Y-158921428D01*
X288555238Y-159016666D01*
X288650476Y-159111904D01*
X288698095Y-159207142D01*
%TO.C,UROM1*%
X222432857Y-82212380D02*
X222432857Y-83021904D01*
X222480476Y-83117142D01*
X222528095Y-83164761D01*
X222623333Y-83212380D01*
X222813809Y-83212380D01*
X222909047Y-83164761D01*
X222956666Y-83117142D01*
X223004285Y-83021904D01*
X223004285Y-82212380D01*
X224051904Y-83212380D02*
X223718571Y-82736190D01*
X223480476Y-83212380D02*
X223480476Y-82212380D01*
X223861428Y-82212380D01*
X223956666Y-82260000D01*
X224004285Y-82307619D01*
X224051904Y-82402857D01*
X224051904Y-82545714D01*
X224004285Y-82640952D01*
X223956666Y-82688571D01*
X223861428Y-82736190D01*
X223480476Y-82736190D01*
X224670952Y-82212380D02*
X224861428Y-82212380D01*
X224956666Y-82260000D01*
X225051904Y-82355238D01*
X225099523Y-82545714D01*
X225099523Y-82879047D01*
X225051904Y-83069523D01*
X224956666Y-83164761D01*
X224861428Y-83212380D01*
X224670952Y-83212380D01*
X224575714Y-83164761D01*
X224480476Y-83069523D01*
X224432857Y-82879047D01*
X224432857Y-82545714D01*
X224480476Y-82355238D01*
X224575714Y-82260000D01*
X224670952Y-82212380D01*
X225528095Y-83212380D02*
X225528095Y-82212380D01*
X225861428Y-82926666D01*
X226194761Y-82212380D01*
X226194761Y-83212380D01*
X227194761Y-83212380D02*
X226623333Y-83212380D01*
X226909047Y-83212380D02*
X226909047Y-82212380D01*
X226813809Y-82355238D01*
X226718571Y-82450476D01*
X226623333Y-82498095D01*
%TO.C,URAM1*%
X174268095Y-129202380D02*
X174268095Y-130011904D01*
X174315714Y-130107142D01*
X174363333Y-130154761D01*
X174458571Y-130202380D01*
X174649047Y-130202380D01*
X174744285Y-130154761D01*
X174791904Y-130107142D01*
X174839523Y-130011904D01*
X174839523Y-129202380D01*
X175887142Y-130202380D02*
X175553809Y-129726190D01*
X175315714Y-130202380D02*
X175315714Y-129202380D01*
X175696666Y-129202380D01*
X175791904Y-129250000D01*
X175839523Y-129297619D01*
X175887142Y-129392857D01*
X175887142Y-129535714D01*
X175839523Y-129630952D01*
X175791904Y-129678571D01*
X175696666Y-129726190D01*
X175315714Y-129726190D01*
X176268095Y-129916666D02*
X176744285Y-129916666D01*
X176172857Y-130202380D02*
X176506190Y-129202380D01*
X176839523Y-130202380D01*
X177172857Y-130202380D02*
X177172857Y-129202380D01*
X177506190Y-129916666D01*
X177839523Y-129202380D01*
X177839523Y-130202380D01*
X178839523Y-130202380D02*
X178268095Y-130202380D01*
X178553809Y-130202380D02*
X178553809Y-129202380D01*
X178458571Y-129345238D01*
X178363333Y-129440476D01*
X178268095Y-129488095D01*
%TO.C,U8*%
X269962380Y-136651904D02*
X270771904Y-136651904D01*
X270867142Y-136604285D01*
X270914761Y-136556666D01*
X270962380Y-136461428D01*
X270962380Y-136270952D01*
X270914761Y-136175714D01*
X270867142Y-136128095D01*
X270771904Y-136080476D01*
X269962380Y-136080476D01*
X270390952Y-135461428D02*
X270343333Y-135556666D01*
X270295714Y-135604285D01*
X270200476Y-135651904D01*
X270152857Y-135651904D01*
X270057619Y-135604285D01*
X270010000Y-135556666D01*
X269962380Y-135461428D01*
X269962380Y-135270952D01*
X270010000Y-135175714D01*
X270057619Y-135128095D01*
X270152857Y-135080476D01*
X270200476Y-135080476D01*
X270295714Y-135128095D01*
X270343333Y-135175714D01*
X270390952Y-135270952D01*
X270390952Y-135461428D01*
X270438571Y-135556666D01*
X270486190Y-135604285D01*
X270581428Y-135651904D01*
X270771904Y-135651904D01*
X270867142Y-135604285D01*
X270914761Y-135556666D01*
X270962380Y-135461428D01*
X270962380Y-135270952D01*
X270914761Y-135175714D01*
X270867142Y-135128095D01*
X270771904Y-135080476D01*
X270581428Y-135080476D01*
X270486190Y-135128095D01*
X270438571Y-135175714D01*
X270390952Y-135270952D01*
X269962380Y-138532857D02*
X269962380Y-137866190D01*
X270962380Y-138294761D01*
X270295714Y-137056666D02*
X270962380Y-137056666D01*
X269914761Y-137294761D02*
X270629047Y-137532857D01*
X270629047Y-136913809D01*
X270962380Y-136056666D02*
X270962380Y-136532857D01*
X269962380Y-136532857D01*
X270914761Y-135770952D02*
X270962380Y-135628095D01*
X270962380Y-135390000D01*
X270914761Y-135294761D01*
X270867142Y-135247142D01*
X270771904Y-135199523D01*
X270676666Y-135199523D01*
X270581428Y-135247142D01*
X270533809Y-135294761D01*
X270486190Y-135390000D01*
X270438571Y-135580476D01*
X270390952Y-135675714D01*
X270343333Y-135723333D01*
X270248095Y-135770952D01*
X270152857Y-135770952D01*
X270057619Y-135723333D01*
X270010000Y-135675714D01*
X269962380Y-135580476D01*
X269962380Y-135342380D01*
X270010000Y-135199523D01*
X269962380Y-134580476D02*
X269962380Y-134485238D01*
X270010000Y-134390000D01*
X270057619Y-134342380D01*
X270152857Y-134294761D01*
X270343333Y-134247142D01*
X270581428Y-134247142D01*
X270771904Y-134294761D01*
X270867142Y-134342380D01*
X270914761Y-134390000D01*
X270962380Y-134485238D01*
X270962380Y-134580476D01*
X270914761Y-134675714D01*
X270867142Y-134723333D01*
X270771904Y-134770952D01*
X270581428Y-134818571D01*
X270343333Y-134818571D01*
X270152857Y-134770952D01*
X270057619Y-134723333D01*
X270010000Y-134675714D01*
X269962380Y-134580476D01*
X269962380Y-133913809D02*
X269962380Y-133294761D01*
X270343333Y-133628095D01*
X270343333Y-133485238D01*
X270390952Y-133390000D01*
X270438571Y-133342380D01*
X270533809Y-133294761D01*
X270771904Y-133294761D01*
X270867142Y-133342380D01*
X270914761Y-133390000D01*
X270962380Y-133485238D01*
X270962380Y-133770952D01*
X270914761Y-133866190D01*
X270867142Y-133913809D01*
X260932680Y-139700000D02*
X261170776Y-139700000D01*
X261075538Y-139938095D02*
X261170776Y-139700000D01*
X261075538Y-139461904D01*
X261361252Y-139842857D02*
X261170776Y-139700000D01*
X261361252Y-139557142D01*
X260932680Y-139700000D02*
X261170776Y-139700000D01*
X261075538Y-139938095D02*
X261170776Y-139700000D01*
X261075538Y-139461904D01*
X261361252Y-139842857D02*
X261170776Y-139700000D01*
X261361252Y-139557142D01*
%TO.C,SW1*%
X326961861Y-155206433D02*
X327009480Y-155063576D01*
X327009480Y-154825480D01*
X326961861Y-154730242D01*
X326914242Y-154682623D01*
X326819004Y-154635004D01*
X326723766Y-154635004D01*
X326628528Y-154682623D01*
X326580909Y-154730242D01*
X326533290Y-154825480D01*
X326485671Y-155015957D01*
X326438052Y-155111195D01*
X326390433Y-155158814D01*
X326295195Y-155206433D01*
X326199957Y-155206433D01*
X326104719Y-155158814D01*
X326057100Y-155111195D01*
X326009480Y-155015957D01*
X326009480Y-154777861D01*
X326057100Y-154635004D01*
X326009480Y-154301671D02*
X327009480Y-154063576D01*
X326295195Y-153873100D01*
X327009480Y-153682623D01*
X326009480Y-153444528D01*
X327009480Y-152539766D02*
X327009480Y-153111195D01*
X327009480Y-152825480D02*
X326009480Y-152825480D01*
X326152338Y-152920719D01*
X326247576Y-153015957D01*
X326295195Y-153111195D01*
X298902380Y-154408095D02*
X297902380Y-154408095D01*
X297902380Y-154027142D01*
X297950000Y-153931904D01*
X297997619Y-153884285D01*
X298092857Y-153836666D01*
X298235714Y-153836666D01*
X298330952Y-153884285D01*
X298378571Y-153931904D01*
X298426190Y-154027142D01*
X298426190Y-154408095D01*
X298854761Y-153455714D02*
X298902380Y-153312857D01*
X298902380Y-153074761D01*
X298854761Y-152979523D01*
X298807142Y-152931904D01*
X298711904Y-152884285D01*
X298616666Y-152884285D01*
X298521428Y-152931904D01*
X298473809Y-152979523D01*
X298426190Y-153074761D01*
X298378571Y-153265238D01*
X298330952Y-153360476D01*
X298283333Y-153408095D01*
X298188095Y-153455714D01*
X298092857Y-153455714D01*
X297997619Y-153408095D01*
X297950000Y-153360476D01*
X297902380Y-153265238D01*
X297902380Y-153027142D01*
X297950000Y-152884285D01*
X302789980Y-150660100D02*
X303028076Y-150660100D01*
X302932838Y-150898195D02*
X303028076Y-150660100D01*
X302932838Y-150422004D01*
X303218552Y-150802957D02*
X303028076Y-150660100D01*
X303218552Y-150517242D01*
X302789980Y-150660100D02*
X303028076Y-150660100D01*
X302932838Y-150898195D02*
X303028076Y-150660100D01*
X302932838Y-150422004D01*
X303218552Y-150802957D02*
X303028076Y-150660100D01*
X303218552Y-150517242D01*
%TO.C,S1*%
X287203095Y-139779761D02*
X287345952Y-139827380D01*
X287584047Y-139827380D01*
X287679285Y-139779761D01*
X287726904Y-139732142D01*
X287774523Y-139636904D01*
X287774523Y-139541666D01*
X287726904Y-139446428D01*
X287679285Y-139398809D01*
X287584047Y-139351190D01*
X287393571Y-139303571D01*
X287298333Y-139255952D01*
X287250714Y-139208333D01*
X287203095Y-139113095D01*
X287203095Y-139017857D01*
X287250714Y-138922619D01*
X287298333Y-138875000D01*
X287393571Y-138827380D01*
X287631666Y-138827380D01*
X287774523Y-138875000D01*
X288726904Y-139827380D02*
X288155476Y-139827380D01*
X288441190Y-139827380D02*
X288441190Y-138827380D01*
X288345952Y-138970238D01*
X288250714Y-139065476D01*
X288155476Y-139113095D01*
%TO.C,RS1*%
X276042380Y-95892857D02*
X275566190Y-96226190D01*
X276042380Y-96464285D02*
X275042380Y-96464285D01*
X275042380Y-96083333D01*
X275090000Y-95988095D01*
X275137619Y-95940476D01*
X275232857Y-95892857D01*
X275375714Y-95892857D01*
X275470952Y-95940476D01*
X275518571Y-95988095D01*
X275566190Y-96083333D01*
X275566190Y-96464285D01*
X275994761Y-95511904D02*
X276042380Y-95369047D01*
X276042380Y-95130952D01*
X275994761Y-95035714D01*
X275947142Y-94988095D01*
X275851904Y-94940476D01*
X275756666Y-94940476D01*
X275661428Y-94988095D01*
X275613809Y-95035714D01*
X275566190Y-95130952D01*
X275518571Y-95321428D01*
X275470952Y-95416666D01*
X275423333Y-95464285D01*
X275328095Y-95511904D01*
X275232857Y-95511904D01*
X275137619Y-95464285D01*
X275090000Y-95416666D01*
X275042380Y-95321428D01*
X275042380Y-95083333D01*
X275090000Y-94940476D01*
X276042380Y-93988095D02*
X276042380Y-94559523D01*
X276042380Y-94273809D02*
X275042380Y-94273809D01*
X275185238Y-94369047D01*
X275280476Y-94464285D01*
X275328095Y-94559523D01*
X276042380Y-97226190D02*
X275566190Y-97559523D01*
X276042380Y-97797619D02*
X275042380Y-97797619D01*
X275042380Y-97416666D01*
X275090000Y-97321428D01*
X275137619Y-97273809D01*
X275232857Y-97226190D01*
X275375714Y-97226190D01*
X275470952Y-97273809D01*
X275518571Y-97321428D01*
X275566190Y-97416666D01*
X275566190Y-97797619D01*
X275994761Y-96845238D02*
X276042380Y-96702380D01*
X276042380Y-96464285D01*
X275994761Y-96369047D01*
X275947142Y-96321428D01*
X275851904Y-96273809D01*
X275756666Y-96273809D01*
X275661428Y-96321428D01*
X275613809Y-96369047D01*
X275566190Y-96464285D01*
X275518571Y-96654761D01*
X275470952Y-96750000D01*
X275423333Y-96797619D01*
X275328095Y-96845238D01*
X275232857Y-96845238D01*
X275137619Y-96797619D01*
X275090000Y-96750000D01*
X275042380Y-96654761D01*
X275042380Y-96416666D01*
X275090000Y-96273809D01*
X275137619Y-95892857D02*
X275090000Y-95845238D01*
X275042380Y-95750000D01*
X275042380Y-95511904D01*
X275090000Y-95416666D01*
X275137619Y-95369047D01*
X275232857Y-95321428D01*
X275328095Y-95321428D01*
X275470952Y-95369047D01*
X276042380Y-95940476D01*
X276042380Y-95321428D01*
X275042380Y-94988095D02*
X275042380Y-94369047D01*
X275423333Y-94702380D01*
X275423333Y-94559523D01*
X275470952Y-94464285D01*
X275518571Y-94416666D01*
X275613809Y-94369047D01*
X275851904Y-94369047D01*
X275947142Y-94416666D01*
X275994761Y-94464285D01*
X276042380Y-94559523D01*
X276042380Y-94845238D01*
X275994761Y-94940476D01*
X275947142Y-94988095D01*
X275137619Y-93988095D02*
X275090000Y-93940476D01*
X275042380Y-93845238D01*
X275042380Y-93607142D01*
X275090000Y-93511904D01*
X275137619Y-93464285D01*
X275232857Y-93416666D01*
X275328095Y-93416666D01*
X275470952Y-93464285D01*
X276042380Y-94035714D01*
X276042380Y-93416666D01*
X285342080Y-91440000D02*
X285580176Y-91440000D01*
X285484938Y-91678095D02*
X285580176Y-91440000D01*
X285484938Y-91201904D01*
X285770652Y-91582857D02*
X285580176Y-91440000D01*
X285770652Y-91297142D01*
X285342080Y-91440000D02*
X285580176Y-91440000D01*
X285484938Y-91678095D02*
X285580176Y-91440000D01*
X285484938Y-91201904D01*
X285770652Y-91582857D02*
X285580176Y-91440000D01*
X285770652Y-91297142D01*
%TO.C,REG1*%
D16*
X300294523Y-137311190D02*
X299689761Y-137734523D01*
X300294523Y-138036904D02*
X299024523Y-138036904D01*
X299024523Y-137553095D01*
X299085000Y-137432142D01*
X299145476Y-137371666D01*
X299266428Y-137311190D01*
X299447857Y-137311190D01*
X299568809Y-137371666D01*
X299629285Y-137432142D01*
X299689761Y-137553095D01*
X299689761Y-138036904D01*
X299629285Y-136766904D02*
X299629285Y-136343571D01*
X300294523Y-136162142D02*
X300294523Y-136766904D01*
X299024523Y-136766904D01*
X299024523Y-136162142D01*
X299085000Y-134952619D02*
X299024523Y-135073571D01*
X299024523Y-135255000D01*
X299085000Y-135436428D01*
X299205952Y-135557380D01*
X299326904Y-135617857D01*
X299568809Y-135678333D01*
X299750238Y-135678333D01*
X299992142Y-135617857D01*
X300113095Y-135557380D01*
X300234047Y-135436428D01*
X300294523Y-135255000D01*
X300294523Y-135134047D01*
X300234047Y-134952619D01*
X300173571Y-134892142D01*
X299750238Y-134892142D01*
X299750238Y-135134047D01*
X300294523Y-133682619D02*
X300294523Y-134408333D01*
X300294523Y-134045476D02*
X299024523Y-134045476D01*
X299205952Y-134166428D01*
X299326904Y-134287380D01*
X299387380Y-134408333D01*
%TO.C,R21*%
D10*
X207955142Y-109672380D02*
X207621809Y-109196190D01*
X207383714Y-109672380D02*
X207383714Y-108672380D01*
X207764666Y-108672380D01*
X207859904Y-108720000D01*
X207907523Y-108767619D01*
X207955142Y-108862857D01*
X207955142Y-109005714D01*
X207907523Y-109100952D01*
X207859904Y-109148571D01*
X207764666Y-109196190D01*
X207383714Y-109196190D01*
X208336095Y-108767619D02*
X208383714Y-108720000D01*
X208478952Y-108672380D01*
X208717047Y-108672380D01*
X208812285Y-108720000D01*
X208859904Y-108767619D01*
X208907523Y-108862857D01*
X208907523Y-108958095D01*
X208859904Y-109100952D01*
X208288476Y-109672380D01*
X208907523Y-109672380D01*
X209859904Y-109672380D02*
X209288476Y-109672380D01*
X209574190Y-109672380D02*
X209574190Y-108672380D01*
X209478952Y-108815238D01*
X209383714Y-108910476D01*
X209288476Y-108958095D01*
X207074190Y-109005714D02*
X207074190Y-109672380D01*
X206836095Y-108624761D02*
X206598000Y-109339047D01*
X207217047Y-109339047D01*
X207598000Y-109577142D02*
X207645619Y-109624761D01*
X207598000Y-109672380D01*
X207550380Y-109624761D01*
X207598000Y-109577142D01*
X207598000Y-109672380D01*
X207978952Y-108672380D02*
X208645619Y-108672380D01*
X208217047Y-109672380D01*
X209026571Y-109672380D02*
X209026571Y-108672380D01*
X209598000Y-109672380D02*
X209169428Y-109100952D01*
X209598000Y-108672380D02*
X209026571Y-109243809D01*
X210598000Y-109672380D02*
X210264666Y-109196190D01*
X210026571Y-109672380D02*
X210026571Y-108672380D01*
X210407523Y-108672380D01*
X210502761Y-108720000D01*
X210550380Y-108767619D01*
X210598000Y-108862857D01*
X210598000Y-109005714D01*
X210550380Y-109100952D01*
X210502761Y-109148571D01*
X210407523Y-109196190D01*
X210026571Y-109196190D01*
X208598000Y-108672380D02*
X208598000Y-108910476D01*
X208359904Y-108815238D02*
X208598000Y-108910476D01*
X208836095Y-108815238D01*
X208455142Y-109100952D02*
X208598000Y-108910476D01*
X208740857Y-109100952D01*
%TO.C,R20*%
X201605142Y-109672380D02*
X201271809Y-109196190D01*
X201033714Y-109672380D02*
X201033714Y-108672380D01*
X201414666Y-108672380D01*
X201509904Y-108720000D01*
X201557523Y-108767619D01*
X201605142Y-108862857D01*
X201605142Y-109005714D01*
X201557523Y-109100952D01*
X201509904Y-109148571D01*
X201414666Y-109196190D01*
X201033714Y-109196190D01*
X201986095Y-108767619D02*
X202033714Y-108720000D01*
X202128952Y-108672380D01*
X202367047Y-108672380D01*
X202462285Y-108720000D01*
X202509904Y-108767619D01*
X202557523Y-108862857D01*
X202557523Y-108958095D01*
X202509904Y-109100952D01*
X201938476Y-109672380D01*
X202557523Y-109672380D01*
X203176571Y-108672380D02*
X203271809Y-108672380D01*
X203367047Y-108720000D01*
X203414666Y-108767619D01*
X203462285Y-108862857D01*
X203509904Y-109053333D01*
X203509904Y-109291428D01*
X203462285Y-109481904D01*
X203414666Y-109577142D01*
X203367047Y-109624761D01*
X203271809Y-109672380D01*
X203176571Y-109672380D01*
X203081333Y-109624761D01*
X203033714Y-109577142D01*
X202986095Y-109481904D01*
X202938476Y-109291428D01*
X202938476Y-109053333D01*
X202986095Y-108862857D01*
X203033714Y-108767619D01*
X203081333Y-108720000D01*
X203176571Y-108672380D01*
X200724190Y-109005714D02*
X200724190Y-109672380D01*
X200486095Y-108624761D02*
X200248000Y-109339047D01*
X200867047Y-109339047D01*
X201248000Y-109577142D02*
X201295619Y-109624761D01*
X201248000Y-109672380D01*
X201200380Y-109624761D01*
X201248000Y-109577142D01*
X201248000Y-109672380D01*
X201628952Y-108672380D02*
X202295619Y-108672380D01*
X201867047Y-109672380D01*
X202676571Y-109672380D02*
X202676571Y-108672380D01*
X203248000Y-109672380D02*
X202819428Y-109100952D01*
X203248000Y-108672380D02*
X202676571Y-109243809D01*
X204248000Y-109672380D02*
X203914666Y-109196190D01*
X203676571Y-109672380D02*
X203676571Y-108672380D01*
X204057523Y-108672380D01*
X204152761Y-108720000D01*
X204200380Y-108767619D01*
X204248000Y-108862857D01*
X204248000Y-109005714D01*
X204200380Y-109100952D01*
X204152761Y-109148571D01*
X204057523Y-109196190D01*
X203676571Y-109196190D01*
X202248000Y-108672380D02*
X202248000Y-108910476D01*
X202009904Y-108815238D02*
X202248000Y-108910476D01*
X202486095Y-108815238D01*
X202105142Y-109100952D02*
X202248000Y-108910476D01*
X202390857Y-109100952D01*
%TO.C,R19*%
X201706142Y-91892380D02*
X201372809Y-91416190D01*
X201134714Y-91892380D02*
X201134714Y-90892380D01*
X201515666Y-90892380D01*
X201610904Y-90940000D01*
X201658523Y-90987619D01*
X201706142Y-91082857D01*
X201706142Y-91225714D01*
X201658523Y-91320952D01*
X201610904Y-91368571D01*
X201515666Y-91416190D01*
X201134714Y-91416190D01*
X202658523Y-91892380D02*
X202087095Y-91892380D01*
X202372809Y-91892380D02*
X202372809Y-90892380D01*
X202277571Y-91035238D01*
X202182333Y-91130476D01*
X202087095Y-91178095D01*
X203134714Y-91892380D02*
X203325190Y-91892380D01*
X203420428Y-91844761D01*
X203468047Y-91797142D01*
X203563285Y-91654285D01*
X203610904Y-91463809D01*
X203610904Y-91082857D01*
X203563285Y-90987619D01*
X203515666Y-90940000D01*
X203420428Y-90892380D01*
X203229952Y-90892380D01*
X203134714Y-90940000D01*
X203087095Y-90987619D01*
X203039476Y-91082857D01*
X203039476Y-91320952D01*
X203087095Y-91416190D01*
X203134714Y-91463809D01*
X203229952Y-91511428D01*
X203420428Y-91511428D01*
X203515666Y-91463809D01*
X203563285Y-91416190D01*
X203610904Y-91320952D01*
X200563285Y-90892380D02*
X201182333Y-90892380D01*
X200849000Y-91273333D01*
X200991857Y-91273333D01*
X201087095Y-91320952D01*
X201134714Y-91368571D01*
X201182333Y-91463809D01*
X201182333Y-91701904D01*
X201134714Y-91797142D01*
X201087095Y-91844761D01*
X200991857Y-91892380D01*
X200706142Y-91892380D01*
X200610904Y-91844761D01*
X200563285Y-91797142D01*
X201515666Y-90892380D02*
X202134714Y-90892380D01*
X201801380Y-91273333D01*
X201944238Y-91273333D01*
X202039476Y-91320952D01*
X202087095Y-91368571D01*
X202134714Y-91463809D01*
X202134714Y-91701904D01*
X202087095Y-91797142D01*
X202039476Y-91844761D01*
X201944238Y-91892380D01*
X201658523Y-91892380D01*
X201563285Y-91844761D01*
X201515666Y-91797142D01*
X202753761Y-90892380D02*
X202849000Y-90892380D01*
X202944238Y-90940000D01*
X202991857Y-90987619D01*
X203039476Y-91082857D01*
X203087095Y-91273333D01*
X203087095Y-91511428D01*
X203039476Y-91701904D01*
X202991857Y-91797142D01*
X202944238Y-91844761D01*
X202849000Y-91892380D01*
X202753761Y-91892380D01*
X202658523Y-91844761D01*
X202610904Y-91797142D01*
X202563285Y-91701904D01*
X202515666Y-91511428D01*
X202515666Y-91273333D01*
X202563285Y-91082857D01*
X202610904Y-90987619D01*
X202658523Y-90940000D01*
X202753761Y-90892380D01*
X204087095Y-91892380D02*
X203753761Y-91416190D01*
X203515666Y-91892380D02*
X203515666Y-90892380D01*
X203896619Y-90892380D01*
X203991857Y-90940000D01*
X204039476Y-90987619D01*
X204087095Y-91082857D01*
X204087095Y-91225714D01*
X204039476Y-91320952D01*
X203991857Y-91368571D01*
X203896619Y-91416190D01*
X203515666Y-91416190D01*
X202349000Y-90892380D02*
X202349000Y-91130476D01*
X202110904Y-91035238D02*
X202349000Y-91130476D01*
X202587095Y-91035238D01*
X202206142Y-91320952D02*
X202349000Y-91130476D01*
X202491857Y-91320952D01*
%TO.C,R18*%
X201706142Y-96972380D02*
X201372809Y-96496190D01*
X201134714Y-96972380D02*
X201134714Y-95972380D01*
X201515666Y-95972380D01*
X201610904Y-96020000D01*
X201658523Y-96067619D01*
X201706142Y-96162857D01*
X201706142Y-96305714D01*
X201658523Y-96400952D01*
X201610904Y-96448571D01*
X201515666Y-96496190D01*
X201134714Y-96496190D01*
X202658523Y-96972380D02*
X202087095Y-96972380D01*
X202372809Y-96972380D02*
X202372809Y-95972380D01*
X202277571Y-96115238D01*
X202182333Y-96210476D01*
X202087095Y-96258095D01*
X203229952Y-96400952D02*
X203134714Y-96353333D01*
X203087095Y-96305714D01*
X203039476Y-96210476D01*
X203039476Y-96162857D01*
X203087095Y-96067619D01*
X203134714Y-96020000D01*
X203229952Y-95972380D01*
X203420428Y-95972380D01*
X203515666Y-96020000D01*
X203563285Y-96067619D01*
X203610904Y-96162857D01*
X203610904Y-96210476D01*
X203563285Y-96305714D01*
X203515666Y-96353333D01*
X203420428Y-96400952D01*
X203229952Y-96400952D01*
X203134714Y-96448571D01*
X203087095Y-96496190D01*
X203039476Y-96591428D01*
X203039476Y-96781904D01*
X203087095Y-96877142D01*
X203134714Y-96924761D01*
X203229952Y-96972380D01*
X203420428Y-96972380D01*
X203515666Y-96924761D01*
X203563285Y-96877142D01*
X203610904Y-96781904D01*
X203610904Y-96591428D01*
X203563285Y-96496190D01*
X203515666Y-96448571D01*
X203420428Y-96400952D01*
X200563285Y-95972380D02*
X201182333Y-95972380D01*
X200849000Y-96353333D01*
X200991857Y-96353333D01*
X201087095Y-96400952D01*
X201134714Y-96448571D01*
X201182333Y-96543809D01*
X201182333Y-96781904D01*
X201134714Y-96877142D01*
X201087095Y-96924761D01*
X200991857Y-96972380D01*
X200706142Y-96972380D01*
X200610904Y-96924761D01*
X200563285Y-96877142D01*
X201515666Y-95972380D02*
X202134714Y-95972380D01*
X201801380Y-96353333D01*
X201944238Y-96353333D01*
X202039476Y-96400952D01*
X202087095Y-96448571D01*
X202134714Y-96543809D01*
X202134714Y-96781904D01*
X202087095Y-96877142D01*
X202039476Y-96924761D01*
X201944238Y-96972380D01*
X201658523Y-96972380D01*
X201563285Y-96924761D01*
X201515666Y-96877142D01*
X202753761Y-95972380D02*
X202849000Y-95972380D01*
X202944238Y-96020000D01*
X202991857Y-96067619D01*
X203039476Y-96162857D01*
X203087095Y-96353333D01*
X203087095Y-96591428D01*
X203039476Y-96781904D01*
X202991857Y-96877142D01*
X202944238Y-96924761D01*
X202849000Y-96972380D01*
X202753761Y-96972380D01*
X202658523Y-96924761D01*
X202610904Y-96877142D01*
X202563285Y-96781904D01*
X202515666Y-96591428D01*
X202515666Y-96353333D01*
X202563285Y-96162857D01*
X202610904Y-96067619D01*
X202658523Y-96020000D01*
X202753761Y-95972380D01*
X204087095Y-96972380D02*
X203753761Y-96496190D01*
X203515666Y-96972380D02*
X203515666Y-95972380D01*
X203896619Y-95972380D01*
X203991857Y-96020000D01*
X204039476Y-96067619D01*
X204087095Y-96162857D01*
X204087095Y-96305714D01*
X204039476Y-96400952D01*
X203991857Y-96448571D01*
X203896619Y-96496190D01*
X203515666Y-96496190D01*
X202349000Y-95972380D02*
X202349000Y-96210476D01*
X202110904Y-96115238D02*
X202349000Y-96210476D01*
X202587095Y-96115238D01*
X202206142Y-96400952D02*
X202349000Y-96210476D01*
X202491857Y-96400952D01*
%TO.C,R16*%
X207955142Y-105862380D02*
X207621809Y-105386190D01*
X207383714Y-105862380D02*
X207383714Y-104862380D01*
X207764666Y-104862380D01*
X207859904Y-104910000D01*
X207907523Y-104957619D01*
X207955142Y-105052857D01*
X207955142Y-105195714D01*
X207907523Y-105290952D01*
X207859904Y-105338571D01*
X207764666Y-105386190D01*
X207383714Y-105386190D01*
X208907523Y-105862380D02*
X208336095Y-105862380D01*
X208621809Y-105862380D02*
X208621809Y-104862380D01*
X208526571Y-105005238D01*
X208431333Y-105100476D01*
X208336095Y-105148095D01*
X209764666Y-104862380D02*
X209574190Y-104862380D01*
X209478952Y-104910000D01*
X209431333Y-104957619D01*
X209336095Y-105100476D01*
X209288476Y-105290952D01*
X209288476Y-105671904D01*
X209336095Y-105767142D01*
X209383714Y-105814761D01*
X209478952Y-105862380D01*
X209669428Y-105862380D01*
X209764666Y-105814761D01*
X209812285Y-105767142D01*
X209859904Y-105671904D01*
X209859904Y-105433809D01*
X209812285Y-105338571D01*
X209764666Y-105290952D01*
X209669428Y-105243333D01*
X209478952Y-105243333D01*
X209383714Y-105290952D01*
X209336095Y-105338571D01*
X209288476Y-105433809D01*
X207074190Y-105195714D02*
X207074190Y-105862380D01*
X206836095Y-104814761D02*
X206598000Y-105529047D01*
X207217047Y-105529047D01*
X207598000Y-105767142D02*
X207645619Y-105814761D01*
X207598000Y-105862380D01*
X207550380Y-105814761D01*
X207598000Y-105767142D01*
X207598000Y-105862380D01*
X207978952Y-104862380D02*
X208645619Y-104862380D01*
X208217047Y-105862380D01*
X209026571Y-105862380D02*
X209026571Y-104862380D01*
X209598000Y-105862380D02*
X209169428Y-105290952D01*
X209598000Y-104862380D02*
X209026571Y-105433809D01*
X210598000Y-105862380D02*
X210264666Y-105386190D01*
X210026571Y-105862380D02*
X210026571Y-104862380D01*
X210407523Y-104862380D01*
X210502761Y-104910000D01*
X210550380Y-104957619D01*
X210598000Y-105052857D01*
X210598000Y-105195714D01*
X210550380Y-105290952D01*
X210502761Y-105338571D01*
X210407523Y-105386190D01*
X210026571Y-105386190D01*
X208598000Y-104862380D02*
X208598000Y-105100476D01*
X208359904Y-105005238D02*
X208598000Y-105100476D01*
X208836095Y-105005238D01*
X208455142Y-105290952D02*
X208598000Y-105100476D01*
X208740857Y-105290952D01*
%TO.C,R15*%
X201706142Y-86812380D02*
X201372809Y-86336190D01*
X201134714Y-86812380D02*
X201134714Y-85812380D01*
X201515666Y-85812380D01*
X201610904Y-85860000D01*
X201658523Y-85907619D01*
X201706142Y-86002857D01*
X201706142Y-86145714D01*
X201658523Y-86240952D01*
X201610904Y-86288571D01*
X201515666Y-86336190D01*
X201134714Y-86336190D01*
X202658523Y-86812380D02*
X202087095Y-86812380D01*
X202372809Y-86812380D02*
X202372809Y-85812380D01*
X202277571Y-85955238D01*
X202182333Y-86050476D01*
X202087095Y-86098095D01*
X203563285Y-85812380D02*
X203087095Y-85812380D01*
X203039476Y-86288571D01*
X203087095Y-86240952D01*
X203182333Y-86193333D01*
X203420428Y-86193333D01*
X203515666Y-86240952D01*
X203563285Y-86288571D01*
X203610904Y-86383809D01*
X203610904Y-86621904D01*
X203563285Y-86717142D01*
X203515666Y-86764761D01*
X203420428Y-86812380D01*
X203182333Y-86812380D01*
X203087095Y-86764761D01*
X203039476Y-86717142D01*
X200563285Y-85812380D02*
X201182333Y-85812380D01*
X200849000Y-86193333D01*
X200991857Y-86193333D01*
X201087095Y-86240952D01*
X201134714Y-86288571D01*
X201182333Y-86383809D01*
X201182333Y-86621904D01*
X201134714Y-86717142D01*
X201087095Y-86764761D01*
X200991857Y-86812380D01*
X200706142Y-86812380D01*
X200610904Y-86764761D01*
X200563285Y-86717142D01*
X201515666Y-85812380D02*
X202134714Y-85812380D01*
X201801380Y-86193333D01*
X201944238Y-86193333D01*
X202039476Y-86240952D01*
X202087095Y-86288571D01*
X202134714Y-86383809D01*
X202134714Y-86621904D01*
X202087095Y-86717142D01*
X202039476Y-86764761D01*
X201944238Y-86812380D01*
X201658523Y-86812380D01*
X201563285Y-86764761D01*
X201515666Y-86717142D01*
X202753761Y-85812380D02*
X202849000Y-85812380D01*
X202944238Y-85860000D01*
X202991857Y-85907619D01*
X203039476Y-86002857D01*
X203087095Y-86193333D01*
X203087095Y-86431428D01*
X203039476Y-86621904D01*
X202991857Y-86717142D01*
X202944238Y-86764761D01*
X202849000Y-86812380D01*
X202753761Y-86812380D01*
X202658523Y-86764761D01*
X202610904Y-86717142D01*
X202563285Y-86621904D01*
X202515666Y-86431428D01*
X202515666Y-86193333D01*
X202563285Y-86002857D01*
X202610904Y-85907619D01*
X202658523Y-85860000D01*
X202753761Y-85812380D01*
X204087095Y-86812380D02*
X203753761Y-86336190D01*
X203515666Y-86812380D02*
X203515666Y-85812380D01*
X203896619Y-85812380D01*
X203991857Y-85860000D01*
X204039476Y-85907619D01*
X204087095Y-86002857D01*
X204087095Y-86145714D01*
X204039476Y-86240952D01*
X203991857Y-86288571D01*
X203896619Y-86336190D01*
X203515666Y-86336190D01*
X202349000Y-85812380D02*
X202349000Y-86050476D01*
X202110904Y-85955238D02*
X202349000Y-86050476D01*
X202587095Y-85955238D01*
X202206142Y-86240952D02*
X202349000Y-86050476D01*
X202491857Y-86240952D01*
%TO.C,R14*%
X201706142Y-89352380D02*
X201372809Y-88876190D01*
X201134714Y-89352380D02*
X201134714Y-88352380D01*
X201515666Y-88352380D01*
X201610904Y-88400000D01*
X201658523Y-88447619D01*
X201706142Y-88542857D01*
X201706142Y-88685714D01*
X201658523Y-88780952D01*
X201610904Y-88828571D01*
X201515666Y-88876190D01*
X201134714Y-88876190D01*
X202658523Y-89352380D02*
X202087095Y-89352380D01*
X202372809Y-89352380D02*
X202372809Y-88352380D01*
X202277571Y-88495238D01*
X202182333Y-88590476D01*
X202087095Y-88638095D01*
X203515666Y-88685714D02*
X203515666Y-89352380D01*
X203277571Y-88304761D02*
X203039476Y-89019047D01*
X203658523Y-89019047D01*
X200563285Y-88352380D02*
X201182333Y-88352380D01*
X200849000Y-88733333D01*
X200991857Y-88733333D01*
X201087095Y-88780952D01*
X201134714Y-88828571D01*
X201182333Y-88923809D01*
X201182333Y-89161904D01*
X201134714Y-89257142D01*
X201087095Y-89304761D01*
X200991857Y-89352380D01*
X200706142Y-89352380D01*
X200610904Y-89304761D01*
X200563285Y-89257142D01*
X201515666Y-88352380D02*
X202134714Y-88352380D01*
X201801380Y-88733333D01*
X201944238Y-88733333D01*
X202039476Y-88780952D01*
X202087095Y-88828571D01*
X202134714Y-88923809D01*
X202134714Y-89161904D01*
X202087095Y-89257142D01*
X202039476Y-89304761D01*
X201944238Y-89352380D01*
X201658523Y-89352380D01*
X201563285Y-89304761D01*
X201515666Y-89257142D01*
X202753761Y-88352380D02*
X202849000Y-88352380D01*
X202944238Y-88400000D01*
X202991857Y-88447619D01*
X203039476Y-88542857D01*
X203087095Y-88733333D01*
X203087095Y-88971428D01*
X203039476Y-89161904D01*
X202991857Y-89257142D01*
X202944238Y-89304761D01*
X202849000Y-89352380D01*
X202753761Y-89352380D01*
X202658523Y-89304761D01*
X202610904Y-89257142D01*
X202563285Y-89161904D01*
X202515666Y-88971428D01*
X202515666Y-88733333D01*
X202563285Y-88542857D01*
X202610904Y-88447619D01*
X202658523Y-88400000D01*
X202753761Y-88352380D01*
X204087095Y-89352380D02*
X203753761Y-88876190D01*
X203515666Y-89352380D02*
X203515666Y-88352380D01*
X203896619Y-88352380D01*
X203991857Y-88400000D01*
X204039476Y-88447619D01*
X204087095Y-88542857D01*
X204087095Y-88685714D01*
X204039476Y-88780952D01*
X203991857Y-88828571D01*
X203896619Y-88876190D01*
X203515666Y-88876190D01*
X202349000Y-88352380D02*
X202349000Y-88590476D01*
X202110904Y-88495238D02*
X202349000Y-88590476D01*
X202587095Y-88495238D01*
X202206142Y-88780952D02*
X202349000Y-88590476D01*
X202491857Y-88780952D01*
%TO.C,R13*%
X205097142Y-84272380D02*
X204763809Y-83796190D01*
X204525714Y-84272380D02*
X204525714Y-83272380D01*
X204906666Y-83272380D01*
X205001904Y-83320000D01*
X205049523Y-83367619D01*
X205097142Y-83462857D01*
X205097142Y-83605714D01*
X205049523Y-83700952D01*
X205001904Y-83748571D01*
X204906666Y-83796190D01*
X204525714Y-83796190D01*
X206049523Y-84272380D02*
X205478095Y-84272380D01*
X205763809Y-84272380D02*
X205763809Y-83272380D01*
X205668571Y-83415238D01*
X205573333Y-83510476D01*
X205478095Y-83558095D01*
X206382857Y-83272380D02*
X207001904Y-83272380D01*
X206668571Y-83653333D01*
X206811428Y-83653333D01*
X206906666Y-83700952D01*
X206954285Y-83748571D01*
X207001904Y-83843809D01*
X207001904Y-84081904D01*
X206954285Y-84177142D01*
X206906666Y-84224761D01*
X206811428Y-84272380D01*
X206525714Y-84272380D01*
X206430476Y-84224761D01*
X206382857Y-84177142D01*
X203954285Y-83272380D02*
X204573333Y-83272380D01*
X204240000Y-83653333D01*
X204382857Y-83653333D01*
X204478095Y-83700952D01*
X204525714Y-83748571D01*
X204573333Y-83843809D01*
X204573333Y-84081904D01*
X204525714Y-84177142D01*
X204478095Y-84224761D01*
X204382857Y-84272380D01*
X204097142Y-84272380D01*
X204001904Y-84224761D01*
X203954285Y-84177142D01*
X204906666Y-83272380D02*
X205525714Y-83272380D01*
X205192380Y-83653333D01*
X205335238Y-83653333D01*
X205430476Y-83700952D01*
X205478095Y-83748571D01*
X205525714Y-83843809D01*
X205525714Y-84081904D01*
X205478095Y-84177142D01*
X205430476Y-84224761D01*
X205335238Y-84272380D01*
X205049523Y-84272380D01*
X204954285Y-84224761D01*
X204906666Y-84177142D01*
X206144761Y-83272380D02*
X206240000Y-83272380D01*
X206335238Y-83320000D01*
X206382857Y-83367619D01*
X206430476Y-83462857D01*
X206478095Y-83653333D01*
X206478095Y-83891428D01*
X206430476Y-84081904D01*
X206382857Y-84177142D01*
X206335238Y-84224761D01*
X206240000Y-84272380D01*
X206144761Y-84272380D01*
X206049523Y-84224761D01*
X206001904Y-84177142D01*
X205954285Y-84081904D01*
X205906666Y-83891428D01*
X205906666Y-83653333D01*
X205954285Y-83462857D01*
X206001904Y-83367619D01*
X206049523Y-83320000D01*
X206144761Y-83272380D01*
X207478095Y-84272380D02*
X207144761Y-83796190D01*
X206906666Y-84272380D02*
X206906666Y-83272380D01*
X207287619Y-83272380D01*
X207382857Y-83320000D01*
X207430476Y-83367619D01*
X207478095Y-83462857D01*
X207478095Y-83605714D01*
X207430476Y-83700952D01*
X207382857Y-83748571D01*
X207287619Y-83796190D01*
X206906666Y-83796190D01*
X205740000Y-83272380D02*
X205740000Y-83510476D01*
X205501904Y-83415238D02*
X205740000Y-83510476D01*
X205978095Y-83415238D01*
X205597142Y-83700952D02*
X205740000Y-83510476D01*
X205882857Y-83700952D01*
%TO.C,R12*%
X208056142Y-94432380D02*
X207722809Y-93956190D01*
X207484714Y-94432380D02*
X207484714Y-93432380D01*
X207865666Y-93432380D01*
X207960904Y-93480000D01*
X208008523Y-93527619D01*
X208056142Y-93622857D01*
X208056142Y-93765714D01*
X208008523Y-93860952D01*
X207960904Y-93908571D01*
X207865666Y-93956190D01*
X207484714Y-93956190D01*
X209008523Y-94432380D02*
X208437095Y-94432380D01*
X208722809Y-94432380D02*
X208722809Y-93432380D01*
X208627571Y-93575238D01*
X208532333Y-93670476D01*
X208437095Y-93718095D01*
X209389476Y-93527619D02*
X209437095Y-93480000D01*
X209532333Y-93432380D01*
X209770428Y-93432380D01*
X209865666Y-93480000D01*
X209913285Y-93527619D01*
X209960904Y-93622857D01*
X209960904Y-93718095D01*
X209913285Y-93860952D01*
X209341857Y-94432380D01*
X209960904Y-94432380D01*
X206913285Y-93432380D02*
X207532333Y-93432380D01*
X207199000Y-93813333D01*
X207341857Y-93813333D01*
X207437095Y-93860952D01*
X207484714Y-93908571D01*
X207532333Y-94003809D01*
X207532333Y-94241904D01*
X207484714Y-94337142D01*
X207437095Y-94384761D01*
X207341857Y-94432380D01*
X207056142Y-94432380D01*
X206960904Y-94384761D01*
X206913285Y-94337142D01*
X207865666Y-93432380D02*
X208484714Y-93432380D01*
X208151380Y-93813333D01*
X208294238Y-93813333D01*
X208389476Y-93860952D01*
X208437095Y-93908571D01*
X208484714Y-94003809D01*
X208484714Y-94241904D01*
X208437095Y-94337142D01*
X208389476Y-94384761D01*
X208294238Y-94432380D01*
X208008523Y-94432380D01*
X207913285Y-94384761D01*
X207865666Y-94337142D01*
X209103761Y-93432380D02*
X209199000Y-93432380D01*
X209294238Y-93480000D01*
X209341857Y-93527619D01*
X209389476Y-93622857D01*
X209437095Y-93813333D01*
X209437095Y-94051428D01*
X209389476Y-94241904D01*
X209341857Y-94337142D01*
X209294238Y-94384761D01*
X209199000Y-94432380D01*
X209103761Y-94432380D01*
X209008523Y-94384761D01*
X208960904Y-94337142D01*
X208913285Y-94241904D01*
X208865666Y-94051428D01*
X208865666Y-93813333D01*
X208913285Y-93622857D01*
X208960904Y-93527619D01*
X209008523Y-93480000D01*
X209103761Y-93432380D01*
X210437095Y-94432380D02*
X210103761Y-93956190D01*
X209865666Y-94432380D02*
X209865666Y-93432380D01*
X210246619Y-93432380D01*
X210341857Y-93480000D01*
X210389476Y-93527619D01*
X210437095Y-93622857D01*
X210437095Y-93765714D01*
X210389476Y-93860952D01*
X210341857Y-93908571D01*
X210246619Y-93956190D01*
X209865666Y-93956190D01*
X208699000Y-93432380D02*
X208699000Y-93670476D01*
X208460904Y-93575238D02*
X208699000Y-93670476D01*
X208937095Y-93575238D01*
X208556142Y-93860952D02*
X208699000Y-93670476D01*
X208841857Y-93860952D01*
%TO.C,R11*%
X201706142Y-94432380D02*
X201372809Y-93956190D01*
X201134714Y-94432380D02*
X201134714Y-93432380D01*
X201515666Y-93432380D01*
X201610904Y-93480000D01*
X201658523Y-93527619D01*
X201706142Y-93622857D01*
X201706142Y-93765714D01*
X201658523Y-93860952D01*
X201610904Y-93908571D01*
X201515666Y-93956190D01*
X201134714Y-93956190D01*
X202658523Y-94432380D02*
X202087095Y-94432380D01*
X202372809Y-94432380D02*
X202372809Y-93432380D01*
X202277571Y-93575238D01*
X202182333Y-93670476D01*
X202087095Y-93718095D01*
X203610904Y-94432380D02*
X203039476Y-94432380D01*
X203325190Y-94432380D02*
X203325190Y-93432380D01*
X203229952Y-93575238D01*
X203134714Y-93670476D01*
X203039476Y-93718095D01*
X200563285Y-93432380D02*
X201182333Y-93432380D01*
X200849000Y-93813333D01*
X200991857Y-93813333D01*
X201087095Y-93860952D01*
X201134714Y-93908571D01*
X201182333Y-94003809D01*
X201182333Y-94241904D01*
X201134714Y-94337142D01*
X201087095Y-94384761D01*
X200991857Y-94432380D01*
X200706142Y-94432380D01*
X200610904Y-94384761D01*
X200563285Y-94337142D01*
X201515666Y-93432380D02*
X202134714Y-93432380D01*
X201801380Y-93813333D01*
X201944238Y-93813333D01*
X202039476Y-93860952D01*
X202087095Y-93908571D01*
X202134714Y-94003809D01*
X202134714Y-94241904D01*
X202087095Y-94337142D01*
X202039476Y-94384761D01*
X201944238Y-94432380D01*
X201658523Y-94432380D01*
X201563285Y-94384761D01*
X201515666Y-94337142D01*
X202753761Y-93432380D02*
X202849000Y-93432380D01*
X202944238Y-93480000D01*
X202991857Y-93527619D01*
X203039476Y-93622857D01*
X203087095Y-93813333D01*
X203087095Y-94051428D01*
X203039476Y-94241904D01*
X202991857Y-94337142D01*
X202944238Y-94384761D01*
X202849000Y-94432380D01*
X202753761Y-94432380D01*
X202658523Y-94384761D01*
X202610904Y-94337142D01*
X202563285Y-94241904D01*
X202515666Y-94051428D01*
X202515666Y-93813333D01*
X202563285Y-93622857D01*
X202610904Y-93527619D01*
X202658523Y-93480000D01*
X202753761Y-93432380D01*
X204087095Y-94432380D02*
X203753761Y-93956190D01*
X203515666Y-94432380D02*
X203515666Y-93432380D01*
X203896619Y-93432380D01*
X203991857Y-93480000D01*
X204039476Y-93527619D01*
X204087095Y-93622857D01*
X204087095Y-93765714D01*
X204039476Y-93860952D01*
X203991857Y-93908571D01*
X203896619Y-93956190D01*
X203515666Y-93956190D01*
X202349000Y-93432380D02*
X202349000Y-93670476D01*
X202110904Y-93575238D02*
X202349000Y-93670476D01*
X202587095Y-93575238D01*
X202206142Y-93860952D02*
X202349000Y-93670476D01*
X202491857Y-93860952D01*
%TO.C,R10*%
X201706142Y-99512380D02*
X201372809Y-99036190D01*
X201134714Y-99512380D02*
X201134714Y-98512380D01*
X201515666Y-98512380D01*
X201610904Y-98560000D01*
X201658523Y-98607619D01*
X201706142Y-98702857D01*
X201706142Y-98845714D01*
X201658523Y-98940952D01*
X201610904Y-98988571D01*
X201515666Y-99036190D01*
X201134714Y-99036190D01*
X202658523Y-99512380D02*
X202087095Y-99512380D01*
X202372809Y-99512380D02*
X202372809Y-98512380D01*
X202277571Y-98655238D01*
X202182333Y-98750476D01*
X202087095Y-98798095D01*
X203277571Y-98512380D02*
X203372809Y-98512380D01*
X203468047Y-98560000D01*
X203515666Y-98607619D01*
X203563285Y-98702857D01*
X203610904Y-98893333D01*
X203610904Y-99131428D01*
X203563285Y-99321904D01*
X203515666Y-99417142D01*
X203468047Y-99464761D01*
X203372809Y-99512380D01*
X203277571Y-99512380D01*
X203182333Y-99464761D01*
X203134714Y-99417142D01*
X203087095Y-99321904D01*
X203039476Y-99131428D01*
X203039476Y-98893333D01*
X203087095Y-98702857D01*
X203134714Y-98607619D01*
X203182333Y-98560000D01*
X203277571Y-98512380D01*
X200563285Y-98512380D02*
X201182333Y-98512380D01*
X200849000Y-98893333D01*
X200991857Y-98893333D01*
X201087095Y-98940952D01*
X201134714Y-98988571D01*
X201182333Y-99083809D01*
X201182333Y-99321904D01*
X201134714Y-99417142D01*
X201087095Y-99464761D01*
X200991857Y-99512380D01*
X200706142Y-99512380D01*
X200610904Y-99464761D01*
X200563285Y-99417142D01*
X201515666Y-98512380D02*
X202134714Y-98512380D01*
X201801380Y-98893333D01*
X201944238Y-98893333D01*
X202039476Y-98940952D01*
X202087095Y-98988571D01*
X202134714Y-99083809D01*
X202134714Y-99321904D01*
X202087095Y-99417142D01*
X202039476Y-99464761D01*
X201944238Y-99512380D01*
X201658523Y-99512380D01*
X201563285Y-99464761D01*
X201515666Y-99417142D01*
X202753761Y-98512380D02*
X202849000Y-98512380D01*
X202944238Y-98560000D01*
X202991857Y-98607619D01*
X203039476Y-98702857D01*
X203087095Y-98893333D01*
X203087095Y-99131428D01*
X203039476Y-99321904D01*
X202991857Y-99417142D01*
X202944238Y-99464761D01*
X202849000Y-99512380D01*
X202753761Y-99512380D01*
X202658523Y-99464761D01*
X202610904Y-99417142D01*
X202563285Y-99321904D01*
X202515666Y-99131428D01*
X202515666Y-98893333D01*
X202563285Y-98702857D01*
X202610904Y-98607619D01*
X202658523Y-98560000D01*
X202753761Y-98512380D01*
X204087095Y-99512380D02*
X203753761Y-99036190D01*
X203515666Y-99512380D02*
X203515666Y-98512380D01*
X203896619Y-98512380D01*
X203991857Y-98560000D01*
X204039476Y-98607619D01*
X204087095Y-98702857D01*
X204087095Y-98845714D01*
X204039476Y-98940952D01*
X203991857Y-98988571D01*
X203896619Y-99036190D01*
X203515666Y-99036190D01*
X202349000Y-98512380D02*
X202349000Y-98750476D01*
X202110904Y-98655238D02*
X202349000Y-98750476D01*
X202587095Y-98655238D01*
X202206142Y-98940952D02*
X202349000Y-98750476D01*
X202491857Y-98940952D01*
%TO.C,R9*%
X208532333Y-86812380D02*
X208199000Y-86336190D01*
X207960904Y-86812380D02*
X207960904Y-85812380D01*
X208341857Y-85812380D01*
X208437095Y-85860000D01*
X208484714Y-85907619D01*
X208532333Y-86002857D01*
X208532333Y-86145714D01*
X208484714Y-86240952D01*
X208437095Y-86288571D01*
X208341857Y-86336190D01*
X207960904Y-86336190D01*
X209008523Y-86812380D02*
X209199000Y-86812380D01*
X209294238Y-86764761D01*
X209341857Y-86717142D01*
X209437095Y-86574285D01*
X209484714Y-86383809D01*
X209484714Y-86002857D01*
X209437095Y-85907619D01*
X209389476Y-85860000D01*
X209294238Y-85812380D01*
X209103761Y-85812380D01*
X209008523Y-85860000D01*
X208960904Y-85907619D01*
X208913285Y-86002857D01*
X208913285Y-86240952D01*
X208960904Y-86336190D01*
X209008523Y-86383809D01*
X209103761Y-86431428D01*
X209294238Y-86431428D01*
X209389476Y-86383809D01*
X209437095Y-86336190D01*
X209484714Y-86240952D01*
X207579985Y-85812380D02*
X208199033Y-85812380D01*
X207865700Y-86193333D01*
X208008557Y-86193333D01*
X208103795Y-86240952D01*
X208151414Y-86288571D01*
X208199033Y-86383809D01*
X208199033Y-86621904D01*
X208151414Y-86717142D01*
X208103795Y-86764761D01*
X208008557Y-86812380D01*
X207722842Y-86812380D01*
X207627604Y-86764761D01*
X207579985Y-86717142D01*
X208532366Y-85812380D02*
X209151414Y-85812380D01*
X208818080Y-86193333D01*
X208960938Y-86193333D01*
X209056176Y-86240952D01*
X209103795Y-86288571D01*
X209151414Y-86383809D01*
X209151414Y-86621904D01*
X209103795Y-86717142D01*
X209056176Y-86764761D01*
X208960938Y-86812380D01*
X208675223Y-86812380D01*
X208579985Y-86764761D01*
X208532366Y-86717142D01*
X209770461Y-85812380D02*
X209865700Y-85812380D01*
X209960938Y-85860000D01*
X210008557Y-85907619D01*
X210056176Y-86002857D01*
X210103795Y-86193333D01*
X210103795Y-86431428D01*
X210056176Y-86621904D01*
X210008557Y-86717142D01*
X209960938Y-86764761D01*
X209865700Y-86812380D01*
X209770461Y-86812380D01*
X209675223Y-86764761D01*
X209627604Y-86717142D01*
X209579985Y-86621904D01*
X209532366Y-86431428D01*
X209532366Y-86193333D01*
X209579985Y-86002857D01*
X209627604Y-85907619D01*
X209675223Y-85860000D01*
X209770461Y-85812380D01*
X211103795Y-86812380D02*
X210770461Y-86336190D01*
X210532366Y-86812380D02*
X210532366Y-85812380D01*
X210913319Y-85812380D01*
X211008557Y-85860000D01*
X211056176Y-85907619D01*
X211103795Y-86002857D01*
X211103795Y-86145714D01*
X211056176Y-86240952D01*
X211008557Y-86288571D01*
X210913319Y-86336190D01*
X210532366Y-86336190D01*
X208699000Y-85812380D02*
X208699000Y-86050476D01*
X208460904Y-85955238D02*
X208699000Y-86050476D01*
X208937095Y-85955238D01*
X208556142Y-86240952D02*
X208699000Y-86050476D01*
X208841857Y-86240952D01*
%TO.C,R8*%
X208532333Y-91892380D02*
X208199000Y-91416190D01*
X207960904Y-91892380D02*
X207960904Y-90892380D01*
X208341857Y-90892380D01*
X208437095Y-90940000D01*
X208484714Y-90987619D01*
X208532333Y-91082857D01*
X208532333Y-91225714D01*
X208484714Y-91320952D01*
X208437095Y-91368571D01*
X208341857Y-91416190D01*
X207960904Y-91416190D01*
X209103761Y-91320952D02*
X209008523Y-91273333D01*
X208960904Y-91225714D01*
X208913285Y-91130476D01*
X208913285Y-91082857D01*
X208960904Y-90987619D01*
X209008523Y-90940000D01*
X209103761Y-90892380D01*
X209294238Y-90892380D01*
X209389476Y-90940000D01*
X209437095Y-90987619D01*
X209484714Y-91082857D01*
X209484714Y-91130476D01*
X209437095Y-91225714D01*
X209389476Y-91273333D01*
X209294238Y-91320952D01*
X209103761Y-91320952D01*
X209008523Y-91368571D01*
X208960904Y-91416190D01*
X208913285Y-91511428D01*
X208913285Y-91701904D01*
X208960904Y-91797142D01*
X209008523Y-91844761D01*
X209103761Y-91892380D01*
X209294238Y-91892380D01*
X209389476Y-91844761D01*
X209437095Y-91797142D01*
X209484714Y-91701904D01*
X209484714Y-91511428D01*
X209437095Y-91416190D01*
X209389476Y-91368571D01*
X209294238Y-91320952D01*
X206913285Y-90892380D02*
X207532333Y-90892380D01*
X207199000Y-91273333D01*
X207341857Y-91273333D01*
X207437095Y-91320952D01*
X207484714Y-91368571D01*
X207532333Y-91463809D01*
X207532333Y-91701904D01*
X207484714Y-91797142D01*
X207437095Y-91844761D01*
X207341857Y-91892380D01*
X207056142Y-91892380D01*
X206960904Y-91844761D01*
X206913285Y-91797142D01*
X207865666Y-90892380D02*
X208484714Y-90892380D01*
X208151380Y-91273333D01*
X208294238Y-91273333D01*
X208389476Y-91320952D01*
X208437095Y-91368571D01*
X208484714Y-91463809D01*
X208484714Y-91701904D01*
X208437095Y-91797142D01*
X208389476Y-91844761D01*
X208294238Y-91892380D01*
X208008523Y-91892380D01*
X207913285Y-91844761D01*
X207865666Y-91797142D01*
X209103761Y-90892380D02*
X209199000Y-90892380D01*
X209294238Y-90940000D01*
X209341857Y-90987619D01*
X209389476Y-91082857D01*
X209437095Y-91273333D01*
X209437095Y-91511428D01*
X209389476Y-91701904D01*
X209341857Y-91797142D01*
X209294238Y-91844761D01*
X209199000Y-91892380D01*
X209103761Y-91892380D01*
X209008523Y-91844761D01*
X208960904Y-91797142D01*
X208913285Y-91701904D01*
X208865666Y-91511428D01*
X208865666Y-91273333D01*
X208913285Y-91082857D01*
X208960904Y-90987619D01*
X209008523Y-90940000D01*
X209103761Y-90892380D01*
X210437095Y-91892380D02*
X210103761Y-91416190D01*
X209865666Y-91892380D02*
X209865666Y-90892380D01*
X210246619Y-90892380D01*
X210341857Y-90940000D01*
X210389476Y-90987619D01*
X210437095Y-91082857D01*
X210437095Y-91225714D01*
X210389476Y-91320952D01*
X210341857Y-91368571D01*
X210246619Y-91416190D01*
X209865666Y-91416190D01*
X208699000Y-90892380D02*
X208699000Y-91130476D01*
X208460904Y-91035238D02*
X208699000Y-91130476D01*
X208937095Y-91035238D01*
X208556142Y-91320952D02*
X208699000Y-91130476D01*
X208841857Y-91320952D01*
%TO.C,R7*%
X208532333Y-96972380D02*
X208199000Y-96496190D01*
X207960904Y-96972380D02*
X207960904Y-95972380D01*
X208341857Y-95972380D01*
X208437095Y-96020000D01*
X208484714Y-96067619D01*
X208532333Y-96162857D01*
X208532333Y-96305714D01*
X208484714Y-96400952D01*
X208437095Y-96448571D01*
X208341857Y-96496190D01*
X207960904Y-96496190D01*
X208865666Y-95972380D02*
X209532333Y-95972380D01*
X209103761Y-96972380D01*
X206913285Y-95972380D02*
X207532333Y-95972380D01*
X207199000Y-96353333D01*
X207341857Y-96353333D01*
X207437095Y-96400952D01*
X207484714Y-96448571D01*
X207532333Y-96543809D01*
X207532333Y-96781904D01*
X207484714Y-96877142D01*
X207437095Y-96924761D01*
X207341857Y-96972380D01*
X207056142Y-96972380D01*
X206960904Y-96924761D01*
X206913285Y-96877142D01*
X207865666Y-95972380D02*
X208484714Y-95972380D01*
X208151380Y-96353333D01*
X208294238Y-96353333D01*
X208389476Y-96400952D01*
X208437095Y-96448571D01*
X208484714Y-96543809D01*
X208484714Y-96781904D01*
X208437095Y-96877142D01*
X208389476Y-96924761D01*
X208294238Y-96972380D01*
X208008523Y-96972380D01*
X207913285Y-96924761D01*
X207865666Y-96877142D01*
X209103761Y-95972380D02*
X209199000Y-95972380D01*
X209294238Y-96020000D01*
X209341857Y-96067619D01*
X209389476Y-96162857D01*
X209437095Y-96353333D01*
X209437095Y-96591428D01*
X209389476Y-96781904D01*
X209341857Y-96877142D01*
X209294238Y-96924761D01*
X209199000Y-96972380D01*
X209103761Y-96972380D01*
X209008523Y-96924761D01*
X208960904Y-96877142D01*
X208913285Y-96781904D01*
X208865666Y-96591428D01*
X208865666Y-96353333D01*
X208913285Y-96162857D01*
X208960904Y-96067619D01*
X209008523Y-96020000D01*
X209103761Y-95972380D01*
X210437095Y-96972380D02*
X210103761Y-96496190D01*
X209865666Y-96972380D02*
X209865666Y-95972380D01*
X210246619Y-95972380D01*
X210341857Y-96020000D01*
X210389476Y-96067619D01*
X210437095Y-96162857D01*
X210437095Y-96305714D01*
X210389476Y-96400952D01*
X210341857Y-96448571D01*
X210246619Y-96496190D01*
X209865666Y-96496190D01*
X208699000Y-95972380D02*
X208699000Y-96210476D01*
X208460904Y-96115238D02*
X208699000Y-96210476D01*
X208937095Y-96115238D01*
X208556142Y-96400952D02*
X208699000Y-96210476D01*
X208841857Y-96400952D01*
%TO.C,R6*%
X208532333Y-89352380D02*
X208199000Y-88876190D01*
X207960904Y-89352380D02*
X207960904Y-88352380D01*
X208341857Y-88352380D01*
X208437095Y-88400000D01*
X208484714Y-88447619D01*
X208532333Y-88542857D01*
X208532333Y-88685714D01*
X208484714Y-88780952D01*
X208437095Y-88828571D01*
X208341857Y-88876190D01*
X207960904Y-88876190D01*
X209389476Y-88352380D02*
X209199000Y-88352380D01*
X209103761Y-88400000D01*
X209056142Y-88447619D01*
X208960904Y-88590476D01*
X208913285Y-88780952D01*
X208913285Y-89161904D01*
X208960904Y-89257142D01*
X209008523Y-89304761D01*
X209103761Y-89352380D01*
X209294238Y-89352380D01*
X209389476Y-89304761D01*
X209437095Y-89257142D01*
X209484714Y-89161904D01*
X209484714Y-88923809D01*
X209437095Y-88828571D01*
X209389476Y-88780952D01*
X209294238Y-88733333D01*
X209103761Y-88733333D01*
X209008523Y-88780952D01*
X208960904Y-88828571D01*
X208913285Y-88923809D01*
X206913285Y-88352380D02*
X207532333Y-88352380D01*
X207199000Y-88733333D01*
X207341857Y-88733333D01*
X207437095Y-88780952D01*
X207484714Y-88828571D01*
X207532333Y-88923809D01*
X207532333Y-89161904D01*
X207484714Y-89257142D01*
X207437095Y-89304761D01*
X207341857Y-89352380D01*
X207056142Y-89352380D01*
X206960904Y-89304761D01*
X206913285Y-89257142D01*
X207865666Y-88352380D02*
X208484714Y-88352380D01*
X208151380Y-88733333D01*
X208294238Y-88733333D01*
X208389476Y-88780952D01*
X208437095Y-88828571D01*
X208484714Y-88923809D01*
X208484714Y-89161904D01*
X208437095Y-89257142D01*
X208389476Y-89304761D01*
X208294238Y-89352380D01*
X208008523Y-89352380D01*
X207913285Y-89304761D01*
X207865666Y-89257142D01*
X209103761Y-88352380D02*
X209199000Y-88352380D01*
X209294238Y-88400000D01*
X209341857Y-88447619D01*
X209389476Y-88542857D01*
X209437095Y-88733333D01*
X209437095Y-88971428D01*
X209389476Y-89161904D01*
X209341857Y-89257142D01*
X209294238Y-89304761D01*
X209199000Y-89352380D01*
X209103761Y-89352380D01*
X209008523Y-89304761D01*
X208960904Y-89257142D01*
X208913285Y-89161904D01*
X208865666Y-88971428D01*
X208865666Y-88733333D01*
X208913285Y-88542857D01*
X208960904Y-88447619D01*
X209008523Y-88400000D01*
X209103761Y-88352380D01*
X210437095Y-89352380D02*
X210103761Y-88876190D01*
X209865666Y-89352380D02*
X209865666Y-88352380D01*
X210246619Y-88352380D01*
X210341857Y-88400000D01*
X210389476Y-88447619D01*
X210437095Y-88542857D01*
X210437095Y-88685714D01*
X210389476Y-88780952D01*
X210341857Y-88828571D01*
X210246619Y-88876190D01*
X209865666Y-88876190D01*
X208699000Y-88352380D02*
X208699000Y-88590476D01*
X208460904Y-88495238D02*
X208699000Y-88590476D01*
X208937095Y-88495238D01*
X208556142Y-88780952D02*
X208699000Y-88590476D01*
X208841857Y-88780952D01*
%TO.C,R5*%
X208532333Y-99512380D02*
X208199000Y-99036190D01*
X207960904Y-99512380D02*
X207960904Y-98512380D01*
X208341857Y-98512380D01*
X208437095Y-98560000D01*
X208484714Y-98607619D01*
X208532333Y-98702857D01*
X208532333Y-98845714D01*
X208484714Y-98940952D01*
X208437095Y-98988571D01*
X208341857Y-99036190D01*
X207960904Y-99036190D01*
X209437095Y-98512380D02*
X208960904Y-98512380D01*
X208913285Y-98988571D01*
X208960904Y-98940952D01*
X209056142Y-98893333D01*
X209294238Y-98893333D01*
X209389476Y-98940952D01*
X209437095Y-98988571D01*
X209484714Y-99083809D01*
X209484714Y-99321904D01*
X209437095Y-99417142D01*
X209389476Y-99464761D01*
X209294238Y-99512380D01*
X209056142Y-99512380D01*
X208960904Y-99464761D01*
X208913285Y-99417142D01*
X206913285Y-98512380D02*
X207532333Y-98512380D01*
X207199000Y-98893333D01*
X207341857Y-98893333D01*
X207437095Y-98940952D01*
X207484714Y-98988571D01*
X207532333Y-99083809D01*
X207532333Y-99321904D01*
X207484714Y-99417142D01*
X207437095Y-99464761D01*
X207341857Y-99512380D01*
X207056142Y-99512380D01*
X206960904Y-99464761D01*
X206913285Y-99417142D01*
X207865666Y-98512380D02*
X208484714Y-98512380D01*
X208151380Y-98893333D01*
X208294238Y-98893333D01*
X208389476Y-98940952D01*
X208437095Y-98988571D01*
X208484714Y-99083809D01*
X208484714Y-99321904D01*
X208437095Y-99417142D01*
X208389476Y-99464761D01*
X208294238Y-99512380D01*
X208008523Y-99512380D01*
X207913285Y-99464761D01*
X207865666Y-99417142D01*
X209103761Y-98512380D02*
X209199000Y-98512380D01*
X209294238Y-98560000D01*
X209341857Y-98607619D01*
X209389476Y-98702857D01*
X209437095Y-98893333D01*
X209437095Y-99131428D01*
X209389476Y-99321904D01*
X209341857Y-99417142D01*
X209294238Y-99464761D01*
X209199000Y-99512380D01*
X209103761Y-99512380D01*
X209008523Y-99464761D01*
X208960904Y-99417142D01*
X208913285Y-99321904D01*
X208865666Y-99131428D01*
X208865666Y-98893333D01*
X208913285Y-98702857D01*
X208960904Y-98607619D01*
X209008523Y-98560000D01*
X209103761Y-98512380D01*
X210437095Y-99512380D02*
X210103761Y-99036190D01*
X209865666Y-99512380D02*
X209865666Y-98512380D01*
X210246619Y-98512380D01*
X210341857Y-98560000D01*
X210389476Y-98607619D01*
X210437095Y-98702857D01*
X210437095Y-98845714D01*
X210389476Y-98940952D01*
X210341857Y-98988571D01*
X210246619Y-99036190D01*
X209865666Y-99036190D01*
X208699000Y-98512380D02*
X208699000Y-98750476D01*
X208460904Y-98655238D02*
X208699000Y-98750476D01*
X208937095Y-98655238D01*
X208556142Y-98940952D02*
X208699000Y-98750476D01*
X208841857Y-98940952D01*
%TO.C,R1*%
X202081333Y-105862380D02*
X201748000Y-105386190D01*
X201509904Y-105862380D02*
X201509904Y-104862380D01*
X201890857Y-104862380D01*
X201986095Y-104910000D01*
X202033714Y-104957619D01*
X202081333Y-105052857D01*
X202081333Y-105195714D01*
X202033714Y-105290952D01*
X201986095Y-105338571D01*
X201890857Y-105386190D01*
X201509904Y-105386190D01*
X203033714Y-105862380D02*
X202462285Y-105862380D01*
X202748000Y-105862380D02*
X202748000Y-104862380D01*
X202652761Y-105005238D01*
X202557523Y-105100476D01*
X202462285Y-105148095D01*
X200724190Y-105195714D02*
X200724190Y-105862380D01*
X200486095Y-104814761D02*
X200248000Y-105529047D01*
X200867047Y-105529047D01*
X201248000Y-105767142D02*
X201295619Y-105814761D01*
X201248000Y-105862380D01*
X201200380Y-105814761D01*
X201248000Y-105767142D01*
X201248000Y-105862380D01*
X201628952Y-104862380D02*
X202295619Y-104862380D01*
X201867047Y-105862380D01*
X202676571Y-105862380D02*
X202676571Y-104862380D01*
X203248000Y-105862380D02*
X202819428Y-105290952D01*
X203248000Y-104862380D02*
X202676571Y-105433809D01*
X204248000Y-105862380D02*
X203914666Y-105386190D01*
X203676571Y-105862380D02*
X203676571Y-104862380D01*
X204057523Y-104862380D01*
X204152761Y-104910000D01*
X204200380Y-104957619D01*
X204248000Y-105052857D01*
X204248000Y-105195714D01*
X204200380Y-105290952D01*
X204152761Y-105338571D01*
X204057523Y-105386190D01*
X203676571Y-105386190D01*
X202248000Y-104862380D02*
X202248000Y-105100476D01*
X202009904Y-105005238D02*
X202248000Y-105100476D01*
X202486095Y-105005238D01*
X202105142Y-105290952D02*
X202248000Y-105100476D01*
X202390857Y-105290952D01*
%TO.C,LROM1*%
X249698095Y-83212380D02*
X249221904Y-83212380D01*
X249221904Y-82212380D01*
X250602857Y-83212380D02*
X250269523Y-82736190D01*
X250031428Y-83212380D02*
X250031428Y-82212380D01*
X250412380Y-82212380D01*
X250507619Y-82260000D01*
X250555238Y-82307619D01*
X250602857Y-82402857D01*
X250602857Y-82545714D01*
X250555238Y-82640952D01*
X250507619Y-82688571D01*
X250412380Y-82736190D01*
X250031428Y-82736190D01*
X251221904Y-82212380D02*
X251412380Y-82212380D01*
X251507619Y-82260000D01*
X251602857Y-82355238D01*
X251650476Y-82545714D01*
X251650476Y-82879047D01*
X251602857Y-83069523D01*
X251507619Y-83164761D01*
X251412380Y-83212380D01*
X251221904Y-83212380D01*
X251126666Y-83164761D01*
X251031428Y-83069523D01*
X250983809Y-82879047D01*
X250983809Y-82545714D01*
X251031428Y-82355238D01*
X251126666Y-82260000D01*
X251221904Y-82212380D01*
X252079047Y-83212380D02*
X252079047Y-82212380D01*
X252412380Y-82926666D01*
X252745714Y-82212380D01*
X252745714Y-83212380D01*
X253745714Y-83212380D02*
X253174285Y-83212380D01*
X253460000Y-83212380D02*
X253460000Y-82212380D01*
X253364761Y-82355238D01*
X253269523Y-82450476D01*
X253174285Y-82498095D01*
%TO.C,LRAM1*%
X201533333Y-130202380D02*
X201057142Y-130202380D01*
X201057142Y-129202380D01*
X202438095Y-130202380D02*
X202104761Y-129726190D01*
X201866666Y-130202380D02*
X201866666Y-129202380D01*
X202247619Y-129202380D01*
X202342857Y-129250000D01*
X202390476Y-129297619D01*
X202438095Y-129392857D01*
X202438095Y-129535714D01*
X202390476Y-129630952D01*
X202342857Y-129678571D01*
X202247619Y-129726190D01*
X201866666Y-129726190D01*
X202819047Y-129916666D02*
X203295238Y-129916666D01*
X202723809Y-130202380D02*
X203057142Y-129202380D01*
X203390476Y-130202380D01*
X203723809Y-130202380D02*
X203723809Y-129202380D01*
X204057142Y-129916666D01*
X204390476Y-129202380D01*
X204390476Y-130202380D01*
X205390476Y-130202380D02*
X204819047Y-130202380D01*
X205104761Y-130202380D02*
X205104761Y-129202380D01*
X205009523Y-129345238D01*
X204914285Y-129440476D01*
X204819047Y-129488095D01*
%TO.C,JTAG1*%
X172347142Y-78192380D02*
X172347142Y-78906666D01*
X172299523Y-79049523D01*
X172204285Y-79144761D01*
X172061428Y-79192380D01*
X171966190Y-79192380D01*
X172680476Y-78192380D02*
X173251904Y-78192380D01*
X172966190Y-79192380D02*
X172966190Y-78192380D01*
X173537619Y-78906666D02*
X174013809Y-78906666D01*
X173442380Y-79192380D02*
X173775714Y-78192380D01*
X174109047Y-79192380D01*
X174966190Y-78240000D02*
X174870952Y-78192380D01*
X174728095Y-78192380D01*
X174585238Y-78240000D01*
X174490000Y-78335238D01*
X174442380Y-78430476D01*
X174394761Y-78620952D01*
X174394761Y-78763809D01*
X174442380Y-78954285D01*
X174490000Y-79049523D01*
X174585238Y-79144761D01*
X174728095Y-79192380D01*
X174823333Y-79192380D01*
X174966190Y-79144761D01*
X175013809Y-79097142D01*
X175013809Y-78763809D01*
X174823333Y-78763809D01*
X175966190Y-79192380D02*
X175394761Y-79192380D01*
X175680476Y-79192380D02*
X175680476Y-78192380D01*
X175585238Y-78335238D01*
X175490000Y-78430476D01*
X175394761Y-78478095D01*
X168680476Y-78192380D02*
X168680476Y-78906666D01*
X168632857Y-79049523D01*
X168537619Y-79144761D01*
X168394761Y-79192380D01*
X168299523Y-79192380D01*
X169013809Y-78192380D02*
X169585238Y-78192380D01*
X169299523Y-79192380D02*
X169299523Y-78192380D01*
X169870952Y-78906666D02*
X170347142Y-78906666D01*
X169775714Y-79192380D02*
X170109047Y-78192380D01*
X170442380Y-79192380D01*
X171299523Y-78240000D02*
X171204285Y-78192380D01*
X171061428Y-78192380D01*
X170918571Y-78240000D01*
X170823333Y-78335238D01*
X170775714Y-78430476D01*
X170728095Y-78620952D01*
X170728095Y-78763809D01*
X170775714Y-78954285D01*
X170823333Y-79049523D01*
X170918571Y-79144761D01*
X171061428Y-79192380D01*
X171156666Y-79192380D01*
X171299523Y-79144761D01*
X171347142Y-79097142D01*
X171347142Y-78763809D01*
X171156666Y-78763809D01*
X173109047Y-79097142D02*
X173061428Y-79144761D01*
X172918571Y-79192380D01*
X172823333Y-79192380D01*
X172680476Y-79144761D01*
X172585238Y-79049523D01*
X172537619Y-78954285D01*
X172490000Y-78763809D01*
X172490000Y-78620952D01*
X172537619Y-78430476D01*
X172585238Y-78335238D01*
X172680476Y-78240000D01*
X172823333Y-78192380D01*
X172918571Y-78192380D01*
X173061428Y-78240000D01*
X173109047Y-78287619D01*
X173680476Y-79192380D02*
X173585238Y-79144761D01*
X173537619Y-79097142D01*
X173490000Y-79001904D01*
X173490000Y-78716190D01*
X173537619Y-78620952D01*
X173585238Y-78573333D01*
X173680476Y-78525714D01*
X173823333Y-78525714D01*
X173918571Y-78573333D01*
X173966190Y-78620952D01*
X174013809Y-78716190D01*
X174013809Y-79001904D01*
X173966190Y-79097142D01*
X173918571Y-79144761D01*
X173823333Y-79192380D01*
X173680476Y-79192380D01*
X174442380Y-78525714D02*
X174442380Y-79192380D01*
X174442380Y-78620952D02*
X174490000Y-78573333D01*
X174585238Y-78525714D01*
X174728095Y-78525714D01*
X174823333Y-78573333D01*
X174870952Y-78668571D01*
X174870952Y-79192380D01*
X175347142Y-78525714D02*
X175347142Y-79192380D01*
X175347142Y-78620952D02*
X175394761Y-78573333D01*
X175490000Y-78525714D01*
X175632857Y-78525714D01*
X175728095Y-78573333D01*
X175775714Y-78668571D01*
X175775714Y-79192380D01*
X176632857Y-79144761D02*
X176537619Y-79192380D01*
X176347142Y-79192380D01*
X176251904Y-79144761D01*
X176204285Y-79049523D01*
X176204285Y-78668571D01*
X176251904Y-78573333D01*
X176347142Y-78525714D01*
X176537619Y-78525714D01*
X176632857Y-78573333D01*
X176680476Y-78668571D01*
X176680476Y-78763809D01*
X176204285Y-78859047D01*
X177537619Y-79144761D02*
X177442380Y-79192380D01*
X177251904Y-79192380D01*
X177156666Y-79144761D01*
X177109047Y-79097142D01*
X177061428Y-79001904D01*
X177061428Y-78716190D01*
X177109047Y-78620952D01*
X177156666Y-78573333D01*
X177251904Y-78525714D01*
X177442380Y-78525714D01*
X177537619Y-78573333D01*
X177823333Y-78525714D02*
X178204285Y-78525714D01*
X177966190Y-78192380D02*
X177966190Y-79049523D01*
X178013809Y-79144761D01*
X178109047Y-79192380D01*
X178204285Y-79192380D01*
X178680476Y-79192380D02*
X178585238Y-79144761D01*
X178537619Y-79097142D01*
X178490000Y-79001904D01*
X178490000Y-78716190D01*
X178537619Y-78620952D01*
X178585238Y-78573333D01*
X178680476Y-78525714D01*
X178823333Y-78525714D01*
X178918571Y-78573333D01*
X178966190Y-78620952D01*
X179013809Y-78716190D01*
X179013809Y-79001904D01*
X178966190Y-79097142D01*
X178918571Y-79144761D01*
X178823333Y-79192380D01*
X178680476Y-79192380D01*
X179442380Y-79192380D02*
X179442380Y-78525714D01*
X179442380Y-78716190D02*
X179490000Y-78620952D01*
X179537619Y-78573333D01*
X179632857Y-78525714D01*
X179728095Y-78525714D01*
X167640000Y-78192380D02*
X167640000Y-78430476D01*
X167401904Y-78335238D02*
X167640000Y-78430476D01*
X167878095Y-78335238D01*
X167497142Y-78620952D02*
X167640000Y-78430476D01*
X167782857Y-78620952D01*
%TO.C,J3*%
X281146666Y-88242380D02*
X281146666Y-88956666D01*
X281099047Y-89099523D01*
X281003809Y-89194761D01*
X280860952Y-89242380D01*
X280765714Y-89242380D01*
X281527619Y-88242380D02*
X282146666Y-88242380D01*
X281813333Y-88623333D01*
X281956190Y-88623333D01*
X282051428Y-88670952D01*
X282099047Y-88718571D01*
X282146666Y-88813809D01*
X282146666Y-89051904D01*
X282099047Y-89147142D01*
X282051428Y-89194761D01*
X281956190Y-89242380D01*
X281670476Y-89242380D01*
X281575238Y-89194761D01*
X281527619Y-89147142D01*
%TO.C,DUART1*%
X275558571Y-103272380D02*
X275558571Y-102272380D01*
X275796666Y-102272380D01*
X275939523Y-102320000D01*
X276034761Y-102415238D01*
X276082380Y-102510476D01*
X276130000Y-102700952D01*
X276130000Y-102843809D01*
X276082380Y-103034285D01*
X276034761Y-103129523D01*
X275939523Y-103224761D01*
X275796666Y-103272380D01*
X275558571Y-103272380D01*
X276558571Y-102272380D02*
X276558571Y-103081904D01*
X276606190Y-103177142D01*
X276653809Y-103224761D01*
X276749047Y-103272380D01*
X276939523Y-103272380D01*
X277034761Y-103224761D01*
X277082380Y-103177142D01*
X277130000Y-103081904D01*
X277130000Y-102272380D01*
X277558571Y-102986666D02*
X278034761Y-102986666D01*
X277463333Y-103272380D02*
X277796666Y-102272380D01*
X278130000Y-103272380D01*
X279034761Y-103272380D02*
X278701428Y-102796190D01*
X278463333Y-103272380D02*
X278463333Y-102272380D01*
X278844285Y-102272380D01*
X278939523Y-102320000D01*
X278987142Y-102367619D01*
X279034761Y-102462857D01*
X279034761Y-102605714D01*
X278987142Y-102700952D01*
X278939523Y-102748571D01*
X278844285Y-102796190D01*
X278463333Y-102796190D01*
X279320476Y-102272380D02*
X279891904Y-102272380D01*
X279606190Y-103272380D02*
X279606190Y-102272380D01*
X280749047Y-103272380D02*
X280177619Y-103272380D01*
X280463333Y-103272380D02*
X280463333Y-102272380D01*
X280368095Y-102415238D01*
X280272857Y-102510476D01*
X280177619Y-102558095D01*
%TO.C,DS1813*%
D17*
X255437603Y-145292482D02*
X255437603Y-144977521D01*
X255512593Y-144977521D01*
X255557588Y-144992519D01*
X255587584Y-145022515D01*
X255602582Y-145052512D01*
X255617580Y-145112504D01*
X255617580Y-145157499D01*
X255602582Y-145217491D01*
X255587584Y-145247487D01*
X255557588Y-145277484D01*
X255512593Y-145292482D01*
X255437603Y-145292482D01*
X255737565Y-145277484D02*
X255782560Y-145292482D01*
X255857551Y-145292482D01*
X255887547Y-145277484D01*
X255902545Y-145262486D01*
X255917543Y-145232489D01*
X255917543Y-145202493D01*
X255902545Y-145172497D01*
X255887547Y-145157499D01*
X255857551Y-145142500D01*
X255797558Y-145127502D01*
X255767562Y-145112504D01*
X255752564Y-145097506D01*
X255737565Y-145067510D01*
X255737565Y-145037513D01*
X255752564Y-145007517D01*
X255767562Y-144992519D01*
X255797558Y-144977521D01*
X255872549Y-144977521D01*
X255917543Y-144992519D01*
X256217506Y-145292482D02*
X256037528Y-145292482D01*
X256127517Y-145292482D02*
X256127517Y-144977521D01*
X256097521Y-145022515D01*
X256067525Y-145052512D01*
X256037528Y-145067510D01*
X256397484Y-145112504D02*
X256367487Y-145097506D01*
X256352489Y-145082508D01*
X256337491Y-145052512D01*
X256337491Y-145037513D01*
X256352489Y-145007517D01*
X256367487Y-144992519D01*
X256397484Y-144977521D01*
X256457476Y-144977521D01*
X256487473Y-144992519D01*
X256502471Y-145007517D01*
X256517469Y-145037513D01*
X256517469Y-145052512D01*
X256502471Y-145082508D01*
X256487473Y-145097506D01*
X256457476Y-145112504D01*
X256397484Y-145112504D01*
X256367487Y-145127502D01*
X256352489Y-145142500D01*
X256337491Y-145172497D01*
X256337491Y-145232489D01*
X256352489Y-145262486D01*
X256367487Y-145277484D01*
X256397484Y-145292482D01*
X256457476Y-145292482D01*
X256487473Y-145277484D01*
X256502471Y-145262486D01*
X256517469Y-145232489D01*
X256517469Y-145172497D01*
X256502471Y-145142500D01*
X256487473Y-145127502D01*
X256457476Y-145112504D01*
X256817432Y-145292482D02*
X256637454Y-145292482D01*
X256727443Y-145292482D02*
X256727443Y-144977521D01*
X256697447Y-145022515D01*
X256667450Y-145052512D01*
X256637454Y-145067510D01*
X256922419Y-144977521D02*
X257117395Y-144977521D01*
X257012408Y-145097506D01*
X257057402Y-145097506D01*
X257087398Y-145112504D01*
X257102396Y-145127502D01*
X257117395Y-145157499D01*
X257117395Y-145232489D01*
X257102396Y-145262486D01*
X257087398Y-145277484D01*
X257057402Y-145292482D01*
X256967413Y-145292482D01*
X256937417Y-145277484D01*
X256922419Y-145262486D01*
D10*
%TO.C,D_CLK1*%
X293617732Y-110837728D02*
X293617732Y-109434523D01*
X293951829Y-109434523D01*
X294152287Y-109501342D01*
X294285925Y-109634981D01*
X294352745Y-109768619D01*
X294419564Y-110035896D01*
X294419564Y-110236354D01*
X294352745Y-110503631D01*
X294285925Y-110637270D01*
X294152287Y-110770908D01*
X293951829Y-110837728D01*
X293617732Y-110837728D01*
X294686841Y-110971366D02*
X295755950Y-110971366D01*
X296891877Y-110704089D02*
X296825058Y-110770908D01*
X296624600Y-110837728D01*
X296490962Y-110837728D01*
X296290504Y-110770908D01*
X296156865Y-110637270D01*
X296090046Y-110503631D01*
X296023227Y-110236354D01*
X296023227Y-110035896D01*
X296090046Y-109768619D01*
X296156865Y-109634981D01*
X296290504Y-109501342D01*
X296490962Y-109434523D01*
X296624600Y-109434523D01*
X296825058Y-109501342D01*
X296891877Y-109568161D01*
X298161444Y-110837728D02*
X297493251Y-110837728D01*
X297493251Y-109434523D01*
X298629179Y-110837728D02*
X298629179Y-109434523D01*
X299431010Y-110837728D02*
X298829637Y-110035896D01*
X299431010Y-109434523D02*
X298629179Y-110236354D01*
X300767396Y-110837728D02*
X299965565Y-110837728D01*
X300366480Y-110837728D02*
X300366480Y-109434523D01*
X300232842Y-109634981D01*
X300099203Y-109768619D01*
X299965565Y-109835438D01*
%TO.C,D17*%
D16*
X273097857Y-145354523D02*
X273097857Y-144084523D01*
X273400238Y-144084523D01*
X273581666Y-144145000D01*
X273702619Y-144265952D01*
X273763095Y-144386904D01*
X273823571Y-144628809D01*
X273823571Y-144810238D01*
X273763095Y-145052142D01*
X273702619Y-145173095D01*
X273581666Y-145294047D01*
X273400238Y-145354523D01*
X273097857Y-145354523D01*
X275033095Y-145354523D02*
X274307380Y-145354523D01*
X274670238Y-145354523D02*
X274670238Y-144084523D01*
X274549285Y-144265952D01*
X274428333Y-144386904D01*
X274307380Y-144447380D01*
X275456428Y-144084523D02*
X276303095Y-144084523D01*
X275758809Y-145354523D01*
%TO.C,D16*%
X273097857Y-149164523D02*
X273097857Y-147894523D01*
X273400238Y-147894523D01*
X273581666Y-147955000D01*
X273702619Y-148075952D01*
X273763095Y-148196904D01*
X273823571Y-148438809D01*
X273823571Y-148620238D01*
X273763095Y-148862142D01*
X273702619Y-148983095D01*
X273581666Y-149104047D01*
X273400238Y-149164523D01*
X273097857Y-149164523D01*
X275033095Y-149164523D02*
X274307380Y-149164523D01*
X274670238Y-149164523D02*
X274670238Y-147894523D01*
X274549285Y-148075952D01*
X274428333Y-148196904D01*
X274307380Y-148257380D01*
X276121666Y-147894523D02*
X275879761Y-147894523D01*
X275758809Y-147955000D01*
X275698333Y-148015476D01*
X275577380Y-148196904D01*
X275516904Y-148438809D01*
X275516904Y-148922619D01*
X275577380Y-149043571D01*
X275637857Y-149104047D01*
X275758809Y-149164523D01*
X276000714Y-149164523D01*
X276121666Y-149104047D01*
X276182142Y-149043571D01*
X276242619Y-148922619D01*
X276242619Y-148620238D01*
X276182142Y-148499285D01*
X276121666Y-148438809D01*
X276000714Y-148378333D01*
X275758809Y-148378333D01*
X275637857Y-148438809D01*
X275577380Y-148499285D01*
X275516904Y-148620238D01*
%TO.C,D14*%
X215627857Y-158054523D02*
X215627857Y-156784523D01*
X215930238Y-156784523D01*
X216111666Y-156845000D01*
X216232619Y-156965952D01*
X216293095Y-157086904D01*
X216353571Y-157328809D01*
X216353571Y-157510238D01*
X216293095Y-157752142D01*
X216232619Y-157873095D01*
X216111666Y-157994047D01*
X215930238Y-158054523D01*
X215627857Y-158054523D01*
X217563095Y-158054523D02*
X216837380Y-158054523D01*
X217200238Y-158054523D02*
X217200238Y-156784523D01*
X217079285Y-156965952D01*
X216958333Y-157086904D01*
X216837380Y-157147380D01*
X218651666Y-157207857D02*
X218651666Y-158054523D01*
X218349285Y-156724047D02*
X218046904Y-157631190D01*
X218833095Y-157631190D01*
%TO.C,D13*%
X215627857Y-163134523D02*
X215627857Y-161864523D01*
X215930238Y-161864523D01*
X216111666Y-161925000D01*
X216232619Y-162045952D01*
X216293095Y-162166904D01*
X216353571Y-162408809D01*
X216353571Y-162590238D01*
X216293095Y-162832142D01*
X216232619Y-162953095D01*
X216111666Y-163074047D01*
X215930238Y-163134523D01*
X215627857Y-163134523D01*
X217563095Y-163134523D02*
X216837380Y-163134523D01*
X217200238Y-163134523D02*
X217200238Y-161864523D01*
X217079285Y-162045952D01*
X216958333Y-162166904D01*
X216837380Y-162227380D01*
X217986428Y-161864523D02*
X218772619Y-161864523D01*
X218349285Y-162348333D01*
X218530714Y-162348333D01*
X218651666Y-162408809D01*
X218712142Y-162469285D01*
X218772619Y-162590238D01*
X218772619Y-162892619D01*
X218712142Y-163013571D01*
X218651666Y-163074047D01*
X218530714Y-163134523D01*
X218167857Y-163134523D01*
X218046904Y-163074047D01*
X217986428Y-163013571D01*
%TO.C,D12*%
X215627857Y-168214523D02*
X215627857Y-166944523D01*
X215930238Y-166944523D01*
X216111666Y-167005000D01*
X216232619Y-167125952D01*
X216293095Y-167246904D01*
X216353571Y-167488809D01*
X216353571Y-167670238D01*
X216293095Y-167912142D01*
X216232619Y-168033095D01*
X216111666Y-168154047D01*
X215930238Y-168214523D01*
X215627857Y-168214523D01*
X217563095Y-168214523D02*
X216837380Y-168214523D01*
X217200238Y-168214523D02*
X217200238Y-166944523D01*
X217079285Y-167125952D01*
X216958333Y-167246904D01*
X216837380Y-167307380D01*
X218046904Y-167065476D02*
X218107380Y-167005000D01*
X218228333Y-166944523D01*
X218530714Y-166944523D01*
X218651666Y-167005000D01*
X218712142Y-167065476D01*
X218772619Y-167186428D01*
X218772619Y-167307380D01*
X218712142Y-167488809D01*
X217986428Y-168214523D01*
X218772619Y-168214523D01*
%TO.C,D11*%
X159747857Y-154244523D02*
X159747857Y-152974523D01*
X160050238Y-152974523D01*
X160231666Y-153035000D01*
X160352619Y-153155952D01*
X160413095Y-153276904D01*
X160473571Y-153518809D01*
X160473571Y-153700238D01*
X160413095Y-153942142D01*
X160352619Y-154063095D01*
X160231666Y-154184047D01*
X160050238Y-154244523D01*
X159747857Y-154244523D01*
X161683095Y-154244523D02*
X160957380Y-154244523D01*
X161320238Y-154244523D02*
X161320238Y-152974523D01*
X161199285Y-153155952D01*
X161078333Y-153276904D01*
X160957380Y-153337380D01*
X162892619Y-154244523D02*
X162166904Y-154244523D01*
X162529761Y-154244523D02*
X162529761Y-152974523D01*
X162408809Y-153155952D01*
X162287857Y-153276904D01*
X162166904Y-153337380D01*
%TO.C,D10*%
X159747857Y-149164523D02*
X159747857Y-147894523D01*
X160050238Y-147894523D01*
X160231666Y-147955000D01*
X160352619Y-148075952D01*
X160413095Y-148196904D01*
X160473571Y-148438809D01*
X160473571Y-148620238D01*
X160413095Y-148862142D01*
X160352619Y-148983095D01*
X160231666Y-149104047D01*
X160050238Y-149164523D01*
X159747857Y-149164523D01*
X161683095Y-149164523D02*
X160957380Y-149164523D01*
X161320238Y-149164523D02*
X161320238Y-147894523D01*
X161199285Y-148075952D01*
X161078333Y-148196904D01*
X160957380Y-148257380D01*
X162469285Y-147894523D02*
X162590238Y-147894523D01*
X162711190Y-147955000D01*
X162771666Y-148015476D01*
X162832142Y-148136428D01*
X162892619Y-148378333D01*
X162892619Y-148680714D01*
X162832142Y-148922619D01*
X162771666Y-149043571D01*
X162711190Y-149104047D01*
X162590238Y-149164523D01*
X162469285Y-149164523D01*
X162348333Y-149104047D01*
X162287857Y-149043571D01*
X162227380Y-148922619D01*
X162166904Y-148680714D01*
X162166904Y-148378333D01*
X162227380Y-148136428D01*
X162287857Y-148015476D01*
X162348333Y-147955000D01*
X162469285Y-147894523D01*
%TO.C,D9*%
X160352619Y-164404523D02*
X160352619Y-163134523D01*
X160655000Y-163134523D01*
X160836428Y-163195000D01*
X160957380Y-163315952D01*
X161017857Y-163436904D01*
X161078333Y-163678809D01*
X161078333Y-163860238D01*
X161017857Y-164102142D01*
X160957380Y-164223095D01*
X160836428Y-164344047D01*
X160655000Y-164404523D01*
X160352619Y-164404523D01*
X161683095Y-164404523D02*
X161925000Y-164404523D01*
X162045952Y-164344047D01*
X162106428Y-164283571D01*
X162227380Y-164102142D01*
X162287857Y-163860238D01*
X162287857Y-163376428D01*
X162227380Y-163255476D01*
X162166904Y-163195000D01*
X162045952Y-163134523D01*
X161804047Y-163134523D01*
X161683095Y-163195000D01*
X161622619Y-163255476D01*
X161562142Y-163376428D01*
X161562142Y-163678809D01*
X161622619Y-163799761D01*
X161683095Y-163860238D01*
X161804047Y-163920714D01*
X162045952Y-163920714D01*
X162166904Y-163860238D01*
X162227380Y-163799761D01*
X162287857Y-163678809D01*
%TO.C,D8*%
X160352619Y-139004523D02*
X160352619Y-137734523D01*
X160655000Y-137734523D01*
X160836428Y-137795000D01*
X160957380Y-137915952D01*
X161017857Y-138036904D01*
X161078333Y-138278809D01*
X161078333Y-138460238D01*
X161017857Y-138702142D01*
X160957380Y-138823095D01*
X160836428Y-138944047D01*
X160655000Y-139004523D01*
X160352619Y-139004523D01*
X161804047Y-138278809D02*
X161683095Y-138218333D01*
X161622619Y-138157857D01*
X161562142Y-138036904D01*
X161562142Y-137976428D01*
X161622619Y-137855476D01*
X161683095Y-137795000D01*
X161804047Y-137734523D01*
X162045952Y-137734523D01*
X162166904Y-137795000D01*
X162227380Y-137855476D01*
X162287857Y-137976428D01*
X162287857Y-138036904D01*
X162227380Y-138157857D01*
X162166904Y-138218333D01*
X162045952Y-138278809D01*
X161804047Y-138278809D01*
X161683095Y-138339285D01*
X161622619Y-138399761D01*
X161562142Y-138520714D01*
X161562142Y-138762619D01*
X161622619Y-138883571D01*
X161683095Y-138944047D01*
X161804047Y-139004523D01*
X162045952Y-139004523D01*
X162166904Y-138944047D01*
X162227380Y-138883571D01*
X162287857Y-138762619D01*
X162287857Y-138520714D01*
X162227380Y-138399761D01*
X162166904Y-138339285D01*
X162045952Y-138278809D01*
%TO.C,D7*%
X160352619Y-133924523D02*
X160352619Y-132654523D01*
X160655000Y-132654523D01*
X160836428Y-132715000D01*
X160957380Y-132835952D01*
X161017857Y-132956904D01*
X161078333Y-133198809D01*
X161078333Y-133380238D01*
X161017857Y-133622142D01*
X160957380Y-133743095D01*
X160836428Y-133864047D01*
X160655000Y-133924523D01*
X160352619Y-133924523D01*
X161501666Y-132654523D02*
X162348333Y-132654523D01*
X161804047Y-133924523D01*
%TO.C,D6*%
X160352619Y-144084523D02*
X160352619Y-142814523D01*
X160655000Y-142814523D01*
X160836428Y-142875000D01*
X160957380Y-142995952D01*
X161017857Y-143116904D01*
X161078333Y-143358809D01*
X161078333Y-143540238D01*
X161017857Y-143782142D01*
X160957380Y-143903095D01*
X160836428Y-144024047D01*
X160655000Y-144084523D01*
X160352619Y-144084523D01*
X162166904Y-142814523D02*
X161925000Y-142814523D01*
X161804047Y-142875000D01*
X161743571Y-142935476D01*
X161622619Y-143116904D01*
X161562142Y-143358809D01*
X161562142Y-143842619D01*
X161622619Y-143963571D01*
X161683095Y-144024047D01*
X161804047Y-144084523D01*
X162045952Y-144084523D01*
X162166904Y-144024047D01*
X162227380Y-143963571D01*
X162287857Y-143842619D01*
X162287857Y-143540238D01*
X162227380Y-143419285D01*
X162166904Y-143358809D01*
X162045952Y-143298333D01*
X161804047Y-143298333D01*
X161683095Y-143358809D01*
X161622619Y-143419285D01*
X161562142Y-143540238D01*
%TO.C,D5*%
X160352619Y-128844523D02*
X160352619Y-127574523D01*
X160655000Y-127574523D01*
X160836428Y-127635000D01*
X160957380Y-127755952D01*
X161017857Y-127876904D01*
X161078333Y-128118809D01*
X161078333Y-128300238D01*
X161017857Y-128542142D01*
X160957380Y-128663095D01*
X160836428Y-128784047D01*
X160655000Y-128844523D01*
X160352619Y-128844523D01*
X162227380Y-127574523D02*
X161622619Y-127574523D01*
X161562142Y-128179285D01*
X161622619Y-128118809D01*
X161743571Y-128058333D01*
X162045952Y-128058333D01*
X162166904Y-128118809D01*
X162227380Y-128179285D01*
X162287857Y-128300238D01*
X162287857Y-128602619D01*
X162227380Y-128723571D01*
X162166904Y-128784047D01*
X162045952Y-128844523D01*
X161743571Y-128844523D01*
X161622619Y-128784047D01*
X161562142Y-128723571D01*
%TO.C,D4*%
X160352619Y-159324523D02*
X160352619Y-158054523D01*
X160655000Y-158054523D01*
X160836428Y-158115000D01*
X160957380Y-158235952D01*
X161017857Y-158356904D01*
X161078333Y-158598809D01*
X161078333Y-158780238D01*
X161017857Y-159022142D01*
X160957380Y-159143095D01*
X160836428Y-159264047D01*
X160655000Y-159324523D01*
X160352619Y-159324523D01*
X162166904Y-158477857D02*
X162166904Y-159324523D01*
X161864523Y-157994047D02*
X161562142Y-158901190D01*
X162348333Y-158901190D01*
%TO.C,CPU_CLK1*%
D10*
X258692221Y-152613287D02*
X258625394Y-152680114D01*
X258424915Y-152746940D01*
X258291262Y-152746940D01*
X258090783Y-152680114D01*
X257957131Y-152546461D01*
X257890304Y-152412808D01*
X257823478Y-152145503D01*
X257823478Y-151945024D01*
X257890304Y-151677718D01*
X257957131Y-151544065D01*
X258090783Y-151410413D01*
X258291262Y-151343586D01*
X258424915Y-151343586D01*
X258625394Y-151410413D01*
X258692221Y-151477239D01*
X259293658Y-152746940D02*
X259293658Y-151343586D01*
X259828269Y-151343586D01*
X259961922Y-151410413D01*
X260028748Y-151477239D01*
X260095575Y-151610892D01*
X260095575Y-151811371D01*
X260028748Y-151945024D01*
X259961922Y-152011850D01*
X259828269Y-152078676D01*
X259293658Y-152078676D01*
X260697012Y-151343586D02*
X260697012Y-152479635D01*
X260763839Y-152613287D01*
X260830665Y-152680114D01*
X260964318Y-152746940D01*
X261231623Y-152746940D01*
X261365276Y-152680114D01*
X261432102Y-152613287D01*
X261498929Y-152479635D01*
X261498929Y-151343586D01*
X261833061Y-152880593D02*
X262902283Y-152880593D01*
X264038331Y-152613287D02*
X263971505Y-152680114D01*
X263771026Y-152746940D01*
X263637373Y-152746940D01*
X263436894Y-152680114D01*
X263303241Y-152546461D01*
X263236415Y-152412808D01*
X263169588Y-152145503D01*
X263169588Y-151945024D01*
X263236415Y-151677718D01*
X263303241Y-151544065D01*
X263436894Y-151410413D01*
X263637373Y-151343586D01*
X263771026Y-151343586D01*
X263971505Y-151410413D01*
X264038331Y-151477239D01*
X265308032Y-152746940D02*
X264639769Y-152746940D01*
X264639769Y-151343586D01*
X265775817Y-152746940D02*
X265775817Y-151343586D01*
X266577734Y-152746940D02*
X265976296Y-151945024D01*
X266577734Y-151343586D02*
X265775817Y-152145503D01*
X267914261Y-152746940D02*
X267112345Y-152746940D01*
X267513303Y-152746940D02*
X267513303Y-151343586D01*
X267379650Y-151544065D01*
X267245997Y-151677718D01*
X267112345Y-151744544D01*
%TO.C,CPU1*%
X237569523Y-134962142D02*
X237521904Y-135009761D01*
X237379047Y-135057380D01*
X237283809Y-135057380D01*
X237140952Y-135009761D01*
X237045714Y-134914523D01*
X236998095Y-134819285D01*
X236950476Y-134628809D01*
X236950476Y-134485952D01*
X236998095Y-134295476D01*
X237045714Y-134200238D01*
X237140952Y-134105000D01*
X237283809Y-134057380D01*
X237379047Y-134057380D01*
X237521904Y-134105000D01*
X237569523Y-134152619D01*
X237998095Y-135057380D02*
X237998095Y-134057380D01*
X238379047Y-134057380D01*
X238474285Y-134105000D01*
X238521904Y-134152619D01*
X238569523Y-134247857D01*
X238569523Y-134390714D01*
X238521904Y-134485952D01*
X238474285Y-134533571D01*
X238379047Y-134581190D01*
X237998095Y-134581190D01*
X238998095Y-134057380D02*
X238998095Y-134866904D01*
X239045714Y-134962142D01*
X239093333Y-135009761D01*
X239188571Y-135057380D01*
X239379047Y-135057380D01*
X239474285Y-135009761D01*
X239521904Y-134962142D01*
X239569523Y-134866904D01*
X239569523Y-134057380D01*
X240569523Y-135057380D02*
X239998095Y-135057380D01*
X240283809Y-135057380D02*
X240283809Y-134057380D01*
X240188571Y-134200238D01*
X240093333Y-134295476D01*
X239998095Y-134343095D01*
%TO.C,CPLD1*%
X174958571Y-84217142D02*
X174910952Y-84264761D01*
X174768095Y-84312380D01*
X174672857Y-84312380D01*
X174530000Y-84264761D01*
X174434761Y-84169523D01*
X174387142Y-84074285D01*
X174339523Y-83883809D01*
X174339523Y-83740952D01*
X174387142Y-83550476D01*
X174434761Y-83455238D01*
X174530000Y-83360000D01*
X174672857Y-83312380D01*
X174768095Y-83312380D01*
X174910952Y-83360000D01*
X174958571Y-83407619D01*
X175387142Y-84312380D02*
X175387142Y-83312380D01*
X175768095Y-83312380D01*
X175863333Y-83360000D01*
X175910952Y-83407619D01*
X175958571Y-83502857D01*
X175958571Y-83645714D01*
X175910952Y-83740952D01*
X175863333Y-83788571D01*
X175768095Y-83836190D01*
X175387142Y-83836190D01*
X176863333Y-84312380D02*
X176387142Y-84312380D01*
X176387142Y-83312380D01*
X177196666Y-84312380D02*
X177196666Y-83312380D01*
X177434761Y-83312380D01*
X177577619Y-83360000D01*
X177672857Y-83455238D01*
X177720476Y-83550476D01*
X177768095Y-83740952D01*
X177768095Y-83883809D01*
X177720476Y-84074285D01*
X177672857Y-84169523D01*
X177577619Y-84264761D01*
X177434761Y-84312380D01*
X177196666Y-84312380D01*
X178720476Y-84312380D02*
X178149047Y-84312380D01*
X178434761Y-84312380D02*
X178434761Y-83312380D01*
X178339523Y-83455238D01*
X178244285Y-83550476D01*
X178149047Y-83598095D01*
%TO.C,Con1*%
X216047142Y-79811428D02*
X216094761Y-79859047D01*
X216142380Y-80001904D01*
X216142380Y-80097142D01*
X216094761Y-80240000D01*
X215999523Y-80335238D01*
X215904285Y-80382857D01*
X215713809Y-80430476D01*
X215570952Y-80430476D01*
X215380476Y-80382857D01*
X215285238Y-80335238D01*
X215190000Y-80240000D01*
X215142380Y-80097142D01*
X215142380Y-80001904D01*
X215190000Y-79859047D01*
X215237619Y-79811428D01*
X216142380Y-79240000D02*
X216094761Y-79335238D01*
X216047142Y-79382857D01*
X215951904Y-79430476D01*
X215666190Y-79430476D01*
X215570952Y-79382857D01*
X215523333Y-79335238D01*
X215475714Y-79240000D01*
X215475714Y-79097142D01*
X215523333Y-79001904D01*
X215570952Y-78954285D01*
X215666190Y-78906666D01*
X215951904Y-78906666D01*
X216047142Y-78954285D01*
X216094761Y-79001904D01*
X216142380Y-79097142D01*
X216142380Y-79240000D01*
X215475714Y-78478095D02*
X216142380Y-78478095D01*
X215570952Y-78478095D02*
X215523333Y-78430476D01*
X215475714Y-78335238D01*
X215475714Y-78192380D01*
X215523333Y-78097142D01*
X215618571Y-78049523D01*
X216142380Y-78049523D01*
X216142380Y-77049523D02*
X216142380Y-77620952D01*
X216142380Y-77335238D02*
X215142380Y-77335238D01*
X215285238Y-77430476D01*
X215380476Y-77525714D01*
X215428095Y-77620952D01*
%TO.C,C21*%
X223877142Y-125475857D02*
X223924761Y-125523476D01*
X223972380Y-125666333D01*
X223972380Y-125761571D01*
X223924761Y-125904428D01*
X223829523Y-125999666D01*
X223734285Y-126047285D01*
X223543809Y-126094904D01*
X223400952Y-126094904D01*
X223210476Y-126047285D01*
X223115238Y-125999666D01*
X223020000Y-125904428D01*
X222972380Y-125761571D01*
X222972380Y-125666333D01*
X223020000Y-125523476D01*
X223067619Y-125475857D01*
X223067619Y-125094904D02*
X223020000Y-125047285D01*
X222972380Y-124952047D01*
X222972380Y-124713952D01*
X223020000Y-124618714D01*
X223067619Y-124571095D01*
X223162857Y-124523476D01*
X223258095Y-124523476D01*
X223400952Y-124571095D01*
X223972380Y-125142523D01*
X223972380Y-124523476D01*
X223972380Y-123571095D02*
X223972380Y-124142523D01*
X223972380Y-123856809D02*
X222972380Y-123856809D01*
X223115238Y-123952047D01*
X223210476Y-124047285D01*
X223258095Y-124142523D01*
X223972380Y-127213952D02*
X223972380Y-127785380D01*
X223972380Y-127499666D02*
X222972380Y-127499666D01*
X223115238Y-127594904D01*
X223210476Y-127690142D01*
X223258095Y-127785380D01*
X223305714Y-126356809D02*
X223972380Y-126356809D01*
X223305714Y-126785380D02*
X223829523Y-126785380D01*
X223924761Y-126737761D01*
X223972380Y-126642523D01*
X223972380Y-126499666D01*
X223924761Y-126404428D01*
X223877142Y-126356809D01*
X223448571Y-125547285D02*
X223448571Y-125880619D01*
X223972380Y-125880619D02*
X222972380Y-125880619D01*
X222972380Y-125404428D01*
X223877142Y-123690142D02*
X223924761Y-123737761D01*
X223972380Y-123880619D01*
X223972380Y-123975857D01*
X223924761Y-124118714D01*
X223829523Y-124213952D01*
X223734285Y-124261571D01*
X223543809Y-124309190D01*
X223400952Y-124309190D01*
X223210476Y-124261571D01*
X223115238Y-124213952D01*
X223020000Y-124118714D01*
X222972380Y-123975857D01*
X222972380Y-123880619D01*
X223020000Y-123737761D01*
X223067619Y-123690142D01*
X223972380Y-122833000D02*
X223448571Y-122833000D01*
X223353333Y-122880619D01*
X223305714Y-122975857D01*
X223305714Y-123166333D01*
X223353333Y-123261571D01*
X223924761Y-122833000D02*
X223972380Y-122928238D01*
X223972380Y-123166333D01*
X223924761Y-123261571D01*
X223829523Y-123309190D01*
X223734285Y-123309190D01*
X223639047Y-123261571D01*
X223591428Y-123166333D01*
X223591428Y-122928238D01*
X223543809Y-122833000D01*
X223305714Y-122356809D02*
X224305714Y-122356809D01*
X223353333Y-122356809D02*
X223305714Y-122261571D01*
X223305714Y-122071095D01*
X223353333Y-121975857D01*
X223400952Y-121928238D01*
X223496190Y-121880619D01*
X223781904Y-121880619D01*
X223877142Y-121928238D01*
X223924761Y-121975857D01*
X223972380Y-122071095D01*
X223972380Y-122261571D01*
X223924761Y-122356809D01*
X222972380Y-124833000D02*
X223210476Y-124833000D01*
X223115238Y-125071095D02*
X223210476Y-124833000D01*
X223115238Y-124594904D01*
X223400952Y-124975857D02*
X223210476Y-124833000D01*
X223400952Y-124690142D01*
%TO.C,C20*%
X204827142Y-125475857D02*
X204874761Y-125523476D01*
X204922380Y-125666333D01*
X204922380Y-125761571D01*
X204874761Y-125904428D01*
X204779523Y-125999666D01*
X204684285Y-126047285D01*
X204493809Y-126094904D01*
X204350952Y-126094904D01*
X204160476Y-126047285D01*
X204065238Y-125999666D01*
X203970000Y-125904428D01*
X203922380Y-125761571D01*
X203922380Y-125666333D01*
X203970000Y-125523476D01*
X204017619Y-125475857D01*
X204017619Y-125094904D02*
X203970000Y-125047285D01*
X203922380Y-124952047D01*
X203922380Y-124713952D01*
X203970000Y-124618714D01*
X204017619Y-124571095D01*
X204112857Y-124523476D01*
X204208095Y-124523476D01*
X204350952Y-124571095D01*
X204922380Y-125142523D01*
X204922380Y-124523476D01*
X203922380Y-123904428D02*
X203922380Y-123809190D01*
X203970000Y-123713952D01*
X204017619Y-123666333D01*
X204112857Y-123618714D01*
X204303333Y-123571095D01*
X204541428Y-123571095D01*
X204731904Y-123618714D01*
X204827142Y-123666333D01*
X204874761Y-123713952D01*
X204922380Y-123809190D01*
X204922380Y-123904428D01*
X204874761Y-123999666D01*
X204827142Y-124047285D01*
X204731904Y-124094904D01*
X204541428Y-124142523D01*
X204303333Y-124142523D01*
X204112857Y-124094904D01*
X204017619Y-124047285D01*
X203970000Y-123999666D01*
X203922380Y-123904428D01*
X204922380Y-127213952D02*
X204922380Y-127785380D01*
X204922380Y-127499666D02*
X203922380Y-127499666D01*
X204065238Y-127594904D01*
X204160476Y-127690142D01*
X204208095Y-127785380D01*
X204255714Y-126356809D02*
X204922380Y-126356809D01*
X204255714Y-126785380D02*
X204779523Y-126785380D01*
X204874761Y-126737761D01*
X204922380Y-126642523D01*
X204922380Y-126499666D01*
X204874761Y-126404428D01*
X204827142Y-126356809D01*
X204398571Y-125547285D02*
X204398571Y-125880619D01*
X204922380Y-125880619D02*
X203922380Y-125880619D01*
X203922380Y-125404428D01*
X204827142Y-123690142D02*
X204874761Y-123737761D01*
X204922380Y-123880619D01*
X204922380Y-123975857D01*
X204874761Y-124118714D01*
X204779523Y-124213952D01*
X204684285Y-124261571D01*
X204493809Y-124309190D01*
X204350952Y-124309190D01*
X204160476Y-124261571D01*
X204065238Y-124213952D01*
X203970000Y-124118714D01*
X203922380Y-123975857D01*
X203922380Y-123880619D01*
X203970000Y-123737761D01*
X204017619Y-123690142D01*
X204922380Y-122833000D02*
X204398571Y-122833000D01*
X204303333Y-122880619D01*
X204255714Y-122975857D01*
X204255714Y-123166333D01*
X204303333Y-123261571D01*
X204874761Y-122833000D02*
X204922380Y-122928238D01*
X204922380Y-123166333D01*
X204874761Y-123261571D01*
X204779523Y-123309190D01*
X204684285Y-123309190D01*
X204589047Y-123261571D01*
X204541428Y-123166333D01*
X204541428Y-122928238D01*
X204493809Y-122833000D01*
X204255714Y-122356809D02*
X205255714Y-122356809D01*
X204303333Y-122356809D02*
X204255714Y-122261571D01*
X204255714Y-122071095D01*
X204303333Y-121975857D01*
X204350952Y-121928238D01*
X204446190Y-121880619D01*
X204731904Y-121880619D01*
X204827142Y-121928238D01*
X204874761Y-121975857D01*
X204922380Y-122071095D01*
X204922380Y-122261571D01*
X204874761Y-122356809D01*
X203922380Y-124833000D02*
X204160476Y-124833000D01*
X204065238Y-125071095D02*
X204160476Y-124833000D01*
X204065238Y-124594904D01*
X204350952Y-124975857D02*
X204160476Y-124833000D01*
X204350952Y-124690142D01*
%TO.C,C19*%
X227687142Y-125475857D02*
X227734761Y-125523476D01*
X227782380Y-125666333D01*
X227782380Y-125761571D01*
X227734761Y-125904428D01*
X227639523Y-125999666D01*
X227544285Y-126047285D01*
X227353809Y-126094904D01*
X227210952Y-126094904D01*
X227020476Y-126047285D01*
X226925238Y-125999666D01*
X226830000Y-125904428D01*
X226782380Y-125761571D01*
X226782380Y-125666333D01*
X226830000Y-125523476D01*
X226877619Y-125475857D01*
X227782380Y-124523476D02*
X227782380Y-125094904D01*
X227782380Y-124809190D02*
X226782380Y-124809190D01*
X226925238Y-124904428D01*
X227020476Y-124999666D01*
X227068095Y-125094904D01*
X227782380Y-124047285D02*
X227782380Y-123856809D01*
X227734761Y-123761571D01*
X227687142Y-123713952D01*
X227544285Y-123618714D01*
X227353809Y-123571095D01*
X226972857Y-123571095D01*
X226877619Y-123618714D01*
X226830000Y-123666333D01*
X226782380Y-123761571D01*
X226782380Y-123952047D01*
X226830000Y-124047285D01*
X226877619Y-124094904D01*
X226972857Y-124142523D01*
X227210952Y-124142523D01*
X227306190Y-124094904D01*
X227353809Y-124047285D01*
X227401428Y-123952047D01*
X227401428Y-123761571D01*
X227353809Y-123666333D01*
X227306190Y-123618714D01*
X227210952Y-123571095D01*
X227782380Y-127213952D02*
X227782380Y-127785380D01*
X227782380Y-127499666D02*
X226782380Y-127499666D01*
X226925238Y-127594904D01*
X227020476Y-127690142D01*
X227068095Y-127785380D01*
X227115714Y-126356809D02*
X227782380Y-126356809D01*
X227115714Y-126785380D02*
X227639523Y-126785380D01*
X227734761Y-126737761D01*
X227782380Y-126642523D01*
X227782380Y-126499666D01*
X227734761Y-126404428D01*
X227687142Y-126356809D01*
X227258571Y-125547285D02*
X227258571Y-125880619D01*
X227782380Y-125880619D02*
X226782380Y-125880619D01*
X226782380Y-125404428D01*
X227687142Y-123690142D02*
X227734761Y-123737761D01*
X227782380Y-123880619D01*
X227782380Y-123975857D01*
X227734761Y-124118714D01*
X227639523Y-124213952D01*
X227544285Y-124261571D01*
X227353809Y-124309190D01*
X227210952Y-124309190D01*
X227020476Y-124261571D01*
X226925238Y-124213952D01*
X226830000Y-124118714D01*
X226782380Y-123975857D01*
X226782380Y-123880619D01*
X226830000Y-123737761D01*
X226877619Y-123690142D01*
X227782380Y-122833000D02*
X227258571Y-122833000D01*
X227163333Y-122880619D01*
X227115714Y-122975857D01*
X227115714Y-123166333D01*
X227163333Y-123261571D01*
X227734761Y-122833000D02*
X227782380Y-122928238D01*
X227782380Y-123166333D01*
X227734761Y-123261571D01*
X227639523Y-123309190D01*
X227544285Y-123309190D01*
X227449047Y-123261571D01*
X227401428Y-123166333D01*
X227401428Y-122928238D01*
X227353809Y-122833000D01*
X227115714Y-122356809D02*
X228115714Y-122356809D01*
X227163333Y-122356809D02*
X227115714Y-122261571D01*
X227115714Y-122071095D01*
X227163333Y-121975857D01*
X227210952Y-121928238D01*
X227306190Y-121880619D01*
X227591904Y-121880619D01*
X227687142Y-121928238D01*
X227734761Y-121975857D01*
X227782380Y-122071095D01*
X227782380Y-122261571D01*
X227734761Y-122356809D01*
X226782380Y-124833000D02*
X227020476Y-124833000D01*
X226925238Y-125071095D02*
X227020476Y-124833000D01*
X226925238Y-124594904D01*
X227210952Y-124975857D02*
X227020476Y-124833000D01*
X227210952Y-124690142D01*
%TO.C,C18*%
X212447142Y-125475857D02*
X212494761Y-125523476D01*
X212542380Y-125666333D01*
X212542380Y-125761571D01*
X212494761Y-125904428D01*
X212399523Y-125999666D01*
X212304285Y-126047285D01*
X212113809Y-126094904D01*
X211970952Y-126094904D01*
X211780476Y-126047285D01*
X211685238Y-125999666D01*
X211590000Y-125904428D01*
X211542380Y-125761571D01*
X211542380Y-125666333D01*
X211590000Y-125523476D01*
X211637619Y-125475857D01*
X212542380Y-124523476D02*
X212542380Y-125094904D01*
X212542380Y-124809190D02*
X211542380Y-124809190D01*
X211685238Y-124904428D01*
X211780476Y-124999666D01*
X211828095Y-125094904D01*
X211970952Y-123952047D02*
X211923333Y-124047285D01*
X211875714Y-124094904D01*
X211780476Y-124142523D01*
X211732857Y-124142523D01*
X211637619Y-124094904D01*
X211590000Y-124047285D01*
X211542380Y-123952047D01*
X211542380Y-123761571D01*
X211590000Y-123666333D01*
X211637619Y-123618714D01*
X211732857Y-123571095D01*
X211780476Y-123571095D01*
X211875714Y-123618714D01*
X211923333Y-123666333D01*
X211970952Y-123761571D01*
X211970952Y-123952047D01*
X212018571Y-124047285D01*
X212066190Y-124094904D01*
X212161428Y-124142523D01*
X212351904Y-124142523D01*
X212447142Y-124094904D01*
X212494761Y-124047285D01*
X212542380Y-123952047D01*
X212542380Y-123761571D01*
X212494761Y-123666333D01*
X212447142Y-123618714D01*
X212351904Y-123571095D01*
X212161428Y-123571095D01*
X212066190Y-123618714D01*
X212018571Y-123666333D01*
X211970952Y-123761571D01*
X212542380Y-127213952D02*
X212542380Y-127785380D01*
X212542380Y-127499666D02*
X211542380Y-127499666D01*
X211685238Y-127594904D01*
X211780476Y-127690142D01*
X211828095Y-127785380D01*
X211875714Y-126356809D02*
X212542380Y-126356809D01*
X211875714Y-126785380D02*
X212399523Y-126785380D01*
X212494761Y-126737761D01*
X212542380Y-126642523D01*
X212542380Y-126499666D01*
X212494761Y-126404428D01*
X212447142Y-126356809D01*
X212018571Y-125547285D02*
X212018571Y-125880619D01*
X212542380Y-125880619D02*
X211542380Y-125880619D01*
X211542380Y-125404428D01*
X212447142Y-123690142D02*
X212494761Y-123737761D01*
X212542380Y-123880619D01*
X212542380Y-123975857D01*
X212494761Y-124118714D01*
X212399523Y-124213952D01*
X212304285Y-124261571D01*
X212113809Y-124309190D01*
X211970952Y-124309190D01*
X211780476Y-124261571D01*
X211685238Y-124213952D01*
X211590000Y-124118714D01*
X211542380Y-123975857D01*
X211542380Y-123880619D01*
X211590000Y-123737761D01*
X211637619Y-123690142D01*
X212542380Y-122833000D02*
X212018571Y-122833000D01*
X211923333Y-122880619D01*
X211875714Y-122975857D01*
X211875714Y-123166333D01*
X211923333Y-123261571D01*
X212494761Y-122833000D02*
X212542380Y-122928238D01*
X212542380Y-123166333D01*
X212494761Y-123261571D01*
X212399523Y-123309190D01*
X212304285Y-123309190D01*
X212209047Y-123261571D01*
X212161428Y-123166333D01*
X212161428Y-122928238D01*
X212113809Y-122833000D01*
X211875714Y-122356809D02*
X212875714Y-122356809D01*
X211923333Y-122356809D02*
X211875714Y-122261571D01*
X211875714Y-122071095D01*
X211923333Y-121975857D01*
X211970952Y-121928238D01*
X212066190Y-121880619D01*
X212351904Y-121880619D01*
X212447142Y-121928238D01*
X212494761Y-121975857D01*
X212542380Y-122071095D01*
X212542380Y-122261571D01*
X212494761Y-122356809D01*
X211542380Y-124833000D02*
X211780476Y-124833000D01*
X211685238Y-125071095D02*
X211780476Y-124833000D01*
X211685238Y-124594904D01*
X211970952Y-124975857D02*
X211780476Y-124833000D01*
X211970952Y-124690142D01*
%TO.C,C17*%
X231497142Y-125475857D02*
X231544761Y-125523476D01*
X231592380Y-125666333D01*
X231592380Y-125761571D01*
X231544761Y-125904428D01*
X231449523Y-125999666D01*
X231354285Y-126047285D01*
X231163809Y-126094904D01*
X231020952Y-126094904D01*
X230830476Y-126047285D01*
X230735238Y-125999666D01*
X230640000Y-125904428D01*
X230592380Y-125761571D01*
X230592380Y-125666333D01*
X230640000Y-125523476D01*
X230687619Y-125475857D01*
X231592380Y-124523476D02*
X231592380Y-125094904D01*
X231592380Y-124809190D02*
X230592380Y-124809190D01*
X230735238Y-124904428D01*
X230830476Y-124999666D01*
X230878095Y-125094904D01*
X230592380Y-124190142D02*
X230592380Y-123523476D01*
X231592380Y-123952047D01*
X231592380Y-127213952D02*
X231592380Y-127785380D01*
X231592380Y-127499666D02*
X230592380Y-127499666D01*
X230735238Y-127594904D01*
X230830476Y-127690142D01*
X230878095Y-127785380D01*
X230925714Y-126356809D02*
X231592380Y-126356809D01*
X230925714Y-126785380D02*
X231449523Y-126785380D01*
X231544761Y-126737761D01*
X231592380Y-126642523D01*
X231592380Y-126499666D01*
X231544761Y-126404428D01*
X231497142Y-126356809D01*
X231068571Y-125547285D02*
X231068571Y-125880619D01*
X231592380Y-125880619D02*
X230592380Y-125880619D01*
X230592380Y-125404428D01*
X231497142Y-123690142D02*
X231544761Y-123737761D01*
X231592380Y-123880619D01*
X231592380Y-123975857D01*
X231544761Y-124118714D01*
X231449523Y-124213952D01*
X231354285Y-124261571D01*
X231163809Y-124309190D01*
X231020952Y-124309190D01*
X230830476Y-124261571D01*
X230735238Y-124213952D01*
X230640000Y-124118714D01*
X230592380Y-123975857D01*
X230592380Y-123880619D01*
X230640000Y-123737761D01*
X230687619Y-123690142D01*
X231592380Y-122833000D02*
X231068571Y-122833000D01*
X230973333Y-122880619D01*
X230925714Y-122975857D01*
X230925714Y-123166333D01*
X230973333Y-123261571D01*
X231544761Y-122833000D02*
X231592380Y-122928238D01*
X231592380Y-123166333D01*
X231544761Y-123261571D01*
X231449523Y-123309190D01*
X231354285Y-123309190D01*
X231259047Y-123261571D01*
X231211428Y-123166333D01*
X231211428Y-122928238D01*
X231163809Y-122833000D01*
X230925714Y-122356809D02*
X231925714Y-122356809D01*
X230973333Y-122356809D02*
X230925714Y-122261571D01*
X230925714Y-122071095D01*
X230973333Y-121975857D01*
X231020952Y-121928238D01*
X231116190Y-121880619D01*
X231401904Y-121880619D01*
X231497142Y-121928238D01*
X231544761Y-121975857D01*
X231592380Y-122071095D01*
X231592380Y-122261571D01*
X231544761Y-122356809D01*
X230592380Y-124833000D02*
X230830476Y-124833000D01*
X230735238Y-125071095D02*
X230830476Y-124833000D01*
X230735238Y-124594904D01*
X231020952Y-124975857D02*
X230830476Y-124833000D01*
X231020952Y-124690142D01*
%TO.C,C16*%
X250547142Y-125475857D02*
X250594761Y-125523476D01*
X250642380Y-125666333D01*
X250642380Y-125761571D01*
X250594761Y-125904428D01*
X250499523Y-125999666D01*
X250404285Y-126047285D01*
X250213809Y-126094904D01*
X250070952Y-126094904D01*
X249880476Y-126047285D01*
X249785238Y-125999666D01*
X249690000Y-125904428D01*
X249642380Y-125761571D01*
X249642380Y-125666333D01*
X249690000Y-125523476D01*
X249737619Y-125475857D01*
X250642380Y-124523476D02*
X250642380Y-125094904D01*
X250642380Y-124809190D02*
X249642380Y-124809190D01*
X249785238Y-124904428D01*
X249880476Y-124999666D01*
X249928095Y-125094904D01*
X249642380Y-123666333D02*
X249642380Y-123856809D01*
X249690000Y-123952047D01*
X249737619Y-123999666D01*
X249880476Y-124094904D01*
X250070952Y-124142523D01*
X250451904Y-124142523D01*
X250547142Y-124094904D01*
X250594761Y-124047285D01*
X250642380Y-123952047D01*
X250642380Y-123761571D01*
X250594761Y-123666333D01*
X250547142Y-123618714D01*
X250451904Y-123571095D01*
X250213809Y-123571095D01*
X250118571Y-123618714D01*
X250070952Y-123666333D01*
X250023333Y-123761571D01*
X250023333Y-123952047D01*
X250070952Y-124047285D01*
X250118571Y-124094904D01*
X250213809Y-124142523D01*
X250642380Y-127213952D02*
X250642380Y-127785380D01*
X250642380Y-127499666D02*
X249642380Y-127499666D01*
X249785238Y-127594904D01*
X249880476Y-127690142D01*
X249928095Y-127785380D01*
X249975714Y-126356809D02*
X250642380Y-126356809D01*
X249975714Y-126785380D02*
X250499523Y-126785380D01*
X250594761Y-126737761D01*
X250642380Y-126642523D01*
X250642380Y-126499666D01*
X250594761Y-126404428D01*
X250547142Y-126356809D01*
X250118571Y-125547285D02*
X250118571Y-125880619D01*
X250642380Y-125880619D02*
X249642380Y-125880619D01*
X249642380Y-125404428D01*
X250547142Y-123690142D02*
X250594761Y-123737761D01*
X250642380Y-123880619D01*
X250642380Y-123975857D01*
X250594761Y-124118714D01*
X250499523Y-124213952D01*
X250404285Y-124261571D01*
X250213809Y-124309190D01*
X250070952Y-124309190D01*
X249880476Y-124261571D01*
X249785238Y-124213952D01*
X249690000Y-124118714D01*
X249642380Y-123975857D01*
X249642380Y-123880619D01*
X249690000Y-123737761D01*
X249737619Y-123690142D01*
X250642380Y-122833000D02*
X250118571Y-122833000D01*
X250023333Y-122880619D01*
X249975714Y-122975857D01*
X249975714Y-123166333D01*
X250023333Y-123261571D01*
X250594761Y-122833000D02*
X250642380Y-122928238D01*
X250642380Y-123166333D01*
X250594761Y-123261571D01*
X250499523Y-123309190D01*
X250404285Y-123309190D01*
X250309047Y-123261571D01*
X250261428Y-123166333D01*
X250261428Y-122928238D01*
X250213809Y-122833000D01*
X249975714Y-122356809D02*
X250975714Y-122356809D01*
X250023333Y-122356809D02*
X249975714Y-122261571D01*
X249975714Y-122071095D01*
X250023333Y-121975857D01*
X250070952Y-121928238D01*
X250166190Y-121880619D01*
X250451904Y-121880619D01*
X250547142Y-121928238D01*
X250594761Y-121975857D01*
X250642380Y-122071095D01*
X250642380Y-122261571D01*
X250594761Y-122356809D01*
X249642380Y-124833000D02*
X249880476Y-124833000D01*
X249785238Y-125071095D02*
X249880476Y-124833000D01*
X249785238Y-124594904D01*
X250070952Y-124975857D02*
X249880476Y-124833000D01*
X250070952Y-124690142D01*
%TO.C,C15*%
X286107142Y-133619857D02*
X286154761Y-133667476D01*
X286202380Y-133810333D01*
X286202380Y-133905571D01*
X286154761Y-134048428D01*
X286059523Y-134143666D01*
X285964285Y-134191285D01*
X285773809Y-134238904D01*
X285630952Y-134238904D01*
X285440476Y-134191285D01*
X285345238Y-134143666D01*
X285250000Y-134048428D01*
X285202380Y-133905571D01*
X285202380Y-133810333D01*
X285250000Y-133667476D01*
X285297619Y-133619857D01*
X286202380Y-132667476D02*
X286202380Y-133238904D01*
X286202380Y-132953190D02*
X285202380Y-132953190D01*
X285345238Y-133048428D01*
X285440476Y-133143666D01*
X285488095Y-133238904D01*
X285202380Y-131762714D02*
X285202380Y-132238904D01*
X285678571Y-132286523D01*
X285630952Y-132238904D01*
X285583333Y-132143666D01*
X285583333Y-131905571D01*
X285630952Y-131810333D01*
X285678571Y-131762714D01*
X285773809Y-131715095D01*
X286011904Y-131715095D01*
X286107142Y-131762714D01*
X286154761Y-131810333D01*
X286202380Y-131905571D01*
X286202380Y-132143666D01*
X286154761Y-132238904D01*
X286107142Y-132286523D01*
X286202380Y-135834142D02*
X286202380Y-136405571D01*
X286202380Y-136119857D02*
X285202380Y-136119857D01*
X285345238Y-136215095D01*
X285440476Y-136310333D01*
X285488095Y-136405571D01*
X285202380Y-135215095D02*
X285202380Y-135119857D01*
X285250000Y-135024619D01*
X285297619Y-134977000D01*
X285392857Y-134929380D01*
X285583333Y-134881761D01*
X285821428Y-134881761D01*
X286011904Y-134929380D01*
X286107142Y-134977000D01*
X286154761Y-135024619D01*
X286202380Y-135119857D01*
X286202380Y-135215095D01*
X286154761Y-135310333D01*
X286107142Y-135357952D01*
X286011904Y-135405571D01*
X285821428Y-135453190D01*
X285583333Y-135453190D01*
X285392857Y-135405571D01*
X285297619Y-135357952D01*
X285250000Y-135310333D01*
X285202380Y-135215095D01*
X285535714Y-134024619D02*
X286202380Y-134024619D01*
X285535714Y-134453190D02*
X286059523Y-134453190D01*
X286154761Y-134405571D01*
X286202380Y-134310333D01*
X286202380Y-134167476D01*
X286154761Y-134072238D01*
X286107142Y-134024619D01*
X285678571Y-133215095D02*
X285678571Y-133548428D01*
X286202380Y-133548428D02*
X285202380Y-133548428D01*
X285202380Y-133072238D01*
X286107142Y-131357952D02*
X286154761Y-131405571D01*
X286202380Y-131548428D01*
X286202380Y-131643666D01*
X286154761Y-131786523D01*
X286059523Y-131881761D01*
X285964285Y-131929380D01*
X285773809Y-131977000D01*
X285630952Y-131977000D01*
X285440476Y-131929380D01*
X285345238Y-131881761D01*
X285250000Y-131786523D01*
X285202380Y-131643666D01*
X285202380Y-131548428D01*
X285250000Y-131405571D01*
X285297619Y-131357952D01*
X286202380Y-130500809D02*
X285678571Y-130500809D01*
X285583333Y-130548428D01*
X285535714Y-130643666D01*
X285535714Y-130834142D01*
X285583333Y-130929380D01*
X286154761Y-130500809D02*
X286202380Y-130596047D01*
X286202380Y-130834142D01*
X286154761Y-130929380D01*
X286059523Y-130977000D01*
X285964285Y-130977000D01*
X285869047Y-130929380D01*
X285821428Y-130834142D01*
X285821428Y-130596047D01*
X285773809Y-130500809D01*
X285535714Y-130024619D02*
X286535714Y-130024619D01*
X285583333Y-130024619D02*
X285535714Y-129929380D01*
X285535714Y-129738904D01*
X285583333Y-129643666D01*
X285630952Y-129596047D01*
X285726190Y-129548428D01*
X286011904Y-129548428D01*
X286107142Y-129596047D01*
X286154761Y-129643666D01*
X286202380Y-129738904D01*
X286202380Y-129929380D01*
X286154761Y-130024619D01*
X285202380Y-132977000D02*
X285440476Y-132977000D01*
X285345238Y-133215095D02*
X285440476Y-132977000D01*
X285345238Y-132738904D01*
X285630952Y-133119857D02*
X285440476Y-132977000D01*
X285630952Y-132834142D01*
%TO.C,C14*%
X216257142Y-125475857D02*
X216304761Y-125523476D01*
X216352380Y-125666333D01*
X216352380Y-125761571D01*
X216304761Y-125904428D01*
X216209523Y-125999666D01*
X216114285Y-126047285D01*
X215923809Y-126094904D01*
X215780952Y-126094904D01*
X215590476Y-126047285D01*
X215495238Y-125999666D01*
X215400000Y-125904428D01*
X215352380Y-125761571D01*
X215352380Y-125666333D01*
X215400000Y-125523476D01*
X215447619Y-125475857D01*
X216352380Y-124523476D02*
X216352380Y-125094904D01*
X216352380Y-124809190D02*
X215352380Y-124809190D01*
X215495238Y-124904428D01*
X215590476Y-124999666D01*
X215638095Y-125094904D01*
X215685714Y-123666333D02*
X216352380Y-123666333D01*
X215304761Y-123904428D02*
X216019047Y-124142523D01*
X216019047Y-123523476D01*
X216352380Y-127213952D02*
X216352380Y-127785380D01*
X216352380Y-127499666D02*
X215352380Y-127499666D01*
X215495238Y-127594904D01*
X215590476Y-127690142D01*
X215638095Y-127785380D01*
X215685714Y-126356809D02*
X216352380Y-126356809D01*
X215685714Y-126785380D02*
X216209523Y-126785380D01*
X216304761Y-126737761D01*
X216352380Y-126642523D01*
X216352380Y-126499666D01*
X216304761Y-126404428D01*
X216257142Y-126356809D01*
X215828571Y-125547285D02*
X215828571Y-125880619D01*
X216352380Y-125880619D02*
X215352380Y-125880619D01*
X215352380Y-125404428D01*
X216257142Y-123690142D02*
X216304761Y-123737761D01*
X216352380Y-123880619D01*
X216352380Y-123975857D01*
X216304761Y-124118714D01*
X216209523Y-124213952D01*
X216114285Y-124261571D01*
X215923809Y-124309190D01*
X215780952Y-124309190D01*
X215590476Y-124261571D01*
X215495238Y-124213952D01*
X215400000Y-124118714D01*
X215352380Y-123975857D01*
X215352380Y-123880619D01*
X215400000Y-123737761D01*
X215447619Y-123690142D01*
X216352380Y-122833000D02*
X215828571Y-122833000D01*
X215733333Y-122880619D01*
X215685714Y-122975857D01*
X215685714Y-123166333D01*
X215733333Y-123261571D01*
X216304761Y-122833000D02*
X216352380Y-122928238D01*
X216352380Y-123166333D01*
X216304761Y-123261571D01*
X216209523Y-123309190D01*
X216114285Y-123309190D01*
X216019047Y-123261571D01*
X215971428Y-123166333D01*
X215971428Y-122928238D01*
X215923809Y-122833000D01*
X215685714Y-122356809D02*
X216685714Y-122356809D01*
X215733333Y-122356809D02*
X215685714Y-122261571D01*
X215685714Y-122071095D01*
X215733333Y-121975857D01*
X215780952Y-121928238D01*
X215876190Y-121880619D01*
X216161904Y-121880619D01*
X216257142Y-121928238D01*
X216304761Y-121975857D01*
X216352380Y-122071095D01*
X216352380Y-122261571D01*
X216304761Y-122356809D01*
X215352380Y-124833000D02*
X215590476Y-124833000D01*
X215495238Y-125071095D02*
X215590476Y-124833000D01*
X215495238Y-124594904D01*
X215780952Y-124975857D02*
X215590476Y-124833000D01*
X215780952Y-124690142D01*
%TO.C,C13*%
X293727142Y-133619857D02*
X293774761Y-133667476D01*
X293822380Y-133810333D01*
X293822380Y-133905571D01*
X293774761Y-134048428D01*
X293679523Y-134143666D01*
X293584285Y-134191285D01*
X293393809Y-134238904D01*
X293250952Y-134238904D01*
X293060476Y-134191285D01*
X292965238Y-134143666D01*
X292870000Y-134048428D01*
X292822380Y-133905571D01*
X292822380Y-133810333D01*
X292870000Y-133667476D01*
X292917619Y-133619857D01*
X293822380Y-132667476D02*
X293822380Y-133238904D01*
X293822380Y-132953190D02*
X292822380Y-132953190D01*
X292965238Y-133048428D01*
X293060476Y-133143666D01*
X293108095Y-133238904D01*
X292822380Y-132334142D02*
X292822380Y-131715095D01*
X293203333Y-132048428D01*
X293203333Y-131905571D01*
X293250952Y-131810333D01*
X293298571Y-131762714D01*
X293393809Y-131715095D01*
X293631904Y-131715095D01*
X293727142Y-131762714D01*
X293774761Y-131810333D01*
X293822380Y-131905571D01*
X293822380Y-132191285D01*
X293774761Y-132286523D01*
X293727142Y-132334142D01*
X293822380Y-135834142D02*
X293822380Y-136405571D01*
X293822380Y-136119857D02*
X292822380Y-136119857D01*
X292965238Y-136215095D01*
X293060476Y-136310333D01*
X293108095Y-136405571D01*
X292822380Y-135215095D02*
X292822380Y-135119857D01*
X292870000Y-135024619D01*
X292917619Y-134977000D01*
X293012857Y-134929380D01*
X293203333Y-134881761D01*
X293441428Y-134881761D01*
X293631904Y-134929380D01*
X293727142Y-134977000D01*
X293774761Y-135024619D01*
X293822380Y-135119857D01*
X293822380Y-135215095D01*
X293774761Y-135310333D01*
X293727142Y-135357952D01*
X293631904Y-135405571D01*
X293441428Y-135453190D01*
X293203333Y-135453190D01*
X293012857Y-135405571D01*
X292917619Y-135357952D01*
X292870000Y-135310333D01*
X292822380Y-135215095D01*
X293155714Y-134024619D02*
X293822380Y-134024619D01*
X293155714Y-134453190D02*
X293679523Y-134453190D01*
X293774761Y-134405571D01*
X293822380Y-134310333D01*
X293822380Y-134167476D01*
X293774761Y-134072238D01*
X293727142Y-134024619D01*
X293298571Y-133215095D02*
X293298571Y-133548428D01*
X293822380Y-133548428D02*
X292822380Y-133548428D01*
X292822380Y-133072238D01*
X293727142Y-131357952D02*
X293774761Y-131405571D01*
X293822380Y-131548428D01*
X293822380Y-131643666D01*
X293774761Y-131786523D01*
X293679523Y-131881761D01*
X293584285Y-131929380D01*
X293393809Y-131977000D01*
X293250952Y-131977000D01*
X293060476Y-131929380D01*
X292965238Y-131881761D01*
X292870000Y-131786523D01*
X292822380Y-131643666D01*
X292822380Y-131548428D01*
X292870000Y-131405571D01*
X292917619Y-131357952D01*
X293822380Y-130500809D02*
X293298571Y-130500809D01*
X293203333Y-130548428D01*
X293155714Y-130643666D01*
X293155714Y-130834142D01*
X293203333Y-130929380D01*
X293774761Y-130500809D02*
X293822380Y-130596047D01*
X293822380Y-130834142D01*
X293774761Y-130929380D01*
X293679523Y-130977000D01*
X293584285Y-130977000D01*
X293489047Y-130929380D01*
X293441428Y-130834142D01*
X293441428Y-130596047D01*
X293393809Y-130500809D01*
X293155714Y-130024619D02*
X294155714Y-130024619D01*
X293203333Y-130024619D02*
X293155714Y-129929380D01*
X293155714Y-129738904D01*
X293203333Y-129643666D01*
X293250952Y-129596047D01*
X293346190Y-129548428D01*
X293631904Y-129548428D01*
X293727142Y-129596047D01*
X293774761Y-129643666D01*
X293822380Y-129738904D01*
X293822380Y-129929380D01*
X293774761Y-130024619D01*
X292822380Y-132977000D02*
X293060476Y-132977000D01*
X292965238Y-133215095D02*
X293060476Y-132977000D01*
X292965238Y-132738904D01*
X293250952Y-133119857D02*
X293060476Y-132977000D01*
X293250952Y-132834142D01*
%TO.C,C12*%
X242927142Y-125475857D02*
X242974761Y-125523476D01*
X243022380Y-125666333D01*
X243022380Y-125761571D01*
X242974761Y-125904428D01*
X242879523Y-125999666D01*
X242784285Y-126047285D01*
X242593809Y-126094904D01*
X242450952Y-126094904D01*
X242260476Y-126047285D01*
X242165238Y-125999666D01*
X242070000Y-125904428D01*
X242022380Y-125761571D01*
X242022380Y-125666333D01*
X242070000Y-125523476D01*
X242117619Y-125475857D01*
X243022380Y-124523476D02*
X243022380Y-125094904D01*
X243022380Y-124809190D02*
X242022380Y-124809190D01*
X242165238Y-124904428D01*
X242260476Y-124999666D01*
X242308095Y-125094904D01*
X242117619Y-124142523D02*
X242070000Y-124094904D01*
X242022380Y-123999666D01*
X242022380Y-123761571D01*
X242070000Y-123666333D01*
X242117619Y-123618714D01*
X242212857Y-123571095D01*
X242308095Y-123571095D01*
X242450952Y-123618714D01*
X243022380Y-124190142D01*
X243022380Y-123571095D01*
X243022380Y-127213952D02*
X243022380Y-127785380D01*
X243022380Y-127499666D02*
X242022380Y-127499666D01*
X242165238Y-127594904D01*
X242260476Y-127690142D01*
X242308095Y-127785380D01*
X242355714Y-126356809D02*
X243022380Y-126356809D01*
X242355714Y-126785380D02*
X242879523Y-126785380D01*
X242974761Y-126737761D01*
X243022380Y-126642523D01*
X243022380Y-126499666D01*
X242974761Y-126404428D01*
X242927142Y-126356809D01*
X242498571Y-125547285D02*
X242498571Y-125880619D01*
X243022380Y-125880619D02*
X242022380Y-125880619D01*
X242022380Y-125404428D01*
X242927142Y-123690142D02*
X242974761Y-123737761D01*
X243022380Y-123880619D01*
X243022380Y-123975857D01*
X242974761Y-124118714D01*
X242879523Y-124213952D01*
X242784285Y-124261571D01*
X242593809Y-124309190D01*
X242450952Y-124309190D01*
X242260476Y-124261571D01*
X242165238Y-124213952D01*
X242070000Y-124118714D01*
X242022380Y-123975857D01*
X242022380Y-123880619D01*
X242070000Y-123737761D01*
X242117619Y-123690142D01*
X243022380Y-122833000D02*
X242498571Y-122833000D01*
X242403333Y-122880619D01*
X242355714Y-122975857D01*
X242355714Y-123166333D01*
X242403333Y-123261571D01*
X242974761Y-122833000D02*
X243022380Y-122928238D01*
X243022380Y-123166333D01*
X242974761Y-123261571D01*
X242879523Y-123309190D01*
X242784285Y-123309190D01*
X242689047Y-123261571D01*
X242641428Y-123166333D01*
X242641428Y-122928238D01*
X242593809Y-122833000D01*
X242355714Y-122356809D02*
X243355714Y-122356809D01*
X242403333Y-122356809D02*
X242355714Y-122261571D01*
X242355714Y-122071095D01*
X242403333Y-121975857D01*
X242450952Y-121928238D01*
X242546190Y-121880619D01*
X242831904Y-121880619D01*
X242927142Y-121928238D01*
X242974761Y-121975857D01*
X243022380Y-122071095D01*
X243022380Y-122261571D01*
X242974761Y-122356809D01*
X242022380Y-124833000D02*
X242260476Y-124833000D01*
X242165238Y-125071095D02*
X242260476Y-124833000D01*
X242165238Y-124594904D01*
X242450952Y-124975857D02*
X242260476Y-124833000D01*
X242450952Y-124690142D01*
%TO.C,C11*%
X220067142Y-125475857D02*
X220114761Y-125523476D01*
X220162380Y-125666333D01*
X220162380Y-125761571D01*
X220114761Y-125904428D01*
X220019523Y-125999666D01*
X219924285Y-126047285D01*
X219733809Y-126094904D01*
X219590952Y-126094904D01*
X219400476Y-126047285D01*
X219305238Y-125999666D01*
X219210000Y-125904428D01*
X219162380Y-125761571D01*
X219162380Y-125666333D01*
X219210000Y-125523476D01*
X219257619Y-125475857D01*
X220162380Y-124523476D02*
X220162380Y-125094904D01*
X220162380Y-124809190D02*
X219162380Y-124809190D01*
X219305238Y-124904428D01*
X219400476Y-124999666D01*
X219448095Y-125094904D01*
X220162380Y-123571095D02*
X220162380Y-124142523D01*
X220162380Y-123856809D02*
X219162380Y-123856809D01*
X219305238Y-123952047D01*
X219400476Y-124047285D01*
X219448095Y-124142523D01*
X220162380Y-127213952D02*
X220162380Y-127785380D01*
X220162380Y-127499666D02*
X219162380Y-127499666D01*
X219305238Y-127594904D01*
X219400476Y-127690142D01*
X219448095Y-127785380D01*
X219495714Y-126356809D02*
X220162380Y-126356809D01*
X219495714Y-126785380D02*
X220019523Y-126785380D01*
X220114761Y-126737761D01*
X220162380Y-126642523D01*
X220162380Y-126499666D01*
X220114761Y-126404428D01*
X220067142Y-126356809D01*
X219638571Y-125547285D02*
X219638571Y-125880619D01*
X220162380Y-125880619D02*
X219162380Y-125880619D01*
X219162380Y-125404428D01*
X220067142Y-123690142D02*
X220114761Y-123737761D01*
X220162380Y-123880619D01*
X220162380Y-123975857D01*
X220114761Y-124118714D01*
X220019523Y-124213952D01*
X219924285Y-124261571D01*
X219733809Y-124309190D01*
X219590952Y-124309190D01*
X219400476Y-124261571D01*
X219305238Y-124213952D01*
X219210000Y-124118714D01*
X219162380Y-123975857D01*
X219162380Y-123880619D01*
X219210000Y-123737761D01*
X219257619Y-123690142D01*
X220162380Y-122833000D02*
X219638571Y-122833000D01*
X219543333Y-122880619D01*
X219495714Y-122975857D01*
X219495714Y-123166333D01*
X219543333Y-123261571D01*
X220114761Y-122833000D02*
X220162380Y-122928238D01*
X220162380Y-123166333D01*
X220114761Y-123261571D01*
X220019523Y-123309190D01*
X219924285Y-123309190D01*
X219829047Y-123261571D01*
X219781428Y-123166333D01*
X219781428Y-122928238D01*
X219733809Y-122833000D01*
X219495714Y-122356809D02*
X220495714Y-122356809D01*
X219543333Y-122356809D02*
X219495714Y-122261571D01*
X219495714Y-122071095D01*
X219543333Y-121975857D01*
X219590952Y-121928238D01*
X219686190Y-121880619D01*
X219971904Y-121880619D01*
X220067142Y-121928238D01*
X220114761Y-121975857D01*
X220162380Y-122071095D01*
X220162380Y-122261571D01*
X220114761Y-122356809D01*
X219162380Y-124833000D02*
X219400476Y-124833000D01*
X219305238Y-125071095D02*
X219400476Y-124833000D01*
X219305238Y-124594904D01*
X219590952Y-124975857D02*
X219400476Y-124833000D01*
X219590952Y-124690142D01*
%TO.C,C10*%
X239117142Y-125475857D02*
X239164761Y-125523476D01*
X239212380Y-125666333D01*
X239212380Y-125761571D01*
X239164761Y-125904428D01*
X239069523Y-125999666D01*
X238974285Y-126047285D01*
X238783809Y-126094904D01*
X238640952Y-126094904D01*
X238450476Y-126047285D01*
X238355238Y-125999666D01*
X238260000Y-125904428D01*
X238212380Y-125761571D01*
X238212380Y-125666333D01*
X238260000Y-125523476D01*
X238307619Y-125475857D01*
X239212380Y-124523476D02*
X239212380Y-125094904D01*
X239212380Y-124809190D02*
X238212380Y-124809190D01*
X238355238Y-124904428D01*
X238450476Y-124999666D01*
X238498095Y-125094904D01*
X238212380Y-123904428D02*
X238212380Y-123809190D01*
X238260000Y-123713952D01*
X238307619Y-123666333D01*
X238402857Y-123618714D01*
X238593333Y-123571095D01*
X238831428Y-123571095D01*
X239021904Y-123618714D01*
X239117142Y-123666333D01*
X239164761Y-123713952D01*
X239212380Y-123809190D01*
X239212380Y-123904428D01*
X239164761Y-123999666D01*
X239117142Y-124047285D01*
X239021904Y-124094904D01*
X238831428Y-124142523D01*
X238593333Y-124142523D01*
X238402857Y-124094904D01*
X238307619Y-124047285D01*
X238260000Y-123999666D01*
X238212380Y-123904428D01*
X239212380Y-127213952D02*
X239212380Y-127785380D01*
X239212380Y-127499666D02*
X238212380Y-127499666D01*
X238355238Y-127594904D01*
X238450476Y-127690142D01*
X238498095Y-127785380D01*
X238545714Y-126356809D02*
X239212380Y-126356809D01*
X238545714Y-126785380D02*
X239069523Y-126785380D01*
X239164761Y-126737761D01*
X239212380Y-126642523D01*
X239212380Y-126499666D01*
X239164761Y-126404428D01*
X239117142Y-126356809D01*
X238688571Y-125547285D02*
X238688571Y-125880619D01*
X239212380Y-125880619D02*
X238212380Y-125880619D01*
X238212380Y-125404428D01*
X239117142Y-123690142D02*
X239164761Y-123737761D01*
X239212380Y-123880619D01*
X239212380Y-123975857D01*
X239164761Y-124118714D01*
X239069523Y-124213952D01*
X238974285Y-124261571D01*
X238783809Y-124309190D01*
X238640952Y-124309190D01*
X238450476Y-124261571D01*
X238355238Y-124213952D01*
X238260000Y-124118714D01*
X238212380Y-123975857D01*
X238212380Y-123880619D01*
X238260000Y-123737761D01*
X238307619Y-123690142D01*
X239212380Y-122833000D02*
X238688571Y-122833000D01*
X238593333Y-122880619D01*
X238545714Y-122975857D01*
X238545714Y-123166333D01*
X238593333Y-123261571D01*
X239164761Y-122833000D02*
X239212380Y-122928238D01*
X239212380Y-123166333D01*
X239164761Y-123261571D01*
X239069523Y-123309190D01*
X238974285Y-123309190D01*
X238879047Y-123261571D01*
X238831428Y-123166333D01*
X238831428Y-122928238D01*
X238783809Y-122833000D01*
X238545714Y-122356809D02*
X239545714Y-122356809D01*
X238593333Y-122356809D02*
X238545714Y-122261571D01*
X238545714Y-122071095D01*
X238593333Y-121975857D01*
X238640952Y-121928238D01*
X238736190Y-121880619D01*
X239021904Y-121880619D01*
X239117142Y-121928238D01*
X239164761Y-121975857D01*
X239212380Y-122071095D01*
X239212380Y-122261571D01*
X239164761Y-122356809D01*
X238212380Y-124833000D02*
X238450476Y-124833000D01*
X238355238Y-125071095D02*
X238450476Y-124833000D01*
X238355238Y-124594904D01*
X238640952Y-124975857D02*
X238450476Y-124833000D01*
X238640952Y-124690142D01*
%TO.C,C9*%
X235307142Y-124999666D02*
X235354761Y-125047285D01*
X235402380Y-125190142D01*
X235402380Y-125285380D01*
X235354761Y-125428238D01*
X235259523Y-125523476D01*
X235164285Y-125571095D01*
X234973809Y-125618714D01*
X234830952Y-125618714D01*
X234640476Y-125571095D01*
X234545238Y-125523476D01*
X234450000Y-125428238D01*
X234402380Y-125285380D01*
X234402380Y-125190142D01*
X234450000Y-125047285D01*
X234497619Y-124999666D01*
X235402380Y-124523476D02*
X235402380Y-124333000D01*
X235354761Y-124237761D01*
X235307142Y-124190142D01*
X235164285Y-124094904D01*
X234973809Y-124047285D01*
X234592857Y-124047285D01*
X234497619Y-124094904D01*
X234450000Y-124142523D01*
X234402380Y-124237761D01*
X234402380Y-124428238D01*
X234450000Y-124523476D01*
X234497619Y-124571095D01*
X234592857Y-124618714D01*
X234830952Y-124618714D01*
X234926190Y-124571095D01*
X234973809Y-124523476D01*
X235021428Y-124428238D01*
X235021428Y-124237761D01*
X234973809Y-124142523D01*
X234926190Y-124094904D01*
X234830952Y-124047285D01*
X235402380Y-127213952D02*
X235402380Y-127785380D01*
X235402380Y-127499666D02*
X234402380Y-127499666D01*
X234545238Y-127594904D01*
X234640476Y-127690142D01*
X234688095Y-127785380D01*
X234735714Y-126356809D02*
X235402380Y-126356809D01*
X234735714Y-126785380D02*
X235259523Y-126785380D01*
X235354761Y-126737761D01*
X235402380Y-126642523D01*
X235402380Y-126499666D01*
X235354761Y-126404428D01*
X235307142Y-126356809D01*
X234878571Y-125547285D02*
X234878571Y-125880619D01*
X235402380Y-125880619D02*
X234402380Y-125880619D01*
X234402380Y-125404428D01*
X235307142Y-123690142D02*
X235354761Y-123737761D01*
X235402380Y-123880619D01*
X235402380Y-123975857D01*
X235354761Y-124118714D01*
X235259523Y-124213952D01*
X235164285Y-124261571D01*
X234973809Y-124309190D01*
X234830952Y-124309190D01*
X234640476Y-124261571D01*
X234545238Y-124213952D01*
X234450000Y-124118714D01*
X234402380Y-123975857D01*
X234402380Y-123880619D01*
X234450000Y-123737761D01*
X234497619Y-123690142D01*
X235402380Y-122833000D02*
X234878571Y-122833000D01*
X234783333Y-122880619D01*
X234735714Y-122975857D01*
X234735714Y-123166333D01*
X234783333Y-123261571D01*
X235354761Y-122833000D02*
X235402380Y-122928238D01*
X235402380Y-123166333D01*
X235354761Y-123261571D01*
X235259523Y-123309190D01*
X235164285Y-123309190D01*
X235069047Y-123261571D01*
X235021428Y-123166333D01*
X235021428Y-122928238D01*
X234973809Y-122833000D01*
X234735714Y-122356809D02*
X235735714Y-122356809D01*
X234783333Y-122356809D02*
X234735714Y-122261571D01*
X234735714Y-122071095D01*
X234783333Y-121975857D01*
X234830952Y-121928238D01*
X234926190Y-121880619D01*
X235211904Y-121880619D01*
X235307142Y-121928238D01*
X235354761Y-121975857D01*
X235402380Y-122071095D01*
X235402380Y-122261571D01*
X235354761Y-122356809D01*
X234402380Y-124833000D02*
X234640476Y-124833000D01*
X234545238Y-125071095D02*
X234640476Y-124833000D01*
X234545238Y-124594904D01*
X234830952Y-124975857D02*
X234640476Y-124833000D01*
X234830952Y-124690142D01*
%TO.C,C8*%
X289917142Y-133143666D02*
X289964761Y-133191285D01*
X290012380Y-133334142D01*
X290012380Y-133429380D01*
X289964761Y-133572238D01*
X289869523Y-133667476D01*
X289774285Y-133715095D01*
X289583809Y-133762714D01*
X289440952Y-133762714D01*
X289250476Y-133715095D01*
X289155238Y-133667476D01*
X289060000Y-133572238D01*
X289012380Y-133429380D01*
X289012380Y-133334142D01*
X289060000Y-133191285D01*
X289107619Y-133143666D01*
X289440952Y-132572238D02*
X289393333Y-132667476D01*
X289345714Y-132715095D01*
X289250476Y-132762714D01*
X289202857Y-132762714D01*
X289107619Y-132715095D01*
X289060000Y-132667476D01*
X289012380Y-132572238D01*
X289012380Y-132381761D01*
X289060000Y-132286523D01*
X289107619Y-132238904D01*
X289202857Y-132191285D01*
X289250476Y-132191285D01*
X289345714Y-132238904D01*
X289393333Y-132286523D01*
X289440952Y-132381761D01*
X289440952Y-132572238D01*
X289488571Y-132667476D01*
X289536190Y-132715095D01*
X289631428Y-132762714D01*
X289821904Y-132762714D01*
X289917142Y-132715095D01*
X289964761Y-132667476D01*
X290012380Y-132572238D01*
X290012380Y-132381761D01*
X289964761Y-132286523D01*
X289917142Y-132238904D01*
X289821904Y-132191285D01*
X289631428Y-132191285D01*
X289536190Y-132238904D01*
X289488571Y-132286523D01*
X289440952Y-132381761D01*
X290012380Y-135834142D02*
X290012380Y-136405571D01*
X290012380Y-136119857D02*
X289012380Y-136119857D01*
X289155238Y-136215095D01*
X289250476Y-136310333D01*
X289298095Y-136405571D01*
X289012380Y-135215095D02*
X289012380Y-135119857D01*
X289060000Y-135024619D01*
X289107619Y-134977000D01*
X289202857Y-134929380D01*
X289393333Y-134881761D01*
X289631428Y-134881761D01*
X289821904Y-134929380D01*
X289917142Y-134977000D01*
X289964761Y-135024619D01*
X290012380Y-135119857D01*
X290012380Y-135215095D01*
X289964761Y-135310333D01*
X289917142Y-135357952D01*
X289821904Y-135405571D01*
X289631428Y-135453190D01*
X289393333Y-135453190D01*
X289202857Y-135405571D01*
X289107619Y-135357952D01*
X289060000Y-135310333D01*
X289012380Y-135215095D01*
X289345714Y-134024619D02*
X290012380Y-134024619D01*
X289345714Y-134453190D02*
X289869523Y-134453190D01*
X289964761Y-134405571D01*
X290012380Y-134310333D01*
X290012380Y-134167476D01*
X289964761Y-134072238D01*
X289917142Y-134024619D01*
X289488571Y-133215095D02*
X289488571Y-133548428D01*
X290012380Y-133548428D02*
X289012380Y-133548428D01*
X289012380Y-133072238D01*
X289917142Y-131357952D02*
X289964761Y-131405571D01*
X290012380Y-131548428D01*
X290012380Y-131643666D01*
X289964761Y-131786523D01*
X289869523Y-131881761D01*
X289774285Y-131929380D01*
X289583809Y-131977000D01*
X289440952Y-131977000D01*
X289250476Y-131929380D01*
X289155238Y-131881761D01*
X289060000Y-131786523D01*
X289012380Y-131643666D01*
X289012380Y-131548428D01*
X289060000Y-131405571D01*
X289107619Y-131357952D01*
X290012380Y-130500809D02*
X289488571Y-130500809D01*
X289393333Y-130548428D01*
X289345714Y-130643666D01*
X289345714Y-130834142D01*
X289393333Y-130929380D01*
X289964761Y-130500809D02*
X290012380Y-130596047D01*
X290012380Y-130834142D01*
X289964761Y-130929380D01*
X289869523Y-130977000D01*
X289774285Y-130977000D01*
X289679047Y-130929380D01*
X289631428Y-130834142D01*
X289631428Y-130596047D01*
X289583809Y-130500809D01*
X289345714Y-130024619D02*
X290345714Y-130024619D01*
X289393333Y-130024619D02*
X289345714Y-129929380D01*
X289345714Y-129738904D01*
X289393333Y-129643666D01*
X289440952Y-129596047D01*
X289536190Y-129548428D01*
X289821904Y-129548428D01*
X289917142Y-129596047D01*
X289964761Y-129643666D01*
X290012380Y-129738904D01*
X290012380Y-129929380D01*
X289964761Y-130024619D01*
X289012380Y-132977000D02*
X289250476Y-132977000D01*
X289155238Y-133215095D02*
X289250476Y-132977000D01*
X289155238Y-132738904D01*
X289440952Y-133119857D02*
X289250476Y-132977000D01*
X289440952Y-132834142D01*
%TO.C,C7*%
X208637142Y-124999666D02*
X208684761Y-125047285D01*
X208732380Y-125190142D01*
X208732380Y-125285380D01*
X208684761Y-125428238D01*
X208589523Y-125523476D01*
X208494285Y-125571095D01*
X208303809Y-125618714D01*
X208160952Y-125618714D01*
X207970476Y-125571095D01*
X207875238Y-125523476D01*
X207780000Y-125428238D01*
X207732380Y-125285380D01*
X207732380Y-125190142D01*
X207780000Y-125047285D01*
X207827619Y-124999666D01*
X207732380Y-124666333D02*
X207732380Y-123999666D01*
X208732380Y-124428238D01*
X208732380Y-127213952D02*
X208732380Y-127785380D01*
X208732380Y-127499666D02*
X207732380Y-127499666D01*
X207875238Y-127594904D01*
X207970476Y-127690142D01*
X208018095Y-127785380D01*
X208065714Y-126356809D02*
X208732380Y-126356809D01*
X208065714Y-126785380D02*
X208589523Y-126785380D01*
X208684761Y-126737761D01*
X208732380Y-126642523D01*
X208732380Y-126499666D01*
X208684761Y-126404428D01*
X208637142Y-126356809D01*
X208208571Y-125547285D02*
X208208571Y-125880619D01*
X208732380Y-125880619D02*
X207732380Y-125880619D01*
X207732380Y-125404428D01*
X208637142Y-123690142D02*
X208684761Y-123737761D01*
X208732380Y-123880619D01*
X208732380Y-123975857D01*
X208684761Y-124118714D01*
X208589523Y-124213952D01*
X208494285Y-124261571D01*
X208303809Y-124309190D01*
X208160952Y-124309190D01*
X207970476Y-124261571D01*
X207875238Y-124213952D01*
X207780000Y-124118714D01*
X207732380Y-123975857D01*
X207732380Y-123880619D01*
X207780000Y-123737761D01*
X207827619Y-123690142D01*
X208732380Y-122833000D02*
X208208571Y-122833000D01*
X208113333Y-122880619D01*
X208065714Y-122975857D01*
X208065714Y-123166333D01*
X208113333Y-123261571D01*
X208684761Y-122833000D02*
X208732380Y-122928238D01*
X208732380Y-123166333D01*
X208684761Y-123261571D01*
X208589523Y-123309190D01*
X208494285Y-123309190D01*
X208399047Y-123261571D01*
X208351428Y-123166333D01*
X208351428Y-122928238D01*
X208303809Y-122833000D01*
X208065714Y-122356809D02*
X209065714Y-122356809D01*
X208113333Y-122356809D02*
X208065714Y-122261571D01*
X208065714Y-122071095D01*
X208113333Y-121975857D01*
X208160952Y-121928238D01*
X208256190Y-121880619D01*
X208541904Y-121880619D01*
X208637142Y-121928238D01*
X208684761Y-121975857D01*
X208732380Y-122071095D01*
X208732380Y-122261571D01*
X208684761Y-122356809D01*
X207732380Y-124833000D02*
X207970476Y-124833000D01*
X207875238Y-125071095D02*
X207970476Y-124833000D01*
X207875238Y-124594904D01*
X208160952Y-124975857D02*
X207970476Y-124833000D01*
X208160952Y-124690142D01*
%TO.C,C6*%
X254357142Y-124999666D02*
X254404761Y-125047285D01*
X254452380Y-125190142D01*
X254452380Y-125285380D01*
X254404761Y-125428238D01*
X254309523Y-125523476D01*
X254214285Y-125571095D01*
X254023809Y-125618714D01*
X253880952Y-125618714D01*
X253690476Y-125571095D01*
X253595238Y-125523476D01*
X253500000Y-125428238D01*
X253452380Y-125285380D01*
X253452380Y-125190142D01*
X253500000Y-125047285D01*
X253547619Y-124999666D01*
X253452380Y-124142523D02*
X253452380Y-124333000D01*
X253500000Y-124428238D01*
X253547619Y-124475857D01*
X253690476Y-124571095D01*
X253880952Y-124618714D01*
X254261904Y-124618714D01*
X254357142Y-124571095D01*
X254404761Y-124523476D01*
X254452380Y-124428238D01*
X254452380Y-124237761D01*
X254404761Y-124142523D01*
X254357142Y-124094904D01*
X254261904Y-124047285D01*
X254023809Y-124047285D01*
X253928571Y-124094904D01*
X253880952Y-124142523D01*
X253833333Y-124237761D01*
X253833333Y-124428238D01*
X253880952Y-124523476D01*
X253928571Y-124571095D01*
X254023809Y-124618714D01*
X254452380Y-127213952D02*
X254452380Y-127785380D01*
X254452380Y-127499666D02*
X253452380Y-127499666D01*
X253595238Y-127594904D01*
X253690476Y-127690142D01*
X253738095Y-127785380D01*
X253785714Y-126356809D02*
X254452380Y-126356809D01*
X253785714Y-126785380D02*
X254309523Y-126785380D01*
X254404761Y-126737761D01*
X254452380Y-126642523D01*
X254452380Y-126499666D01*
X254404761Y-126404428D01*
X254357142Y-126356809D01*
X253928571Y-125547285D02*
X253928571Y-125880619D01*
X254452380Y-125880619D02*
X253452380Y-125880619D01*
X253452380Y-125404428D01*
X254357142Y-123690142D02*
X254404761Y-123737761D01*
X254452380Y-123880619D01*
X254452380Y-123975857D01*
X254404761Y-124118714D01*
X254309523Y-124213952D01*
X254214285Y-124261571D01*
X254023809Y-124309190D01*
X253880952Y-124309190D01*
X253690476Y-124261571D01*
X253595238Y-124213952D01*
X253500000Y-124118714D01*
X253452380Y-123975857D01*
X253452380Y-123880619D01*
X253500000Y-123737761D01*
X253547619Y-123690142D01*
X254452380Y-122833000D02*
X253928571Y-122833000D01*
X253833333Y-122880619D01*
X253785714Y-122975857D01*
X253785714Y-123166333D01*
X253833333Y-123261571D01*
X254404761Y-122833000D02*
X254452380Y-122928238D01*
X254452380Y-123166333D01*
X254404761Y-123261571D01*
X254309523Y-123309190D01*
X254214285Y-123309190D01*
X254119047Y-123261571D01*
X254071428Y-123166333D01*
X254071428Y-122928238D01*
X254023809Y-122833000D01*
X253785714Y-122356809D02*
X254785714Y-122356809D01*
X253833333Y-122356809D02*
X253785714Y-122261571D01*
X253785714Y-122071095D01*
X253833333Y-121975857D01*
X253880952Y-121928238D01*
X253976190Y-121880619D01*
X254261904Y-121880619D01*
X254357142Y-121928238D01*
X254404761Y-121975857D01*
X254452380Y-122071095D01*
X254452380Y-122261571D01*
X254404761Y-122356809D01*
X253452380Y-124833000D02*
X253690476Y-124833000D01*
X253595238Y-125071095D02*
X253690476Y-124833000D01*
X253595238Y-124594904D01*
X253880952Y-124975857D02*
X253690476Y-124833000D01*
X253880952Y-124690142D01*
%TO.C,C5*%
X246737142Y-124999666D02*
X246784761Y-125047285D01*
X246832380Y-125190142D01*
X246832380Y-125285380D01*
X246784761Y-125428238D01*
X246689523Y-125523476D01*
X246594285Y-125571095D01*
X246403809Y-125618714D01*
X246260952Y-125618714D01*
X246070476Y-125571095D01*
X245975238Y-125523476D01*
X245880000Y-125428238D01*
X245832380Y-125285380D01*
X245832380Y-125190142D01*
X245880000Y-125047285D01*
X245927619Y-124999666D01*
X245832380Y-124094904D02*
X245832380Y-124571095D01*
X246308571Y-124618714D01*
X246260952Y-124571095D01*
X246213333Y-124475857D01*
X246213333Y-124237761D01*
X246260952Y-124142523D01*
X246308571Y-124094904D01*
X246403809Y-124047285D01*
X246641904Y-124047285D01*
X246737142Y-124094904D01*
X246784761Y-124142523D01*
X246832380Y-124237761D01*
X246832380Y-124475857D01*
X246784761Y-124571095D01*
X246737142Y-124618714D01*
X246832380Y-127213952D02*
X246832380Y-127785380D01*
X246832380Y-127499666D02*
X245832380Y-127499666D01*
X245975238Y-127594904D01*
X246070476Y-127690142D01*
X246118095Y-127785380D01*
X246165714Y-126356809D02*
X246832380Y-126356809D01*
X246165714Y-126785380D02*
X246689523Y-126785380D01*
X246784761Y-126737761D01*
X246832380Y-126642523D01*
X246832380Y-126499666D01*
X246784761Y-126404428D01*
X246737142Y-126356809D01*
X246308571Y-125547285D02*
X246308571Y-125880619D01*
X246832380Y-125880619D02*
X245832380Y-125880619D01*
X245832380Y-125404428D01*
X246737142Y-123690142D02*
X246784761Y-123737761D01*
X246832380Y-123880619D01*
X246832380Y-123975857D01*
X246784761Y-124118714D01*
X246689523Y-124213952D01*
X246594285Y-124261571D01*
X246403809Y-124309190D01*
X246260952Y-124309190D01*
X246070476Y-124261571D01*
X245975238Y-124213952D01*
X245880000Y-124118714D01*
X245832380Y-123975857D01*
X245832380Y-123880619D01*
X245880000Y-123737761D01*
X245927619Y-123690142D01*
X246832380Y-122833000D02*
X246308571Y-122833000D01*
X246213333Y-122880619D01*
X246165714Y-122975857D01*
X246165714Y-123166333D01*
X246213333Y-123261571D01*
X246784761Y-122833000D02*
X246832380Y-122928238D01*
X246832380Y-123166333D01*
X246784761Y-123261571D01*
X246689523Y-123309190D01*
X246594285Y-123309190D01*
X246499047Y-123261571D01*
X246451428Y-123166333D01*
X246451428Y-122928238D01*
X246403809Y-122833000D01*
X246165714Y-122356809D02*
X247165714Y-122356809D01*
X246213333Y-122356809D02*
X246165714Y-122261571D01*
X246165714Y-122071095D01*
X246213333Y-121975857D01*
X246260952Y-121928238D01*
X246356190Y-121880619D01*
X246641904Y-121880619D01*
X246737142Y-121928238D01*
X246784761Y-121975857D01*
X246832380Y-122071095D01*
X246832380Y-122261571D01*
X246784761Y-122356809D01*
X245832380Y-124833000D02*
X246070476Y-124833000D01*
X245975238Y-125071095D02*
X246070476Y-124833000D01*
X245975238Y-124594904D01*
X246260952Y-124975857D02*
X246070476Y-124833000D01*
X246260952Y-124690142D01*
%TO.C,C4*%
X294846333Y-96877142D02*
X294798714Y-96924761D01*
X294655857Y-96972380D01*
X294560619Y-96972380D01*
X294417761Y-96924761D01*
X294322523Y-96829523D01*
X294274904Y-96734285D01*
X294227285Y-96543809D01*
X294227285Y-96400952D01*
X294274904Y-96210476D01*
X294322523Y-96115238D01*
X294417761Y-96020000D01*
X294560619Y-95972380D01*
X294655857Y-95972380D01*
X294798714Y-96020000D01*
X294846333Y-96067619D01*
X295703476Y-96305714D02*
X295703476Y-96972380D01*
X295465380Y-95924761D02*
X295227285Y-96639047D01*
X295846333Y-96639047D01*
X292632047Y-96972380D02*
X292060619Y-96972380D01*
X292346333Y-96972380D02*
X292346333Y-95972380D01*
X292251095Y-96115238D01*
X292155857Y-96210476D01*
X292060619Y-96258095D01*
X293489190Y-96305714D02*
X293489190Y-96972380D01*
X293060619Y-96305714D02*
X293060619Y-96829523D01*
X293108238Y-96924761D01*
X293203476Y-96972380D01*
X293346333Y-96972380D01*
X293441571Y-96924761D01*
X293489190Y-96877142D01*
X294298714Y-96448571D02*
X293965380Y-96448571D01*
X293965380Y-96972380D02*
X293965380Y-95972380D01*
X294441571Y-95972380D01*
X296155857Y-96877142D02*
X296108238Y-96924761D01*
X295965380Y-96972380D01*
X295870142Y-96972380D01*
X295727285Y-96924761D01*
X295632047Y-96829523D01*
X295584428Y-96734285D01*
X295536809Y-96543809D01*
X295536809Y-96400952D01*
X295584428Y-96210476D01*
X295632047Y-96115238D01*
X295727285Y-96020000D01*
X295870142Y-95972380D01*
X295965380Y-95972380D01*
X296108238Y-96020000D01*
X296155857Y-96067619D01*
X297013000Y-96972380D02*
X297013000Y-96448571D01*
X296965380Y-96353333D01*
X296870142Y-96305714D01*
X296679666Y-96305714D01*
X296584428Y-96353333D01*
X297013000Y-96924761D02*
X296917761Y-96972380D01*
X296679666Y-96972380D01*
X296584428Y-96924761D01*
X296536809Y-96829523D01*
X296536809Y-96734285D01*
X296584428Y-96639047D01*
X296679666Y-96591428D01*
X296917761Y-96591428D01*
X297013000Y-96543809D01*
X297489190Y-96305714D02*
X297489190Y-97305714D01*
X297489190Y-96353333D02*
X297584428Y-96305714D01*
X297774904Y-96305714D01*
X297870142Y-96353333D01*
X297917761Y-96400952D01*
X297965380Y-96496190D01*
X297965380Y-96781904D01*
X297917761Y-96877142D01*
X297870142Y-96924761D01*
X297774904Y-96972380D01*
X297584428Y-96972380D01*
X297489190Y-96924761D01*
X295013000Y-95972380D02*
X295013000Y-96210476D01*
X294774904Y-96115238D02*
X295013000Y-96210476D01*
X295251095Y-96115238D01*
X294870142Y-96400952D02*
X295013000Y-96210476D01*
X295155857Y-96400952D01*
%TO.C,C3*%
X294846333Y-100687142D02*
X294798714Y-100734761D01*
X294655857Y-100782380D01*
X294560619Y-100782380D01*
X294417761Y-100734761D01*
X294322523Y-100639523D01*
X294274904Y-100544285D01*
X294227285Y-100353809D01*
X294227285Y-100210952D01*
X294274904Y-100020476D01*
X294322523Y-99925238D01*
X294417761Y-99830000D01*
X294560619Y-99782380D01*
X294655857Y-99782380D01*
X294798714Y-99830000D01*
X294846333Y-99877619D01*
X295179666Y-99782380D02*
X295798714Y-99782380D01*
X295465380Y-100163333D01*
X295608238Y-100163333D01*
X295703476Y-100210952D01*
X295751095Y-100258571D01*
X295798714Y-100353809D01*
X295798714Y-100591904D01*
X295751095Y-100687142D01*
X295703476Y-100734761D01*
X295608238Y-100782380D01*
X295322523Y-100782380D01*
X295227285Y-100734761D01*
X295179666Y-100687142D01*
X292632047Y-100782380D02*
X292060619Y-100782380D01*
X292346333Y-100782380D02*
X292346333Y-99782380D01*
X292251095Y-99925238D01*
X292155857Y-100020476D01*
X292060619Y-100068095D01*
X293489190Y-100115714D02*
X293489190Y-100782380D01*
X293060619Y-100115714D02*
X293060619Y-100639523D01*
X293108238Y-100734761D01*
X293203476Y-100782380D01*
X293346333Y-100782380D01*
X293441571Y-100734761D01*
X293489190Y-100687142D01*
X294298714Y-100258571D02*
X293965380Y-100258571D01*
X293965380Y-100782380D02*
X293965380Y-99782380D01*
X294441571Y-99782380D01*
X296155857Y-100687142D02*
X296108238Y-100734761D01*
X295965380Y-100782380D01*
X295870142Y-100782380D01*
X295727285Y-100734761D01*
X295632047Y-100639523D01*
X295584428Y-100544285D01*
X295536809Y-100353809D01*
X295536809Y-100210952D01*
X295584428Y-100020476D01*
X295632047Y-99925238D01*
X295727285Y-99830000D01*
X295870142Y-99782380D01*
X295965380Y-99782380D01*
X296108238Y-99830000D01*
X296155857Y-99877619D01*
X297013000Y-100782380D02*
X297013000Y-100258571D01*
X296965380Y-100163333D01*
X296870142Y-100115714D01*
X296679666Y-100115714D01*
X296584428Y-100163333D01*
X297013000Y-100734761D02*
X296917761Y-100782380D01*
X296679666Y-100782380D01*
X296584428Y-100734761D01*
X296536809Y-100639523D01*
X296536809Y-100544285D01*
X296584428Y-100449047D01*
X296679666Y-100401428D01*
X296917761Y-100401428D01*
X297013000Y-100353809D01*
X297489190Y-100115714D02*
X297489190Y-101115714D01*
X297489190Y-100163333D02*
X297584428Y-100115714D01*
X297774904Y-100115714D01*
X297870142Y-100163333D01*
X297917761Y-100210952D01*
X297965380Y-100306190D01*
X297965380Y-100591904D01*
X297917761Y-100687142D01*
X297870142Y-100734761D01*
X297774904Y-100782380D01*
X297584428Y-100782380D01*
X297489190Y-100734761D01*
X295013000Y-99782380D02*
X295013000Y-100020476D01*
X294774904Y-99925238D02*
X295013000Y-100020476D01*
X295251095Y-99925238D01*
X294870142Y-100210952D02*
X295013000Y-100020476D01*
X295155857Y-100210952D01*
%TO.C,C2*%
X294846333Y-93067142D02*
X294798714Y-93114761D01*
X294655857Y-93162380D01*
X294560619Y-93162380D01*
X294417761Y-93114761D01*
X294322523Y-93019523D01*
X294274904Y-92924285D01*
X294227285Y-92733809D01*
X294227285Y-92590952D01*
X294274904Y-92400476D01*
X294322523Y-92305238D01*
X294417761Y-92210000D01*
X294560619Y-92162380D01*
X294655857Y-92162380D01*
X294798714Y-92210000D01*
X294846333Y-92257619D01*
X295227285Y-92257619D02*
X295274904Y-92210000D01*
X295370142Y-92162380D01*
X295608238Y-92162380D01*
X295703476Y-92210000D01*
X295751095Y-92257619D01*
X295798714Y-92352857D01*
X295798714Y-92448095D01*
X295751095Y-92590952D01*
X295179666Y-93162380D01*
X295798714Y-93162380D01*
X292632047Y-93162380D02*
X292060619Y-93162380D01*
X292346333Y-93162380D02*
X292346333Y-92162380D01*
X292251095Y-92305238D01*
X292155857Y-92400476D01*
X292060619Y-92448095D01*
X293489190Y-92495714D02*
X293489190Y-93162380D01*
X293060619Y-92495714D02*
X293060619Y-93019523D01*
X293108238Y-93114761D01*
X293203476Y-93162380D01*
X293346333Y-93162380D01*
X293441571Y-93114761D01*
X293489190Y-93067142D01*
X294298714Y-92638571D02*
X293965380Y-92638571D01*
X293965380Y-93162380D02*
X293965380Y-92162380D01*
X294441571Y-92162380D01*
X296155857Y-93067142D02*
X296108238Y-93114761D01*
X295965380Y-93162380D01*
X295870142Y-93162380D01*
X295727285Y-93114761D01*
X295632047Y-93019523D01*
X295584428Y-92924285D01*
X295536809Y-92733809D01*
X295536809Y-92590952D01*
X295584428Y-92400476D01*
X295632047Y-92305238D01*
X295727285Y-92210000D01*
X295870142Y-92162380D01*
X295965380Y-92162380D01*
X296108238Y-92210000D01*
X296155857Y-92257619D01*
X297013000Y-93162380D02*
X297013000Y-92638571D01*
X296965380Y-92543333D01*
X296870142Y-92495714D01*
X296679666Y-92495714D01*
X296584428Y-92543333D01*
X297013000Y-93114761D02*
X296917761Y-93162380D01*
X296679666Y-93162380D01*
X296584428Y-93114761D01*
X296536809Y-93019523D01*
X296536809Y-92924285D01*
X296584428Y-92829047D01*
X296679666Y-92781428D01*
X296917761Y-92781428D01*
X297013000Y-92733809D01*
X297489190Y-92495714D02*
X297489190Y-93495714D01*
X297489190Y-92543333D02*
X297584428Y-92495714D01*
X297774904Y-92495714D01*
X297870142Y-92543333D01*
X297917761Y-92590952D01*
X297965380Y-92686190D01*
X297965380Y-92971904D01*
X297917761Y-93067142D01*
X297870142Y-93114761D01*
X297774904Y-93162380D01*
X297584428Y-93162380D01*
X297489190Y-93114761D01*
X295013000Y-92162380D02*
X295013000Y-92400476D01*
X294774904Y-92305238D02*
X295013000Y-92400476D01*
X295251095Y-92305238D01*
X294870142Y-92590952D02*
X295013000Y-92400476D01*
X295155857Y-92590952D01*
%TO.C,C1*%
X294846333Y-104497142D02*
X294798714Y-104544761D01*
X294655857Y-104592380D01*
X294560619Y-104592380D01*
X294417761Y-104544761D01*
X294322523Y-104449523D01*
X294274904Y-104354285D01*
X294227285Y-104163809D01*
X294227285Y-104020952D01*
X294274904Y-103830476D01*
X294322523Y-103735238D01*
X294417761Y-103640000D01*
X294560619Y-103592380D01*
X294655857Y-103592380D01*
X294798714Y-103640000D01*
X294846333Y-103687619D01*
X295798714Y-104592380D02*
X295227285Y-104592380D01*
X295513000Y-104592380D02*
X295513000Y-103592380D01*
X295417761Y-103735238D01*
X295322523Y-103830476D01*
X295227285Y-103878095D01*
X292632047Y-104592380D02*
X292060619Y-104592380D01*
X292346333Y-104592380D02*
X292346333Y-103592380D01*
X292251095Y-103735238D01*
X292155857Y-103830476D01*
X292060619Y-103878095D01*
X293489190Y-103925714D02*
X293489190Y-104592380D01*
X293060619Y-103925714D02*
X293060619Y-104449523D01*
X293108238Y-104544761D01*
X293203476Y-104592380D01*
X293346333Y-104592380D01*
X293441571Y-104544761D01*
X293489190Y-104497142D01*
X294298714Y-104068571D02*
X293965380Y-104068571D01*
X293965380Y-104592380D02*
X293965380Y-103592380D01*
X294441571Y-103592380D01*
X296155857Y-104497142D02*
X296108238Y-104544761D01*
X295965380Y-104592380D01*
X295870142Y-104592380D01*
X295727285Y-104544761D01*
X295632047Y-104449523D01*
X295584428Y-104354285D01*
X295536809Y-104163809D01*
X295536809Y-104020952D01*
X295584428Y-103830476D01*
X295632047Y-103735238D01*
X295727285Y-103640000D01*
X295870142Y-103592380D01*
X295965380Y-103592380D01*
X296108238Y-103640000D01*
X296155857Y-103687619D01*
X297013000Y-104592380D02*
X297013000Y-104068571D01*
X296965380Y-103973333D01*
X296870142Y-103925714D01*
X296679666Y-103925714D01*
X296584428Y-103973333D01*
X297013000Y-104544761D02*
X296917761Y-104592380D01*
X296679666Y-104592380D01*
X296584428Y-104544761D01*
X296536809Y-104449523D01*
X296536809Y-104354285D01*
X296584428Y-104259047D01*
X296679666Y-104211428D01*
X296917761Y-104211428D01*
X297013000Y-104163809D01*
X297489190Y-103925714D02*
X297489190Y-104925714D01*
X297489190Y-103973333D02*
X297584428Y-103925714D01*
X297774904Y-103925714D01*
X297870142Y-103973333D01*
X297917761Y-104020952D01*
X297965380Y-104116190D01*
X297965380Y-104401904D01*
X297917761Y-104497142D01*
X297870142Y-104544761D01*
X297774904Y-104592380D01*
X297584428Y-104592380D01*
X297489190Y-104544761D01*
X295013000Y-103592380D02*
X295013000Y-103830476D01*
X294774904Y-103735238D02*
X295013000Y-103830476D01*
X295251095Y-103735238D01*
X294870142Y-104020952D02*
X295013000Y-103830476D01*
X295155857Y-104020952D01*
%TD*%
M02*
